%TF.GenerationSoftware,KiCad,Pcbnew,(6.0.6)*%
%TF.CreationDate,2022-10-28T21:49:34+08:00*%
%TF.ProjectId,KB_SmartWatch,4b425f53-6d61-4727-9457-617463682e6b,rev?*%
%TF.SameCoordinates,Original*%
%TF.FileFunction,Legend,Bot*%
%TF.FilePolarity,Positive*%
%FSLAX46Y46*%
G04 Gerber Fmt 4.6, Leading zero omitted, Abs format (unit mm)*
G04 Created by KiCad (PCBNEW (6.0.6)) date 2022-10-28 21:49:34*
%MOMM*%
%LPD*%
G01*
G04 APERTURE LIST*
G04 Aperture macros list*
%AMRoundRect*
0 Rectangle with rounded corners*
0 $1 Rounding radius*
0 $2 $3 $4 $5 $6 $7 $8 $9 X,Y pos of 4 corners*
0 Add a 4 corners polygon primitive as box body*
4,1,4,$2,$3,$4,$5,$6,$7,$8,$9,$2,$3,0*
0 Add four circle primitives for the rounded corners*
1,1,$1+$1,$2,$3*
1,1,$1+$1,$4,$5*
1,1,$1+$1,$6,$7*
1,1,$1+$1,$8,$9*
0 Add four rect primitives between the rounded corners*
20,1,$1+$1,$2,$3,$4,$5,0*
20,1,$1+$1,$4,$5,$6,$7,0*
20,1,$1+$1,$6,$7,$8,$9,0*
20,1,$1+$1,$8,$9,$2,$3,0*%
G04 Aperture macros list end*
%ADD10C,0.150000*%
%ADD11C,0.120000*%
%ADD12O,26.000000X4.600000*%
%ADD13RoundRect,0.250000X-0.450000X0.350000X-0.450000X-0.350000X0.450000X-0.350000X0.450000X0.350000X0*%
%ADD14R,1.700000X1.700000*%
%ADD15RoundRect,0.250000X0.350000X0.450000X-0.350000X0.450000X-0.350000X-0.450000X0.350000X-0.450000X0*%
%ADD16C,1.500000*%
%ADD17C,2.000000*%
%ADD18RoundRect,0.250000X-0.625000X0.400000X-0.625000X-0.400000X0.625000X-0.400000X0.625000X0.400000X0*%
%ADD19O,1.700000X1.700000*%
%ADD20RoundRect,0.250000X-0.350000X-0.450000X0.350000X-0.450000X0.350000X0.450000X-0.350000X0.450000X0*%
%ADD21RoundRect,0.250000X0.625000X-0.400000X0.625000X0.400000X-0.625000X0.400000X-0.625000X-0.400000X0*%
%ADD22RoundRect,0.250000X-0.412500X-0.650000X0.412500X-0.650000X0.412500X0.650000X-0.412500X0.650000X0*%
G04 APERTURE END LIST*
D10*
%TO.C,R12*%
X188952380Y-49857142D02*
X188476190Y-49523809D01*
X188952380Y-49285714D02*
X187952380Y-49285714D01*
X187952380Y-49666666D01*
X188000000Y-49761904D01*
X188047619Y-49809523D01*
X188142857Y-49857142D01*
X188285714Y-49857142D01*
X188380952Y-49809523D01*
X188428571Y-49761904D01*
X188476190Y-49666666D01*
X188476190Y-49285714D01*
X188952380Y-50809523D02*
X188952380Y-50238095D01*
X188952380Y-50523809D02*
X187952380Y-50523809D01*
X188095238Y-50428571D01*
X188190476Y-50333333D01*
X188238095Y-50238095D01*
X188047619Y-51190476D02*
X188000000Y-51238095D01*
X187952380Y-51333333D01*
X187952380Y-51571428D01*
X188000000Y-51666666D01*
X188047619Y-51714285D01*
X188142857Y-51761904D01*
X188238095Y-51761904D01*
X188380952Y-51714285D01*
X188952380Y-51142857D01*
X188952380Y-51761904D01*
%TO.C,J9*%
X187733333Y-46982380D02*
X187733333Y-47696666D01*
X187780952Y-47839523D01*
X187876190Y-47934761D01*
X188019047Y-47982380D01*
X188114285Y-47982380D01*
X187209523Y-47982380D02*
X187019047Y-47982380D01*
X186923809Y-47934761D01*
X186876190Y-47887142D01*
X186780952Y-47744285D01*
X186733333Y-47553809D01*
X186733333Y-47172857D01*
X186780952Y-47077619D01*
X186828571Y-47030000D01*
X186923809Y-46982380D01*
X187114285Y-46982380D01*
X187209523Y-47030000D01*
X187257142Y-47077619D01*
X187304761Y-47172857D01*
X187304761Y-47410952D01*
X187257142Y-47506190D01*
X187209523Y-47553809D01*
X187114285Y-47601428D01*
X186923809Y-47601428D01*
X186828571Y-47553809D01*
X186780952Y-47506190D01*
X186733333Y-47410952D01*
%TO.C,R15*%
X220842857Y-70602380D02*
X221176190Y-70126190D01*
X221414285Y-70602380D02*
X221414285Y-69602380D01*
X221033333Y-69602380D01*
X220938095Y-69650000D01*
X220890476Y-69697619D01*
X220842857Y-69792857D01*
X220842857Y-69935714D01*
X220890476Y-70030952D01*
X220938095Y-70078571D01*
X221033333Y-70126190D01*
X221414285Y-70126190D01*
X219890476Y-70602380D02*
X220461904Y-70602380D01*
X220176190Y-70602380D02*
X220176190Y-69602380D01*
X220271428Y-69745238D01*
X220366666Y-69840476D01*
X220461904Y-69888095D01*
X218985714Y-69602380D02*
X219461904Y-69602380D01*
X219509523Y-70078571D01*
X219461904Y-70030952D01*
X219366666Y-69983333D01*
X219128571Y-69983333D01*
X219033333Y-70030952D01*
X218985714Y-70078571D01*
X218938095Y-70173809D01*
X218938095Y-70411904D01*
X218985714Y-70507142D01*
X219033333Y-70554761D01*
X219128571Y-70602380D01*
X219366666Y-70602380D01*
X219461904Y-70554761D01*
X219509523Y-70507142D01*
%TO.C,R10*%
X217552380Y-41457142D02*
X217076190Y-41123809D01*
X217552380Y-40885714D02*
X216552380Y-40885714D01*
X216552380Y-41266666D01*
X216600000Y-41361904D01*
X216647619Y-41409523D01*
X216742857Y-41457142D01*
X216885714Y-41457142D01*
X216980952Y-41409523D01*
X217028571Y-41361904D01*
X217076190Y-41266666D01*
X217076190Y-40885714D01*
X217552380Y-42409523D02*
X217552380Y-41838095D01*
X217552380Y-42123809D02*
X216552380Y-42123809D01*
X216695238Y-42028571D01*
X216790476Y-41933333D01*
X216838095Y-41838095D01*
X216552380Y-43028571D02*
X216552380Y-43123809D01*
X216600000Y-43219047D01*
X216647619Y-43266666D01*
X216742857Y-43314285D01*
X216933333Y-43361904D01*
X217171428Y-43361904D01*
X217361904Y-43314285D01*
X217457142Y-43266666D01*
X217504761Y-43219047D01*
X217552380Y-43123809D01*
X217552380Y-43028571D01*
X217504761Y-42933333D01*
X217457142Y-42885714D01*
X217361904Y-42838095D01*
X217171428Y-42790476D01*
X216933333Y-42790476D01*
X216742857Y-42838095D01*
X216647619Y-42885714D01*
X216600000Y-42933333D01*
X216552380Y-43028571D01*
%TO.C,R14*%
X191042857Y-70502380D02*
X191376190Y-70026190D01*
X191614285Y-70502380D02*
X191614285Y-69502380D01*
X191233333Y-69502380D01*
X191138095Y-69550000D01*
X191090476Y-69597619D01*
X191042857Y-69692857D01*
X191042857Y-69835714D01*
X191090476Y-69930952D01*
X191138095Y-69978571D01*
X191233333Y-70026190D01*
X191614285Y-70026190D01*
X190090476Y-70502380D02*
X190661904Y-70502380D01*
X190376190Y-70502380D02*
X190376190Y-69502380D01*
X190471428Y-69645238D01*
X190566666Y-69740476D01*
X190661904Y-69788095D01*
X189233333Y-69835714D02*
X189233333Y-70502380D01*
X189471428Y-69454761D02*
X189709523Y-70169047D01*
X189090476Y-70169047D01*
%TO.C,R7*%
X194366666Y-47702380D02*
X194700000Y-47226190D01*
X194938095Y-47702380D02*
X194938095Y-46702380D01*
X194557142Y-46702380D01*
X194461904Y-46750000D01*
X194414285Y-46797619D01*
X194366666Y-46892857D01*
X194366666Y-47035714D01*
X194414285Y-47130952D01*
X194461904Y-47178571D01*
X194557142Y-47226190D01*
X194938095Y-47226190D01*
X194033333Y-46702380D02*
X193366666Y-46702380D01*
X193795238Y-47702380D01*
%TO.C,J3*%
X223733333Y-67422380D02*
X223733333Y-68136666D01*
X223780952Y-68279523D01*
X223876190Y-68374761D01*
X224019047Y-68422380D01*
X224114285Y-68422380D01*
X223352380Y-67422380D02*
X222733333Y-67422380D01*
X223066666Y-67803333D01*
X222923809Y-67803333D01*
X222828571Y-67850952D01*
X222780952Y-67898571D01*
X222733333Y-67993809D01*
X222733333Y-68231904D01*
X222780952Y-68327142D01*
X222828571Y-68374761D01*
X222923809Y-68422380D01*
X223209523Y-68422380D01*
X223304761Y-68374761D01*
X223352380Y-68327142D01*
%TO.C,R8*%
X194366666Y-50402380D02*
X194700000Y-49926190D01*
X194938095Y-50402380D02*
X194938095Y-49402380D01*
X194557142Y-49402380D01*
X194461904Y-49450000D01*
X194414285Y-49497619D01*
X194366666Y-49592857D01*
X194366666Y-49735714D01*
X194414285Y-49830952D01*
X194461904Y-49878571D01*
X194557142Y-49926190D01*
X194938095Y-49926190D01*
X193795238Y-49830952D02*
X193890476Y-49783333D01*
X193938095Y-49735714D01*
X193985714Y-49640476D01*
X193985714Y-49592857D01*
X193938095Y-49497619D01*
X193890476Y-49450000D01*
X193795238Y-49402380D01*
X193604761Y-49402380D01*
X193509523Y-49450000D01*
X193461904Y-49497619D01*
X193414285Y-49592857D01*
X193414285Y-49640476D01*
X193461904Y-49735714D01*
X193509523Y-49783333D01*
X193604761Y-49830952D01*
X193795238Y-49830952D01*
X193890476Y-49878571D01*
X193938095Y-49926190D01*
X193985714Y-50021428D01*
X193985714Y-50211904D01*
X193938095Y-50307142D01*
X193890476Y-50354761D01*
X193795238Y-50402380D01*
X193604761Y-50402380D01*
X193509523Y-50354761D01*
X193461904Y-50307142D01*
X193414285Y-50211904D01*
X193414285Y-50021428D01*
X193461904Y-49926190D01*
X193509523Y-49878571D01*
X193604761Y-49830952D01*
%TO.C,R13*%
X194842857Y-56402380D02*
X195176190Y-55926190D01*
X195414285Y-56402380D02*
X195414285Y-55402380D01*
X195033333Y-55402380D01*
X194938095Y-55450000D01*
X194890476Y-55497619D01*
X194842857Y-55592857D01*
X194842857Y-55735714D01*
X194890476Y-55830952D01*
X194938095Y-55878571D01*
X195033333Y-55926190D01*
X195414285Y-55926190D01*
X193890476Y-56402380D02*
X194461904Y-56402380D01*
X194176190Y-56402380D02*
X194176190Y-55402380D01*
X194271428Y-55545238D01*
X194366666Y-55640476D01*
X194461904Y-55688095D01*
X193557142Y-55402380D02*
X192938095Y-55402380D01*
X193271428Y-55783333D01*
X193128571Y-55783333D01*
X193033333Y-55830952D01*
X192985714Y-55878571D01*
X192938095Y-55973809D01*
X192938095Y-56211904D01*
X192985714Y-56307142D01*
X193033333Y-56354761D01*
X193128571Y-56402380D01*
X193414285Y-56402380D01*
X193509523Y-56354761D01*
X193557142Y-56307142D01*
%TO.C,R2*%
X215666666Y-54202380D02*
X216000000Y-53726190D01*
X216238095Y-54202380D02*
X216238095Y-53202380D01*
X215857142Y-53202380D01*
X215761904Y-53250000D01*
X215714285Y-53297619D01*
X215666666Y-53392857D01*
X215666666Y-53535714D01*
X215714285Y-53630952D01*
X215761904Y-53678571D01*
X215857142Y-53726190D01*
X216238095Y-53726190D01*
X215285714Y-53297619D02*
X215238095Y-53250000D01*
X215142857Y-53202380D01*
X214904761Y-53202380D01*
X214809523Y-53250000D01*
X214761904Y-53297619D01*
X214714285Y-53392857D01*
X214714285Y-53488095D01*
X214761904Y-53630952D01*
X215333333Y-54202380D01*
X214714285Y-54202380D01*
%TO.C,R6*%
X220152380Y-42533333D02*
X219676190Y-42200000D01*
X220152380Y-41961904D02*
X219152380Y-41961904D01*
X219152380Y-42342857D01*
X219200000Y-42438095D01*
X219247619Y-42485714D01*
X219342857Y-42533333D01*
X219485714Y-42533333D01*
X219580952Y-42485714D01*
X219628571Y-42438095D01*
X219676190Y-42342857D01*
X219676190Y-41961904D01*
X219152380Y-43390476D02*
X219152380Y-43200000D01*
X219200000Y-43104761D01*
X219247619Y-43057142D01*
X219390476Y-42961904D01*
X219580952Y-42914285D01*
X219961904Y-42914285D01*
X220057142Y-42961904D01*
X220104761Y-43009523D01*
X220152380Y-43104761D01*
X220152380Y-43295238D01*
X220104761Y-43390476D01*
X220057142Y-43438095D01*
X219961904Y-43485714D01*
X219723809Y-43485714D01*
X219628571Y-43438095D01*
X219580952Y-43390476D01*
X219533333Y-43295238D01*
X219533333Y-43104761D01*
X219580952Y-43009523D01*
X219628571Y-42961904D01*
X219723809Y-42914285D01*
%TO.C,C2*%
X208666666Y-53807142D02*
X208714285Y-53854761D01*
X208857142Y-53902380D01*
X208952380Y-53902380D01*
X209095238Y-53854761D01*
X209190476Y-53759523D01*
X209238095Y-53664285D01*
X209285714Y-53473809D01*
X209285714Y-53330952D01*
X209238095Y-53140476D01*
X209190476Y-53045238D01*
X209095238Y-52950000D01*
X208952380Y-52902380D01*
X208857142Y-52902380D01*
X208714285Y-52950000D01*
X208666666Y-52997619D01*
X208285714Y-52997619D02*
X208238095Y-52950000D01*
X208142857Y-52902380D01*
X207904761Y-52902380D01*
X207809523Y-52950000D01*
X207761904Y-52997619D01*
X207714285Y-53092857D01*
X207714285Y-53188095D01*
X207761904Y-53330952D01*
X208333333Y-53902380D01*
X207714285Y-53902380D01*
%TO.C,C3*%
X208766666Y-58707142D02*
X208814285Y-58754761D01*
X208957142Y-58802380D01*
X209052380Y-58802380D01*
X209195238Y-58754761D01*
X209290476Y-58659523D01*
X209338095Y-58564285D01*
X209385714Y-58373809D01*
X209385714Y-58230952D01*
X209338095Y-58040476D01*
X209290476Y-57945238D01*
X209195238Y-57850000D01*
X209052380Y-57802380D01*
X208957142Y-57802380D01*
X208814285Y-57850000D01*
X208766666Y-57897619D01*
X208433333Y-57802380D02*
X207814285Y-57802380D01*
X208147619Y-58183333D01*
X208004761Y-58183333D01*
X207909523Y-58230952D01*
X207861904Y-58278571D01*
X207814285Y-58373809D01*
X207814285Y-58611904D01*
X207861904Y-58707142D01*
X207909523Y-58754761D01*
X208004761Y-58802380D01*
X208290476Y-58802380D01*
X208385714Y-58754761D01*
X208433333Y-58707142D01*
D11*
%TO.C,R12*%
X186065000Y-50272936D02*
X186065000Y-50727064D01*
X187535000Y-50272936D02*
X187535000Y-50727064D01*
%TO.C,J9*%
X186070000Y-46530000D02*
X187400000Y-46530000D01*
X186070000Y-43930000D02*
X188730000Y-43930000D01*
X186070000Y-43870000D02*
X188730000Y-43870000D01*
X188730000Y-43930000D02*
X188730000Y-43870000D01*
X186070000Y-43930000D02*
X186070000Y-43870000D01*
X186070000Y-45200000D02*
X186070000Y-46530000D01*
%TO.C,J6*%
X207970000Y-40830000D02*
X210630000Y-40830000D01*
X207970000Y-43430000D02*
X209300000Y-43430000D01*
X210630000Y-40830000D02*
X210630000Y-40770000D01*
X207970000Y-40830000D02*
X207970000Y-40770000D01*
X207970000Y-40770000D02*
X210630000Y-40770000D01*
X207970000Y-42100000D02*
X207970000Y-43430000D01*
%TO.C,R15*%
X220427064Y-72535000D02*
X219972936Y-72535000D01*
X220427064Y-71065000D02*
X219972936Y-71065000D01*
%TO.C,R10*%
X218790000Y-41972936D02*
X218790000Y-43427064D01*
X220610000Y-41972936D02*
X220610000Y-43427064D01*
%TO.C,R14*%
X190627064Y-70965000D02*
X190172936Y-70965000D01*
X190627064Y-72435000D02*
X190172936Y-72435000D01*
%TO.C,R7*%
X194427064Y-48165000D02*
X193972936Y-48165000D01*
X194427064Y-49635000D02*
X193972936Y-49635000D01*
%TO.C,J3*%
X224730000Y-64370000D02*
X224730000Y-49070000D01*
X222070000Y-64370000D02*
X224730000Y-64370000D01*
X222070000Y-49070000D02*
X224730000Y-49070000D01*
X222070000Y-64370000D02*
X222070000Y-49070000D01*
X222070000Y-65640000D02*
X222070000Y-66970000D01*
X222070000Y-66970000D02*
X223400000Y-66970000D01*
%TO.C,J7*%
X207970000Y-34200000D02*
X207970000Y-35530000D01*
X207970000Y-32930000D02*
X207970000Y-32870000D01*
X207970000Y-32870000D02*
X210630000Y-32870000D01*
X207970000Y-32930000D02*
X210630000Y-32930000D01*
X210630000Y-32930000D02*
X210630000Y-32870000D01*
X207970000Y-35530000D02*
X209300000Y-35530000D01*
%TO.C,J5*%
X207970000Y-43930000D02*
X207970000Y-43870000D01*
X207970000Y-45200000D02*
X207970000Y-46530000D01*
X210630000Y-43930000D02*
X210630000Y-43870000D01*
X207970000Y-43870000D02*
X210630000Y-43870000D01*
X207970000Y-43930000D02*
X210630000Y-43930000D01*
X207970000Y-46530000D02*
X209300000Y-46530000D01*
%TO.C,R8*%
X194427064Y-52335000D02*
X193972936Y-52335000D01*
X194427064Y-50865000D02*
X193972936Y-50865000D01*
%TO.C,J8*%
X207970000Y-31000000D02*
X207970000Y-32330000D01*
X210630000Y-29730000D02*
X210630000Y-29670000D01*
X207970000Y-29670000D02*
X210630000Y-29670000D01*
X207970000Y-32330000D02*
X209300000Y-32330000D01*
X207970000Y-29730000D02*
X210630000Y-29730000D01*
X207970000Y-29730000D02*
X207970000Y-29670000D01*
%TO.C,R13*%
X193972936Y-55035000D02*
X194427064Y-55035000D01*
X193972936Y-53565000D02*
X194427064Y-53565000D01*
%TO.C,R2*%
X215272936Y-52835000D02*
X215727064Y-52835000D01*
X215272936Y-51365000D02*
X215727064Y-51365000D01*
%TO.C,R6*%
X216190000Y-43427064D02*
X216190000Y-41972936D01*
X218010000Y-43427064D02*
X218010000Y-41972936D01*
%TO.C,C2*%
X207788748Y-50690000D02*
X209211252Y-50690000D01*
X207788748Y-52510000D02*
X209211252Y-52510000D01*
%TO.C,C3*%
X207888748Y-55590000D02*
X209311252Y-55590000D01*
X207888748Y-57410000D02*
X209311252Y-57410000D01*
%TD*%
%LPC*%
D12*
%TO.C,REF\u002A\u002A*%
X205600000Y-24700000D03*
%TD*%
%TO.C,REF\u002A\u002A*%
X205600000Y-80400000D03*
%TD*%
D13*
%TO.C,R12*%
X186800000Y-49500000D03*
X186800000Y-51500000D03*
%TD*%
D14*
%TO.C,J9*%
X187400000Y-45200000D03*
%TD*%
%TO.C,J6*%
X209300000Y-42100000D03*
%TD*%
D15*
%TO.C,R15*%
X221200000Y-71800000D03*
X219200000Y-71800000D03*
%TD*%
D16*
%TO.C,Y1*%
X204800000Y-56550000D03*
X204800000Y-51650000D03*
%TD*%
D17*
%TO.C,SW2*%
X217150000Y-69450000D03*
X223650000Y-69450000D03*
X217150000Y-73950000D03*
X223650000Y-73950000D03*
%TD*%
D18*
%TO.C,R10*%
X219700000Y-41150000D03*
X219700000Y-44250000D03*
%TD*%
D19*
%TO.C,J4*%
X206620000Y-36300000D03*
X204080000Y-36300000D03*
X201540000Y-36300000D03*
D14*
X199000000Y-36300000D03*
%TD*%
D15*
%TO.C,R14*%
X191400000Y-71700000D03*
X189400000Y-71700000D03*
%TD*%
%TO.C,R7*%
X195200000Y-48900000D03*
X193200000Y-48900000D03*
%TD*%
D14*
%TO.C,J3*%
X223400000Y-65640000D03*
D19*
X223400000Y-63100000D03*
X223400000Y-60560000D03*
X223400000Y-58020000D03*
X223400000Y-55480000D03*
X223400000Y-52940000D03*
X223400000Y-50400000D03*
%TD*%
D14*
%TO.C,J7*%
X209300000Y-34200000D03*
%TD*%
%TO.C,J5*%
X209300000Y-45200000D03*
%TD*%
D17*
%TO.C,SW1*%
X187150000Y-69450000D03*
X193650000Y-69450000D03*
X187150000Y-73950000D03*
X193650000Y-73950000D03*
%TD*%
D15*
%TO.C,R8*%
X195200000Y-51600000D03*
X193200000Y-51600000D03*
%TD*%
D14*
%TO.C,J1*%
X223600000Y-30950000D03*
D19*
X223600000Y-33490000D03*
X223600000Y-36030000D03*
X223600000Y-38570000D03*
X223600000Y-41110000D03*
X223600000Y-43650000D03*
%TD*%
D14*
%TO.C,J8*%
X209300000Y-31000000D03*
%TD*%
D20*
%TO.C,R13*%
X193200000Y-54300000D03*
X195200000Y-54300000D03*
%TD*%
D19*
%TO.C,J2*%
X206620000Y-41300000D03*
X204080000Y-41300000D03*
X201540000Y-41300000D03*
D14*
X199000000Y-41300000D03*
%TD*%
D20*
%TO.C,R2*%
X214500000Y-52100000D03*
X216500000Y-52100000D03*
%TD*%
D21*
%TO.C,R6*%
X217100000Y-44250000D03*
X217100000Y-41150000D03*
%TD*%
D22*
%TO.C,C2*%
X206937500Y-51600000D03*
X210062500Y-51600000D03*
%TD*%
%TO.C,C3*%
X207037500Y-56500000D03*
X210162500Y-56500000D03*
%TD*%
M02*
