%TF.GenerationSoftware,KiCad,Pcbnew,(6.0.6)*%
%TF.CreationDate,2022-10-28T21:49:34+08:00*%
%TF.ProjectId,KB_SmartWatch,4b425f53-6d61-4727-9457-617463682e6b,rev?*%
%TF.SameCoordinates,Original*%
%TF.FileFunction,Paste,Top*%
%TF.FilePolarity,Positive*%
%FSLAX46Y46*%
G04 Gerber Fmt 4.6, Leading zero omitted, Abs format (unit mm)*
G04 Created by KiCad (PCBNEW (6.0.6)) date 2022-10-28 21:49:34*
%MOMM*%
%LPD*%
G01*
G04 APERTURE LIST*
G04 Aperture macros list*
%AMRoundRect*
0 Rectangle with rounded corners*
0 $1 Rounding radius*
0 $2 $3 $4 $5 $6 $7 $8 $9 X,Y pos of 4 corners*
0 Add a 4 corners polygon primitive as box body*
4,1,4,$2,$3,$4,$5,$6,$7,$8,$9,$2,$3,0*
0 Add four circle primitives for the rounded corners*
1,1,$1+$1,$2,$3*
1,1,$1+$1,$4,$5*
1,1,$1+$1,$6,$7*
1,1,$1+$1,$8,$9*
0 Add four rect primitives between the rounded corners*
20,1,$1+$1,$2,$3,$4,$5,0*
20,1,$1+$1,$4,$5,$6,$7,0*
20,1,$1+$1,$6,$7,$8,$9,0*
20,1,$1+$1,$8,$9,$2,$3,0*%
G04 Aperture macros list end*
%ADD10RoundRect,0.150000X-0.875000X-0.150000X0.875000X-0.150000X0.875000X0.150000X-0.875000X0.150000X0*%
%ADD11R,1.600000X0.550000*%
%ADD12R,0.550000X1.600000*%
%ADD13RoundRect,0.250000X-0.350000X-0.450000X0.350000X-0.450000X0.350000X0.450000X-0.350000X0.450000X0*%
%ADD14RoundRect,0.250000X0.450000X-0.350000X0.450000X0.350000X-0.450000X0.350000X-0.450000X-0.350000X0*%
%ADD15RoundRect,0.250000X0.650000X-0.412500X0.650000X0.412500X-0.650000X0.412500X-0.650000X-0.412500X0*%
%ADD16RoundRect,0.250000X-0.412500X-0.650000X0.412500X-0.650000X0.412500X0.650000X-0.412500X0.650000X0*%
%ADD17RoundRect,0.250000X-0.450000X0.350000X-0.450000X-0.350000X0.450000X-0.350000X0.450000X0.350000X0*%
G04 APERTURE END LIST*
D10*
%TO.C,U2*%
X188650000Y-49655000D03*
X188650000Y-50925000D03*
X188650000Y-52195000D03*
X188650000Y-53465000D03*
X188650000Y-54735000D03*
X188650000Y-56005000D03*
X188650000Y-57275000D03*
X188650000Y-58545000D03*
X197950000Y-58545000D03*
X197950000Y-57275000D03*
X197950000Y-56005000D03*
X197950000Y-54735000D03*
X197950000Y-53465000D03*
X197950000Y-52195000D03*
X197950000Y-50925000D03*
X197950000Y-49655000D03*
%TD*%
D11*
%TO.C,U1*%
X210550000Y-48900000D03*
X210550000Y-49700000D03*
X210550000Y-50500000D03*
X210550000Y-51300000D03*
X210550000Y-52100000D03*
X210550000Y-52900000D03*
X210550000Y-53700000D03*
X210550000Y-54500000D03*
D12*
X212000000Y-55950000D03*
X212800000Y-55950000D03*
X213600000Y-55950000D03*
X214400000Y-55950000D03*
X215200000Y-55950000D03*
X216000000Y-55950000D03*
X216800000Y-55950000D03*
X217600000Y-55950000D03*
D11*
X219050000Y-54500000D03*
X219050000Y-53700000D03*
X219050000Y-52900000D03*
X219050000Y-52100000D03*
X219050000Y-51300000D03*
X219050000Y-50500000D03*
X219050000Y-49700000D03*
X219050000Y-48900000D03*
D12*
X217600000Y-47450000D03*
X216800000Y-47450000D03*
X216000000Y-47450000D03*
X215200000Y-47450000D03*
X214400000Y-47450000D03*
X213600000Y-47450000D03*
X212800000Y-47450000D03*
X212000000Y-47450000D03*
%TD*%
D13*
%TO.C,R1*%
X218900000Y-60400000D03*
X220900000Y-60400000D03*
%TD*%
D14*
%TO.C,R11*%
X201500000Y-46300000D03*
X201500000Y-44300000D03*
%TD*%
%TO.C,R9*%
X204100000Y-46300000D03*
X204100000Y-44300000D03*
%TD*%
D15*
%TO.C,C4*%
X209300000Y-39462500D03*
X209300000Y-36337500D03*
%TD*%
D16*
%TO.C,C1*%
X216437500Y-30900000D03*
X219562500Y-30900000D03*
%TD*%
D17*
%TO.C,R3*%
X196500000Y-44300000D03*
X196500000Y-46300000D03*
%TD*%
D14*
%TO.C,R4*%
X193900000Y-46200000D03*
X193900000Y-44200000D03*
%TD*%
D13*
%TO.C,R5*%
X197800000Y-61000000D03*
X199800000Y-61000000D03*
%TD*%
M02*
