%TF.GenerationSoftware,KiCad,Pcbnew,(6.0.6)*%
%TF.CreationDate,2022-10-28T21:49:34+08:00*%
%TF.ProjectId,KB_SmartWatch,4b425f53-6d61-4727-9457-617463682e6b,rev?*%
%TF.SameCoordinates,Original*%
%TF.FileFunction,Soldermask,Bot*%
%TF.FilePolarity,Negative*%
%FSLAX46Y46*%
G04 Gerber Fmt 4.6, Leading zero omitted, Abs format (unit mm)*
G04 Created by KiCad (PCBNEW (6.0.6)) date 2022-10-28 21:49:34*
%MOMM*%
%LPD*%
G01*
G04 APERTURE LIST*
G04 Aperture macros list*
%AMRoundRect*
0 Rectangle with rounded corners*
0 $1 Rounding radius*
0 $2 $3 $4 $5 $6 $7 $8 $9 X,Y pos of 4 corners*
0 Add a 4 corners polygon primitive as box body*
4,1,4,$2,$3,$4,$5,$6,$7,$8,$9,$2,$3,0*
0 Add four circle primitives for the rounded corners*
1,1,$1+$1,$2,$3*
1,1,$1+$1,$4,$5*
1,1,$1+$1,$6,$7*
1,1,$1+$1,$8,$9*
0 Add four rect primitives between the rounded corners*
20,1,$1+$1,$2,$3,$4,$5,0*
20,1,$1+$1,$4,$5,$6,$7,0*
20,1,$1+$1,$6,$7,$8,$9,0*
20,1,$1+$1,$8,$9,$2,$3,0*%
G04 Aperture macros list end*
%ADD10O,26.000000X4.600000*%
%ADD11RoundRect,0.250000X-0.450000X0.350000X-0.450000X-0.350000X0.450000X-0.350000X0.450000X0.350000X0*%
%ADD12R,1.700000X1.700000*%
%ADD13RoundRect,0.250000X0.350000X0.450000X-0.350000X0.450000X-0.350000X-0.450000X0.350000X-0.450000X0*%
%ADD14C,1.500000*%
%ADD15C,2.000000*%
%ADD16RoundRect,0.250000X-0.625000X0.400000X-0.625000X-0.400000X0.625000X-0.400000X0.625000X0.400000X0*%
%ADD17O,1.700000X1.700000*%
%ADD18RoundRect,0.250000X-0.350000X-0.450000X0.350000X-0.450000X0.350000X0.450000X-0.350000X0.450000X0*%
%ADD19RoundRect,0.250000X0.625000X-0.400000X0.625000X0.400000X-0.625000X0.400000X-0.625000X-0.400000X0*%
%ADD20RoundRect,0.250000X-0.412500X-0.650000X0.412500X-0.650000X0.412500X0.650000X-0.412500X0.650000X0*%
G04 APERTURE END LIST*
D10*
%TO.C,REF\u002A\u002A*%
X205600000Y-24700000D03*
%TD*%
%TO.C,REF\u002A\u002A*%
X205600000Y-80400000D03*
%TD*%
D11*
%TO.C,R12*%
X186800000Y-49500000D03*
X186800000Y-51500000D03*
%TD*%
D12*
%TO.C,J9*%
X187400000Y-45200000D03*
%TD*%
%TO.C,J6*%
X209300000Y-42100000D03*
%TD*%
D13*
%TO.C,R15*%
X221200000Y-71800000D03*
X219200000Y-71800000D03*
%TD*%
D14*
%TO.C,Y1*%
X204800000Y-56550000D03*
X204800000Y-51650000D03*
%TD*%
D15*
%TO.C,SW2*%
X217150000Y-69450000D03*
X223650000Y-69450000D03*
X217150000Y-73950000D03*
X223650000Y-73950000D03*
%TD*%
D16*
%TO.C,R10*%
X219700000Y-41150000D03*
X219700000Y-44250000D03*
%TD*%
D17*
%TO.C,J4*%
X206620000Y-36300000D03*
X204080000Y-36300000D03*
X201540000Y-36300000D03*
D12*
X199000000Y-36300000D03*
%TD*%
D13*
%TO.C,R14*%
X191400000Y-71700000D03*
X189400000Y-71700000D03*
%TD*%
%TO.C,R7*%
X195200000Y-48900000D03*
X193200000Y-48900000D03*
%TD*%
D12*
%TO.C,J3*%
X223400000Y-65640000D03*
D17*
X223400000Y-63100000D03*
X223400000Y-60560000D03*
X223400000Y-58020000D03*
X223400000Y-55480000D03*
X223400000Y-52940000D03*
X223400000Y-50400000D03*
%TD*%
D12*
%TO.C,J7*%
X209300000Y-34200000D03*
%TD*%
%TO.C,J5*%
X209300000Y-45200000D03*
%TD*%
D15*
%TO.C,SW1*%
X187150000Y-69450000D03*
X193650000Y-69450000D03*
X187150000Y-73950000D03*
X193650000Y-73950000D03*
%TD*%
D13*
%TO.C,R8*%
X195200000Y-51600000D03*
X193200000Y-51600000D03*
%TD*%
D12*
%TO.C,J1*%
X223600000Y-30950000D03*
D17*
X223600000Y-33490000D03*
X223600000Y-36030000D03*
X223600000Y-38570000D03*
X223600000Y-41110000D03*
X223600000Y-43650000D03*
%TD*%
D12*
%TO.C,J8*%
X209300000Y-31000000D03*
%TD*%
D18*
%TO.C,R13*%
X193200000Y-54300000D03*
X195200000Y-54300000D03*
%TD*%
D17*
%TO.C,J2*%
X206620000Y-41300000D03*
X204080000Y-41300000D03*
X201540000Y-41300000D03*
D12*
X199000000Y-41300000D03*
%TD*%
D18*
%TO.C,R2*%
X214500000Y-52100000D03*
X216500000Y-52100000D03*
%TD*%
D19*
%TO.C,R6*%
X217100000Y-44250000D03*
X217100000Y-41150000D03*
%TD*%
D20*
%TO.C,C2*%
X206937500Y-51600000D03*
X210062500Y-51600000D03*
%TD*%
%TO.C,C3*%
X207037500Y-56500000D03*
X210162500Y-56500000D03*
%TD*%
M02*
