M48
; DRILL file {KiCad (6.0.6)} date Fri Oct 28 21:49:39 2022
; FORMAT={-:-/ absolute / metric / decimal}
; #@! TF.CreationDate,2022-10-28T21:49:39+08:00
; #@! TF.GenerationSoftware,Kicad,Pcbnew,(6.0.6)
; #@! TF.FileFunction,Plated,1,2,PTH
FMAT,2
METRIC
; #@! TA.AperFunction,Plated,PTH,ViaDrill
T1C0.400
; #@! TA.AperFunction,Plated,PTH,ComponentDrill
T2C0.800
; #@! TA.AperFunction,Plated,PTH,ComponentDrill
T3C1.000
; #@! TA.AperFunction,Plated,PTH,ComponentDrill
T4C1.100
; #@! TA.AperFunction,Plated,PTH,ComponentDrill
T5C2.600
%
G90
G05
T1
X186.7Y-54.7
X190.9Y-53.5
X192.2Y-58.6
X192.4Y-50.3
X195.3Y-57.2
X196.1Y-58.6
X196.3Y-49.6
X196.3Y-51.4
X196.4Y-53.5
X197.9Y-46.4
X203.8Y-50.3
X204.2Y-48.9
X205.6Y-46.3
X205.6Y-49.7
X205.8Y-44.3
X206.6Y-46.3
X208.7Y-50.5
X208.7Y-52.0
X212.0Y-51.5
X212.311Y-37.789
X212.627Y-49.192
X212.8Y-46.352
X213.6Y-57.9
X213.7Y-53.804
X213.748Y-35.7
X213.9Y-49.9
X214.4Y-30.9
X214.4Y-48.9
X215.6Y-50.3
X217.1Y-49.7
X217.5Y-52.1
X218.2Y-32.6
X218.2Y-34.3
X220.3Y-58.5
X220.4Y-73.1
T2
X204.8Y-51.65
X204.8Y-56.55
T3
X187.4Y-45.2
X199.0Y-36.3
X199.0Y-41.3
X201.54Y-36.3
X201.54Y-41.3
X204.08Y-36.3
X204.08Y-41.3
X206.62Y-36.3
X206.62Y-41.3
X209.3Y-31.0
X209.3Y-34.2
X209.3Y-42.1
X209.3Y-45.2
X223.4Y-50.4
X223.4Y-52.94
X223.4Y-55.48
X223.4Y-58.02
X223.4Y-60.56
X223.4Y-63.1
X223.4Y-65.64
X223.6Y-30.95
X223.6Y-33.49
X223.6Y-36.03
X223.6Y-38.57
X223.6Y-41.11
X223.6Y-43.65
T4
X187.15Y-69.45
X187.15Y-73.95
X193.65Y-69.45
X193.65Y-73.95
X217.15Y-69.45
X217.15Y-73.95
X223.65Y-69.45
X223.65Y-73.95
T5
X194.9Y-24.7G85X216.3Y-24.7
G05
X194.9Y-80.4G85X216.3Y-80.4
G05
T0
M30
