%TF.GenerationSoftware,KiCad,Pcbnew,(6.0.6)*%
%TF.CreationDate,2022-10-28T21:49:34+08:00*%
%TF.ProjectId,KB_SmartWatch,4b425f53-6d61-4727-9457-617463682e6b,rev?*%
%TF.SameCoordinates,Original*%
%TF.FileFunction,Legend,Top*%
%TF.FilePolarity,Positive*%
%FSLAX46Y46*%
G04 Gerber Fmt 4.6, Leading zero omitted, Abs format (unit mm)*
G04 Created by KiCad (PCBNEW (6.0.6)) date 2022-10-28 21:49:34*
%MOMM*%
%LPD*%
G01*
G04 APERTURE LIST*
G04 Aperture macros list*
%AMRoundRect*
0 Rectangle with rounded corners*
0 $1 Rounding radius*
0 $2 $3 $4 $5 $6 $7 $8 $9 X,Y pos of 4 corners*
0 Add a 4 corners polygon primitive as box body*
4,1,4,$2,$3,$4,$5,$6,$7,$8,$9,$2,$3,0*
0 Add four circle primitives for the rounded corners*
1,1,$1+$1,$2,$3*
1,1,$1+$1,$4,$5*
1,1,$1+$1,$6,$7*
1,1,$1+$1,$8,$9*
0 Add four rect primitives between the rounded corners*
20,1,$1+$1,$2,$3,$4,$5,0*
20,1,$1+$1,$4,$5,$6,$7,0*
20,1,$1+$1,$6,$7,$8,$9,0*
20,1,$1+$1,$8,$9,$2,$3,0*%
G04 Aperture macros list end*
%ADD10C,0.150000*%
%ADD11C,0.120000*%
%ADD12O,26.000000X4.600000*%
%ADD13RoundRect,0.150000X-0.875000X-0.150000X0.875000X-0.150000X0.875000X0.150000X-0.875000X0.150000X0*%
%ADD14R,1.600000X0.550000*%
%ADD15R,0.550000X1.600000*%
%ADD16R,1.700000X1.700000*%
%ADD17RoundRect,0.250000X-0.350000X-0.450000X0.350000X-0.450000X0.350000X0.450000X-0.350000X0.450000X0*%
%ADD18RoundRect,0.250000X0.450000X-0.350000X0.450000X0.350000X-0.450000X0.350000X-0.450000X-0.350000X0*%
%ADD19C,1.500000*%
%ADD20C,2.000000*%
%ADD21O,1.700000X1.700000*%
%ADD22RoundRect,0.250000X0.650000X-0.412500X0.650000X0.412500X-0.650000X0.412500X-0.650000X-0.412500X0*%
%ADD23RoundRect,0.250000X-0.412500X-0.650000X0.412500X-0.650000X0.412500X0.650000X-0.412500X0.650000X0*%
%ADD24RoundRect,0.250000X-0.450000X0.350000X-0.450000X-0.350000X0.450000X-0.350000X0.450000X0.350000X0*%
G04 APERTURE END LIST*
D10*
%TO.C,U2*%
X192538095Y-47452380D02*
X192538095Y-48261904D01*
X192585714Y-48357142D01*
X192633333Y-48404761D01*
X192728571Y-48452380D01*
X192919047Y-48452380D01*
X193014285Y-48404761D01*
X193061904Y-48357142D01*
X193109523Y-48261904D01*
X193109523Y-47452380D01*
X193538095Y-47547619D02*
X193585714Y-47500000D01*
X193680952Y-47452380D01*
X193919047Y-47452380D01*
X194014285Y-47500000D01*
X194061904Y-47547619D01*
X194109523Y-47642857D01*
X194109523Y-47738095D01*
X194061904Y-47880952D01*
X193490476Y-48452380D01*
X194109523Y-48452380D01*
%TO.C,U1*%
X214038095Y-45102380D02*
X214038095Y-45911904D01*
X214085714Y-46007142D01*
X214133333Y-46054761D01*
X214228571Y-46102380D01*
X214419047Y-46102380D01*
X214514285Y-46054761D01*
X214561904Y-46007142D01*
X214609523Y-45911904D01*
X214609523Y-45102380D01*
X215609523Y-46102380D02*
X215038095Y-46102380D01*
X215323809Y-46102380D02*
X215323809Y-45102380D01*
X215228571Y-45245238D01*
X215133333Y-45340476D01*
X215038095Y-45388095D01*
%TO.C,R1*%
X219733333Y-59202380D02*
X219400000Y-58726190D01*
X219161904Y-59202380D02*
X219161904Y-58202380D01*
X219542857Y-58202380D01*
X219638095Y-58250000D01*
X219685714Y-58297619D01*
X219733333Y-58392857D01*
X219733333Y-58535714D01*
X219685714Y-58630952D01*
X219638095Y-58678571D01*
X219542857Y-58726190D01*
X219161904Y-58726190D01*
X220685714Y-59202380D02*
X220114285Y-59202380D01*
X220400000Y-59202380D02*
X220400000Y-58202380D01*
X220304761Y-58345238D01*
X220209523Y-58440476D01*
X220114285Y-58488095D01*
%TO.C,R11*%
X200302380Y-45942857D02*
X199826190Y-46276190D01*
X200302380Y-46514285D02*
X199302380Y-46514285D01*
X199302380Y-46133333D01*
X199350000Y-46038095D01*
X199397619Y-45990476D01*
X199492857Y-45942857D01*
X199635714Y-45942857D01*
X199730952Y-45990476D01*
X199778571Y-46038095D01*
X199826190Y-46133333D01*
X199826190Y-46514285D01*
X200302380Y-44990476D02*
X200302380Y-45561904D01*
X200302380Y-45276190D02*
X199302380Y-45276190D01*
X199445238Y-45371428D01*
X199540476Y-45466666D01*
X199588095Y-45561904D01*
X200302380Y-44038095D02*
X200302380Y-44609523D01*
X200302380Y-44323809D02*
X199302380Y-44323809D01*
X199445238Y-44419047D01*
X199540476Y-44514285D01*
X199588095Y-44609523D01*
%TO.C,R9*%
X206052380Y-45266666D02*
X205576190Y-45600000D01*
X206052380Y-45838095D02*
X205052380Y-45838095D01*
X205052380Y-45457142D01*
X205100000Y-45361904D01*
X205147619Y-45314285D01*
X205242857Y-45266666D01*
X205385714Y-45266666D01*
X205480952Y-45314285D01*
X205528571Y-45361904D01*
X205576190Y-45457142D01*
X205576190Y-45838095D01*
X206052380Y-44790476D02*
X206052380Y-44600000D01*
X206004761Y-44504761D01*
X205957142Y-44457142D01*
X205814285Y-44361904D01*
X205623809Y-44314285D01*
X205242857Y-44314285D01*
X205147619Y-44361904D01*
X205100000Y-44409523D01*
X205052380Y-44504761D01*
X205052380Y-44695238D01*
X205100000Y-44790476D01*
X205147619Y-44838095D01*
X205242857Y-44885714D01*
X205480952Y-44885714D01*
X205576190Y-44838095D01*
X205623809Y-44790476D01*
X205671428Y-44695238D01*
X205671428Y-44504761D01*
X205623809Y-44409523D01*
X205576190Y-44361904D01*
X205480952Y-44314285D01*
%TO.C,Y1*%
X201251190Y-54576190D02*
X201727380Y-54576190D01*
X200727380Y-54909523D02*
X201251190Y-54576190D01*
X200727380Y-54242857D01*
X201727380Y-53385714D02*
X201727380Y-53957142D01*
X201727380Y-53671428D02*
X200727380Y-53671428D01*
X200870238Y-53766666D01*
X200965476Y-53861904D01*
X201013095Y-53957142D01*
%TO.C,SW2*%
X219066666Y-67854761D02*
X219209523Y-67902380D01*
X219447619Y-67902380D01*
X219542857Y-67854761D01*
X219590476Y-67807142D01*
X219638095Y-67711904D01*
X219638095Y-67616666D01*
X219590476Y-67521428D01*
X219542857Y-67473809D01*
X219447619Y-67426190D01*
X219257142Y-67378571D01*
X219161904Y-67330952D01*
X219114285Y-67283333D01*
X219066666Y-67188095D01*
X219066666Y-67092857D01*
X219114285Y-66997619D01*
X219161904Y-66950000D01*
X219257142Y-66902380D01*
X219495238Y-66902380D01*
X219638095Y-66950000D01*
X219971428Y-66902380D02*
X220209523Y-67902380D01*
X220400000Y-67188095D01*
X220590476Y-67902380D01*
X220828571Y-66902380D01*
X221161904Y-66997619D02*
X221209523Y-66950000D01*
X221304761Y-66902380D01*
X221542857Y-66902380D01*
X221638095Y-66950000D01*
X221685714Y-66997619D01*
X221733333Y-67092857D01*
X221733333Y-67188095D01*
X221685714Y-67330952D01*
X221114285Y-67902380D01*
X221733333Y-67902380D01*
%TO.C,C4*%
X211657142Y-38166666D02*
X211704761Y-38214285D01*
X211752380Y-38357142D01*
X211752380Y-38452380D01*
X211704761Y-38595238D01*
X211609523Y-38690476D01*
X211514285Y-38738095D01*
X211323809Y-38785714D01*
X211180952Y-38785714D01*
X210990476Y-38738095D01*
X210895238Y-38690476D01*
X210800000Y-38595238D01*
X210752380Y-38452380D01*
X210752380Y-38357142D01*
X210800000Y-38214285D01*
X210847619Y-38166666D01*
X211085714Y-37309523D02*
X211752380Y-37309523D01*
X210704761Y-37547619D02*
X211419047Y-37785714D01*
X211419047Y-37166666D01*
%TO.C,C1*%
X217833333Y-29407142D02*
X217785714Y-29454761D01*
X217642857Y-29502380D01*
X217547619Y-29502380D01*
X217404761Y-29454761D01*
X217309523Y-29359523D01*
X217261904Y-29264285D01*
X217214285Y-29073809D01*
X217214285Y-28930952D01*
X217261904Y-28740476D01*
X217309523Y-28645238D01*
X217404761Y-28550000D01*
X217547619Y-28502380D01*
X217642857Y-28502380D01*
X217785714Y-28550000D01*
X217833333Y-28597619D01*
X218785714Y-29502380D02*
X218214285Y-29502380D01*
X218500000Y-29502380D02*
X218500000Y-28502380D01*
X218404761Y-28645238D01*
X218309523Y-28740476D01*
X218214285Y-28788095D01*
%TO.C,R3*%
X198602380Y-45466666D02*
X198126190Y-45800000D01*
X198602380Y-46038095D02*
X197602380Y-46038095D01*
X197602380Y-45657142D01*
X197650000Y-45561904D01*
X197697619Y-45514285D01*
X197792857Y-45466666D01*
X197935714Y-45466666D01*
X198030952Y-45514285D01*
X198078571Y-45561904D01*
X198126190Y-45657142D01*
X198126190Y-46038095D01*
X197602380Y-45133333D02*
X197602380Y-44514285D01*
X197983333Y-44847619D01*
X197983333Y-44704761D01*
X198030952Y-44609523D01*
X198078571Y-44561904D01*
X198173809Y-44514285D01*
X198411904Y-44514285D01*
X198507142Y-44561904D01*
X198554761Y-44609523D01*
X198602380Y-44704761D01*
X198602380Y-44990476D01*
X198554761Y-45085714D01*
X198507142Y-45133333D01*
%TO.C,R4*%
X192702380Y-45366666D02*
X192226190Y-45700000D01*
X192702380Y-45938095D02*
X191702380Y-45938095D01*
X191702380Y-45557142D01*
X191750000Y-45461904D01*
X191797619Y-45414285D01*
X191892857Y-45366666D01*
X192035714Y-45366666D01*
X192130952Y-45414285D01*
X192178571Y-45461904D01*
X192226190Y-45557142D01*
X192226190Y-45938095D01*
X192035714Y-44509523D02*
X192702380Y-44509523D01*
X191654761Y-44747619D02*
X192369047Y-44985714D01*
X192369047Y-44366666D01*
%TO.C,SW1*%
X189066666Y-67854761D02*
X189209523Y-67902380D01*
X189447619Y-67902380D01*
X189542857Y-67854761D01*
X189590476Y-67807142D01*
X189638095Y-67711904D01*
X189638095Y-67616666D01*
X189590476Y-67521428D01*
X189542857Y-67473809D01*
X189447619Y-67426190D01*
X189257142Y-67378571D01*
X189161904Y-67330952D01*
X189114285Y-67283333D01*
X189066666Y-67188095D01*
X189066666Y-67092857D01*
X189114285Y-66997619D01*
X189161904Y-66950000D01*
X189257142Y-66902380D01*
X189495238Y-66902380D01*
X189638095Y-66950000D01*
X189971428Y-66902380D02*
X190209523Y-67902380D01*
X190400000Y-67188095D01*
X190590476Y-67902380D01*
X190828571Y-66902380D01*
X191733333Y-67902380D02*
X191161904Y-67902380D01*
X191447619Y-67902380D02*
X191447619Y-66902380D01*
X191352380Y-67045238D01*
X191257142Y-67140476D01*
X191161904Y-67188095D01*
%TO.C,R5*%
X198633333Y-59802380D02*
X198300000Y-59326190D01*
X198061904Y-59802380D02*
X198061904Y-58802380D01*
X198442857Y-58802380D01*
X198538095Y-58850000D01*
X198585714Y-58897619D01*
X198633333Y-58992857D01*
X198633333Y-59135714D01*
X198585714Y-59230952D01*
X198538095Y-59278571D01*
X198442857Y-59326190D01*
X198061904Y-59326190D01*
X199538095Y-58802380D02*
X199061904Y-58802380D01*
X199014285Y-59278571D01*
X199061904Y-59230952D01*
X199157142Y-59183333D01*
X199395238Y-59183333D01*
X199490476Y-59230952D01*
X199538095Y-59278571D01*
X199585714Y-59373809D01*
X199585714Y-59611904D01*
X199538095Y-59707142D01*
X199490476Y-59754761D01*
X199395238Y-59802380D01*
X199157142Y-59802380D01*
X199061904Y-59754761D01*
X199014285Y-59707142D01*
%TO.C,J1*%
X223266666Y-28072380D02*
X223266666Y-28786666D01*
X223219047Y-28929523D01*
X223123809Y-29024761D01*
X222980952Y-29072380D01*
X222885714Y-29072380D01*
X224266666Y-29072380D02*
X223695238Y-29072380D01*
X223980952Y-29072380D02*
X223980952Y-28072380D01*
X223885714Y-28215238D01*
X223790476Y-28310476D01*
X223695238Y-28358095D01*
D11*
%TO.C,REF\u002A\u002A*%
X207050000Y-26150000D02*
X204150000Y-26150000D01*
X207050000Y-23250000D02*
X207050000Y-26150000D01*
X204150000Y-26150000D02*
X204150000Y-23250000D01*
X204150000Y-23250000D02*
X207050000Y-23250000D01*
X204150000Y-78950000D02*
X207050000Y-78950000D01*
X207050000Y-81850000D02*
X204150000Y-81850000D01*
X204150000Y-81850000D02*
X204150000Y-78950000D01*
X207050000Y-78950000D02*
X207050000Y-81850000D01*
%TO.C,U2*%
X189440000Y-48840000D02*
X189440000Y-49095000D01*
X197160000Y-59360000D02*
X197160000Y-59105000D01*
X197160000Y-48840000D02*
X197160000Y-49095000D01*
X193300000Y-48840000D02*
X197160000Y-48840000D01*
X189440000Y-59360000D02*
X189440000Y-59105000D01*
X193300000Y-59360000D02*
X197160000Y-59360000D01*
X189440000Y-49095000D02*
X187625000Y-49095000D01*
X193300000Y-48840000D02*
X189440000Y-48840000D01*
X193300000Y-59360000D02*
X189440000Y-59360000D01*
D10*
%TO.C,U1*%
X211175000Y-48075000D02*
X211175000Y-48300000D01*
X211175000Y-48075000D02*
X211500000Y-48075000D01*
X218425000Y-48075000D02*
X218100000Y-48075000D01*
X211175000Y-48300000D02*
X209750000Y-48300000D01*
X218425000Y-55325000D02*
X218425000Y-55000000D01*
X218425000Y-48075000D02*
X218425000Y-48400000D01*
X211175000Y-55325000D02*
X211500000Y-55325000D01*
X218425000Y-55325000D02*
X218100000Y-55325000D01*
X211175000Y-55325000D02*
X211175000Y-55000000D01*
D11*
%TO.C,R1*%
X219672936Y-61135000D02*
X220127064Y-61135000D01*
X219672936Y-59665000D02*
X220127064Y-59665000D01*
%TO.C,R11*%
X200765000Y-45527064D02*
X200765000Y-45072936D01*
X202235000Y-45527064D02*
X202235000Y-45072936D01*
%TO.C,R9*%
X203365000Y-45527064D02*
X203365000Y-45072936D01*
X204835000Y-45527064D02*
X204835000Y-45072936D01*
%TO.C,Y1*%
X202275000Y-57225000D02*
X202275000Y-50975000D01*
X207325000Y-57225000D02*
X207325000Y-50975000D01*
X202275000Y-57225000D02*
G75*
G03*
X207325000Y-57225000I2525000J0D01*
G01*
X207325000Y-50975000D02*
G75*
G03*
X202275000Y-50975000I-2525000J0D01*
G01*
%TO.C,SW2*%
X216900000Y-70950000D02*
X216900000Y-72450000D01*
X222650000Y-68450000D02*
X218150000Y-68450000D01*
X218150000Y-74950000D02*
X222650000Y-74950000D01*
X223900000Y-72450000D02*
X223900000Y-70950000D01*
%TO.C,J4*%
X199000000Y-37630000D02*
X197670000Y-37630000D01*
X200270000Y-37630000D02*
X200270000Y-34970000D01*
X200270000Y-37630000D02*
X207950000Y-37630000D01*
X207950000Y-37630000D02*
X207950000Y-34970000D01*
X200270000Y-34970000D02*
X207950000Y-34970000D01*
X197670000Y-37630000D02*
X197670000Y-36300000D01*
%TO.C,C4*%
X208390000Y-38611252D02*
X208390000Y-37188748D01*
X210210000Y-38611252D02*
X210210000Y-37188748D01*
%TO.C,C1*%
X217288748Y-31810000D02*
X218711252Y-31810000D01*
X217288748Y-29990000D02*
X218711252Y-29990000D01*
%TO.C,R3*%
X195765000Y-45072936D02*
X195765000Y-45527064D01*
X197235000Y-45072936D02*
X197235000Y-45527064D01*
%TO.C,R4*%
X193165000Y-45427064D02*
X193165000Y-44972936D01*
X194635000Y-45427064D02*
X194635000Y-44972936D01*
%TO.C,SW1*%
X192650000Y-68450000D02*
X188150000Y-68450000D01*
X193900000Y-72450000D02*
X193900000Y-70950000D01*
X188150000Y-74950000D02*
X192650000Y-74950000D01*
X186900000Y-70950000D02*
X186900000Y-72450000D01*
%TO.C,R5*%
X198572936Y-60265000D02*
X199027064Y-60265000D01*
X198572936Y-61735000D02*
X199027064Y-61735000D01*
%TO.C,J1*%
X222270000Y-30950000D02*
X222270000Y-29620000D01*
X222270000Y-32220000D02*
X222270000Y-44980000D01*
X222270000Y-44980000D02*
X224930000Y-44980000D01*
X222270000Y-32220000D02*
X224930000Y-32220000D01*
X224930000Y-32220000D02*
X224930000Y-44980000D01*
X222270000Y-29620000D02*
X223600000Y-29620000D01*
%TO.C,J2*%
X197670000Y-42630000D02*
X197670000Y-41300000D01*
X200270000Y-39970000D02*
X207950000Y-39970000D01*
X200270000Y-42630000D02*
X200270000Y-39970000D01*
X207950000Y-42630000D02*
X207950000Y-39970000D01*
X200270000Y-42630000D02*
X207950000Y-42630000D01*
X199000000Y-42630000D02*
X197670000Y-42630000D01*
%TD*%
%LPC*%
D12*
%TO.C,REF\u002A\u002A*%
X205600000Y-24700000D03*
%TD*%
%TO.C,REF\u002A\u002A*%
X205600000Y-80400000D03*
%TD*%
D13*
%TO.C,U2*%
X188650000Y-49655000D03*
X188650000Y-50925000D03*
X188650000Y-52195000D03*
X188650000Y-53465000D03*
X188650000Y-54735000D03*
X188650000Y-56005000D03*
X188650000Y-57275000D03*
X188650000Y-58545000D03*
X197950000Y-58545000D03*
X197950000Y-57275000D03*
X197950000Y-56005000D03*
X197950000Y-54735000D03*
X197950000Y-53465000D03*
X197950000Y-52195000D03*
X197950000Y-50925000D03*
X197950000Y-49655000D03*
%TD*%
D14*
%TO.C,U1*%
X210550000Y-48900000D03*
X210550000Y-49700000D03*
X210550000Y-50500000D03*
X210550000Y-51300000D03*
X210550000Y-52100000D03*
X210550000Y-52900000D03*
X210550000Y-53700000D03*
X210550000Y-54500000D03*
D15*
X212000000Y-55950000D03*
X212800000Y-55950000D03*
X213600000Y-55950000D03*
X214400000Y-55950000D03*
X215200000Y-55950000D03*
X216000000Y-55950000D03*
X216800000Y-55950000D03*
X217600000Y-55950000D03*
D14*
X219050000Y-54500000D03*
X219050000Y-53700000D03*
X219050000Y-52900000D03*
X219050000Y-52100000D03*
X219050000Y-51300000D03*
X219050000Y-50500000D03*
X219050000Y-49700000D03*
X219050000Y-48900000D03*
D15*
X217600000Y-47450000D03*
X216800000Y-47450000D03*
X216000000Y-47450000D03*
X215200000Y-47450000D03*
X214400000Y-47450000D03*
X213600000Y-47450000D03*
X212800000Y-47450000D03*
X212000000Y-47450000D03*
%TD*%
D16*
%TO.C,J9*%
X187400000Y-45200000D03*
%TD*%
%TO.C,J6*%
X209300000Y-42100000D03*
%TD*%
D17*
%TO.C,R1*%
X218900000Y-60400000D03*
X220900000Y-60400000D03*
%TD*%
D18*
%TO.C,R11*%
X201500000Y-46300000D03*
X201500000Y-44300000D03*
%TD*%
%TO.C,R9*%
X204100000Y-46300000D03*
X204100000Y-44300000D03*
%TD*%
D19*
%TO.C,Y1*%
X204800000Y-56550000D03*
X204800000Y-51650000D03*
%TD*%
D20*
%TO.C,SW2*%
X217150000Y-69450000D03*
X223650000Y-69450000D03*
X217150000Y-73950000D03*
X223650000Y-73950000D03*
%TD*%
D21*
%TO.C,J4*%
X206620000Y-36300000D03*
X204080000Y-36300000D03*
X201540000Y-36300000D03*
D16*
X199000000Y-36300000D03*
%TD*%
D22*
%TO.C,C4*%
X209300000Y-39462500D03*
X209300000Y-36337500D03*
%TD*%
D23*
%TO.C,C1*%
X216437500Y-30900000D03*
X219562500Y-30900000D03*
%TD*%
D24*
%TO.C,R3*%
X196500000Y-44300000D03*
X196500000Y-46300000D03*
%TD*%
D16*
%TO.C,J3*%
X223400000Y-65640000D03*
D21*
X223400000Y-63100000D03*
X223400000Y-60560000D03*
X223400000Y-58020000D03*
X223400000Y-55480000D03*
X223400000Y-52940000D03*
X223400000Y-50400000D03*
%TD*%
D16*
%TO.C,J7*%
X209300000Y-34200000D03*
%TD*%
D18*
%TO.C,R4*%
X193900000Y-46200000D03*
X193900000Y-44200000D03*
%TD*%
D16*
%TO.C,J5*%
X209300000Y-45200000D03*
%TD*%
D20*
%TO.C,SW1*%
X187150000Y-69450000D03*
X193650000Y-69450000D03*
X187150000Y-73950000D03*
X193650000Y-73950000D03*
%TD*%
D17*
%TO.C,R5*%
X197800000Y-61000000D03*
X199800000Y-61000000D03*
%TD*%
D16*
%TO.C,J1*%
X223600000Y-30950000D03*
D21*
X223600000Y-33490000D03*
X223600000Y-36030000D03*
X223600000Y-38570000D03*
X223600000Y-41110000D03*
X223600000Y-43650000D03*
%TD*%
D16*
%TO.C,J8*%
X209300000Y-31000000D03*
%TD*%
D21*
%TO.C,J2*%
X206620000Y-41300000D03*
X204080000Y-41300000D03*
X201540000Y-41300000D03*
D16*
X199000000Y-41300000D03*
%TD*%
M02*
