%TF.GenerationSoftware,KiCad,Pcbnew,(6.0.6)*%
%TF.CreationDate,2022-10-28T21:49:34+08:00*%
%TF.ProjectId,KB_SmartWatch,4b425f53-6d61-4727-9457-617463682e6b,rev?*%
%TF.SameCoordinates,Original*%
%TF.FileFunction,Copper,L2,Bot*%
%TF.FilePolarity,Positive*%
%FSLAX46Y46*%
G04 Gerber Fmt 4.6, Leading zero omitted, Abs format (unit mm)*
G04 Created by KiCad (PCBNEW (6.0.6)) date 2022-10-28 21:49:34*
%MOMM*%
%LPD*%
G01*
G04 APERTURE LIST*
G04 Aperture macros list*
%AMRoundRect*
0 Rectangle with rounded corners*
0 $1 Rounding radius*
0 $2 $3 $4 $5 $6 $7 $8 $9 X,Y pos of 4 corners*
0 Add a 4 corners polygon primitive as box body*
4,1,4,$2,$3,$4,$5,$6,$7,$8,$9,$2,$3,0*
0 Add four circle primitives for the rounded corners*
1,1,$1+$1,$2,$3*
1,1,$1+$1,$4,$5*
1,1,$1+$1,$6,$7*
1,1,$1+$1,$8,$9*
0 Add four rect primitives between the rounded corners*
20,1,$1+$1,$2,$3,$4,$5,0*
20,1,$1+$1,$4,$5,$6,$7,0*
20,1,$1+$1,$6,$7,$8,$9,0*
20,1,$1+$1,$8,$9,$2,$3,0*%
G04 Aperture macros list end*
%TA.AperFunction,ComponentPad*%
%ADD10O,26.000000X4.600000*%
%TD*%
%TA.AperFunction,SMDPad,CuDef*%
%ADD11RoundRect,0.250000X-0.450000X0.350000X-0.450000X-0.350000X0.450000X-0.350000X0.450000X0.350000X0*%
%TD*%
%TA.AperFunction,ComponentPad*%
%ADD12R,1.700000X1.700000*%
%TD*%
%TA.AperFunction,SMDPad,CuDef*%
%ADD13RoundRect,0.250000X0.350000X0.450000X-0.350000X0.450000X-0.350000X-0.450000X0.350000X-0.450000X0*%
%TD*%
%TA.AperFunction,ComponentPad*%
%ADD14C,1.500000*%
%TD*%
%TA.AperFunction,ComponentPad*%
%ADD15C,2.000000*%
%TD*%
%TA.AperFunction,SMDPad,CuDef*%
%ADD16RoundRect,0.250000X-0.625000X0.400000X-0.625000X-0.400000X0.625000X-0.400000X0.625000X0.400000X0*%
%TD*%
%TA.AperFunction,ComponentPad*%
%ADD17O,1.700000X1.700000*%
%TD*%
%TA.AperFunction,SMDPad,CuDef*%
%ADD18RoundRect,0.250000X-0.350000X-0.450000X0.350000X-0.450000X0.350000X0.450000X-0.350000X0.450000X0*%
%TD*%
%TA.AperFunction,SMDPad,CuDef*%
%ADD19RoundRect,0.250000X0.625000X-0.400000X0.625000X0.400000X-0.625000X0.400000X-0.625000X-0.400000X0*%
%TD*%
%TA.AperFunction,SMDPad,CuDef*%
%ADD20RoundRect,0.250000X-0.412500X-0.650000X0.412500X-0.650000X0.412500X0.650000X-0.412500X0.650000X0*%
%TD*%
%TA.AperFunction,ViaPad*%
%ADD21C,0.600000*%
%TD*%
%TA.AperFunction,Conductor*%
%ADD22C,0.304800*%
%TD*%
%TA.AperFunction,Conductor*%
%ADD23C,0.406400*%
%TD*%
G04 APERTURE END LIST*
D10*
%TO.P,REF\u002A\u002A,1*%
%TO.N,N/C*%
X205600000Y-24700000D03*
%TD*%
%TO.P,REF\u002A\u002A,1*%
%TO.N,N/C*%
X205600000Y-80400000D03*
%TD*%
D11*
%TO.P,R12,1*%
%TO.N,chrg*%
X186800000Y-49500000D03*
%TO.P,R12,2*%
%TO.N,GND*%
X186800000Y-51500000D03*
%TD*%
D12*
%TO.P,J9,1,Pin_1*%
%TO.N,chrg*%
X187400000Y-45200000D03*
%TD*%
%TO.P,J6,1,Pin_1*%
%TO.N,unconnected-(J6-Pad1)*%
X209300000Y-42100000D03*
%TD*%
D13*
%TO.P,R15,1*%
%TO.N,sw_dw*%
X221200000Y-71800000D03*
%TO.P,R15,2*%
%TO.N,+5V*%
X219200000Y-71800000D03*
%TD*%
D14*
%TO.P,Y1,1,1*%
%TO.N,osc2*%
X204800000Y-56550000D03*
%TO.P,Y1,2,2*%
%TO.N,osc1*%
X204800000Y-51650000D03*
%TD*%
D15*
%TO.P,SW2,1,1*%
%TO.N,sw_dw*%
X217150000Y-69450000D03*
X223650000Y-69450000D03*
%TO.P,SW2,2,2*%
%TO.N,GND*%
X217150000Y-73950000D03*
X223650000Y-73950000D03*
%TD*%
D16*
%TO.P,R10,1*%
%TO.N,GND*%
X219700000Y-41150000D03*
%TO.P,R10,2*%
%TO.N,v_bat*%
X219700000Y-44250000D03*
%TD*%
D17*
%TO.P,J4,4,Pin_4*%
%TO.N,sda*%
X206620000Y-36300000D03*
%TO.P,J4,3,Pin_3*%
%TO.N,scl*%
X204080000Y-36300000D03*
%TO.P,J4,2,Pin_2*%
%TO.N,GND*%
X201540000Y-36300000D03*
D12*
%TO.P,J4,1,Pin_1*%
%TO.N,+5V*%
X199000000Y-36300000D03*
%TD*%
D13*
%TO.P,R14,1*%
%TO.N,sw_up*%
X191400000Y-71700000D03*
%TO.P,R14,2*%
%TO.N,+5V*%
X189400000Y-71700000D03*
%TD*%
%TO.P,R7,1*%
%TO.N,scl*%
X195200000Y-48900000D03*
%TO.P,R7,2*%
%TO.N,+5V*%
X193200000Y-48900000D03*
%TD*%
D12*
%TO.P,J3,1,Pin_1*%
%TO.N,+5V*%
X223400000Y-65640000D03*
D17*
%TO.P,J3,2,Pin_2*%
%TO.N,GND*%
X223400000Y-63100000D03*
%TO.P,J3,3,Pin_3*%
%TO.N,Net-(J3-Pad3)*%
X223400000Y-60560000D03*
%TO.P,J3,4,Pin_4*%
%TO.N,s1_tx*%
X223400000Y-58020000D03*
%TO.P,J3,5,Pin_5*%
%TO.N,s1_rx*%
X223400000Y-55480000D03*
%TO.P,J3,6,Pin_6*%
%TO.N,GND*%
X223400000Y-52940000D03*
%TO.P,J3,7,Pin_7*%
%TO.N,unconnected-(J3-Pad7)*%
X223400000Y-50400000D03*
%TD*%
D12*
%TO.P,J7,1,Pin_1*%
%TO.N,unconnected-(J7-Pad1)*%
X209300000Y-34200000D03*
%TD*%
%TO.P,J5,1,Pin_1*%
%TO.N,+5V*%
X209300000Y-45200000D03*
%TD*%
D15*
%TO.P,SW1,1,1*%
%TO.N,sw_up*%
X187150000Y-69450000D03*
X193650000Y-69450000D03*
%TO.P,SW1,2,2*%
%TO.N,GND*%
X187150000Y-73950000D03*
X193650000Y-73950000D03*
%TD*%
D13*
%TO.P,R8,1*%
%TO.N,sda*%
X195200000Y-51600000D03*
%TO.P,R8,2*%
%TO.N,+5V*%
X193200000Y-51600000D03*
%TD*%
D12*
%TO.P,J1,1,Pin_1*%
%TO.N,Net-(C1-Pad2)*%
X223600000Y-30950000D03*
D17*
%TO.P,J1,2,Pin_2*%
%TO.N,FTDI_RX*%
X223600000Y-33490000D03*
%TO.P,J1,3,Pin_3*%
%TO.N,FTDI_TX*%
X223600000Y-36030000D03*
%TO.P,J1,4,Pin_4*%
%TO.N,+5V*%
X223600000Y-38570000D03*
%TO.P,J1,5,Pin_5*%
%TO.N,GND*%
X223600000Y-41110000D03*
%TO.P,J1,6,Pin_6*%
X223600000Y-43650000D03*
%TD*%
D12*
%TO.P,J8,1,Pin_1*%
%TO.N,GND*%
X209300000Y-31000000D03*
%TD*%
D18*
%TO.P,R13,1*%
%TO.N,Net-(R13-Pad1)*%
X193200000Y-54300000D03*
%TO.P,R13,2*%
%TO.N,+5V*%
X195200000Y-54300000D03*
%TD*%
D17*
%TO.P,J2,4,Pin_4*%
%TO.N,GND*%
X206620000Y-41300000D03*
%TO.P,J2,3,Pin_3*%
%TO.N,s2_tx*%
X204080000Y-41300000D03*
%TO.P,J2,2,Pin_2*%
%TO.N,s2_rx*%
X201540000Y-41300000D03*
D12*
%TO.P,J2,1,Pin_1*%
%TO.N,+5V*%
X199000000Y-41300000D03*
%TD*%
D18*
%TO.P,R2,1*%
%TO.N,DTR*%
X214500000Y-52100000D03*
%TO.P,R2,2*%
%TO.N,+5V*%
X216500000Y-52100000D03*
%TD*%
D19*
%TO.P,R6,1*%
%TO.N,v_bat*%
X217100000Y-44250000D03*
%TO.P,R6,2*%
%TO.N,+5V*%
X217100000Y-41150000D03*
%TD*%
D20*
%TO.P,C2,1*%
%TO.N,osc1*%
X206937500Y-51600000D03*
%TO.P,C2,2*%
%TO.N,GND*%
X210062500Y-51600000D03*
%TD*%
%TO.P,C3,1*%
%TO.N,osc2*%
X207037500Y-56500000D03*
%TO.P,C3,2*%
%TO.N,GND*%
X210162500Y-56500000D03*
%TD*%
D21*
%TO.N,+5V*%
X203800000Y-50300000D03*
%TO.N,GND*%
X208700000Y-52000000D03*
X220300000Y-58500000D03*
X196400000Y-53500000D03*
%TO.N,s1_tx*%
X212627206Y-49192471D03*
X205800000Y-44300000D03*
%TO.N,s1_rx*%
X197900000Y-46400000D03*
X204200000Y-48900000D03*
%TO.N,GND*%
X206600000Y-46300000D03*
%TO.N,+5V*%
X220400000Y-73100000D03*
X195300000Y-57200000D03*
X218200000Y-34300000D03*
X218200000Y-32600000D03*
%TO.N,GND*%
X208700000Y-50500000D03*
%TO.N,s1_tx*%
X213700000Y-53804300D03*
%TO.N,s1_rx*%
X212000000Y-51500000D03*
%TO.N,GND*%
X192200000Y-58600000D03*
X196100000Y-58600000D03*
%TO.N,sw_up*%
X213600000Y-57900000D03*
%TO.N,GND*%
X186700000Y-54700000D03*
%TO.N,+5V*%
X192400000Y-50300000D03*
%TO.N,Net-(R13-Pad1)*%
X190900000Y-53500000D03*
%TO.N,+5V*%
X217500000Y-52100000D03*
%TO.N,sda*%
X196300000Y-51400000D03*
%TO.N,scl*%
X196300000Y-49600000D03*
%TO.N,v_bat*%
X217100000Y-49700000D03*
%TO.N,Net-(R9-Pad1)*%
X205600000Y-46300000D03*
X205600000Y-49700000D03*
%TO.N,sda*%
X213900000Y-49900000D03*
%TO.N,FTDI_TX*%
X215600000Y-50300000D03*
%TO.N,chrg*%
X213748100Y-35700000D03*
%TO.N,FTDI_RX*%
X212800000Y-46351900D03*
X212310963Y-37789037D03*
%TO.N,DTR*%
X214400000Y-48900000D03*
X214400000Y-30900000D03*
%TD*%
D22*
%TO.N,+5V*%
X203700000Y-50400000D02*
X203800000Y-50300000D01*
X193200000Y-50400000D02*
X203700000Y-50400000D01*
%TO.N,sda*%
X196100000Y-51600000D02*
X195200000Y-51600000D01*
X196300000Y-51400000D02*
X196100000Y-51600000D01*
%TO.N,GND*%
X218300000Y-56500000D02*
X220300000Y-58500000D01*
X210162500Y-56500000D02*
X218300000Y-56500000D01*
X208600000Y-53500000D02*
X208700000Y-53400000D01*
X196400000Y-53500000D02*
X208600000Y-53500000D01*
X208700000Y-56200000D02*
X208700000Y-53400000D01*
X208700000Y-53400000D02*
X208700000Y-52000000D01*
%TO.N,s1_tx*%
X212000000Y-44300000D02*
X212000000Y-48565265D01*
X211697600Y-43997600D02*
X212000000Y-44300000D01*
X206102400Y-43997600D02*
X211697600Y-43997600D01*
X205800000Y-44300000D02*
X206102400Y-43997600D01*
X212000000Y-48565265D02*
X212627206Y-49192471D01*
%TO.N,s1_rx*%
X199400000Y-47500000D02*
X198300000Y-46400000D01*
X200800000Y-48900000D02*
X199400000Y-47500000D01*
X198300000Y-46400000D02*
X197900000Y-46400000D01*
X204200000Y-48900000D02*
X200800000Y-48900000D01*
%TO.N,GND*%
X208700000Y-49800000D02*
X208700000Y-50500000D01*
X206600000Y-47700000D02*
X208700000Y-49800000D01*
X206600000Y-46300000D02*
X206600000Y-47700000D01*
%TO.N,s1_tx*%
X217500000Y-53800000D02*
X221720000Y-58020000D01*
X213704300Y-53800000D02*
X217500000Y-53800000D01*
X213700000Y-53804300D02*
X213704300Y-53800000D01*
X221720000Y-58020000D02*
X223400000Y-58020000D01*
%TO.N,s1_rx*%
X212752400Y-53152400D02*
X221072400Y-53152400D01*
X221072400Y-53152400D02*
X223400000Y-55480000D01*
X212000000Y-52400000D02*
X212752400Y-53152400D01*
X212000000Y-51500000D02*
X212000000Y-52400000D01*
%TO.N,+5V*%
X219200000Y-72800000D02*
X219200000Y-71800000D01*
X219500000Y-73100000D02*
X219200000Y-72800000D01*
X220400000Y-73100000D02*
X219500000Y-73100000D01*
D23*
%TO.N,sw_dw*%
X221200000Y-69450000D02*
X223650000Y-69450000D01*
X221200000Y-71800000D02*
X221200000Y-69450000D01*
D22*
X217150000Y-69450000D02*
X223650000Y-69450000D01*
%TO.N,GND*%
X217500000Y-63100000D02*
X214500000Y-66100000D01*
X223400000Y-63100000D02*
X217500000Y-63100000D01*
X214500000Y-66100000D02*
X214500000Y-73900000D01*
X214500000Y-73900000D02*
X214550000Y-73950000D01*
X214550000Y-73950000D02*
X217150000Y-73950000D01*
X193650000Y-73950000D02*
X214550000Y-73950000D01*
X217150000Y-73950000D02*
X223650000Y-73950000D01*
X187150000Y-73950000D02*
X193650000Y-73950000D01*
%TO.N,+5V*%
X189400000Y-59400000D02*
X192900000Y-55900000D01*
X189400000Y-71700000D02*
X189400000Y-59400000D01*
X192900000Y-55900000D02*
X195300000Y-55900000D01*
X195300000Y-55900000D02*
X195300000Y-54400000D01*
X195300000Y-57200000D02*
X195300000Y-55900000D01*
X195300000Y-54400000D02*
X195200000Y-54300000D01*
%TO.N,GND*%
X196100000Y-58600000D02*
X192200000Y-58600000D01*
%TO.N,+5V*%
X193200000Y-42700000D02*
X193200000Y-48900000D01*
X194600000Y-41300000D02*
X193200000Y-42700000D01*
X199000000Y-41300000D02*
X194600000Y-41300000D01*
X199000000Y-43700000D02*
X199000000Y-41300000D01*
X200500000Y-45200000D02*
X199000000Y-43700000D01*
X209300000Y-45200000D02*
X200500000Y-45200000D01*
X218200000Y-32600000D02*
X218200000Y-34300000D01*
X199000000Y-41300000D02*
X199000000Y-36300000D01*
X218030000Y-38570000D02*
X223600000Y-38570000D01*
X217200000Y-39400000D02*
X218030000Y-38570000D01*
X217200000Y-41050000D02*
X217200000Y-39400000D01*
X217100000Y-41150000D02*
X217200000Y-41050000D01*
%TO.N,GND*%
X219740000Y-41110000D02*
X223600000Y-41110000D01*
X219700000Y-41150000D02*
X219740000Y-41110000D01*
X210062500Y-51600000D02*
X208800000Y-51600000D01*
X208700000Y-51500000D02*
X208700000Y-52000000D01*
X208700000Y-50500000D02*
X208700000Y-51500000D01*
X208800000Y-51600000D02*
X208700000Y-51500000D01*
X210162500Y-56500000D02*
X209000000Y-56500000D01*
X209000000Y-56500000D02*
X208700000Y-56200000D01*
%TO.N,FTDI_RX*%
X212800000Y-46351900D02*
X212800000Y-38278074D01*
X212800000Y-38278074D02*
X212310963Y-37789037D01*
%TO.N,sw_up*%
X211850000Y-69450000D02*
X193650000Y-69450000D01*
X213600000Y-67700000D02*
X211850000Y-69450000D01*
X213600000Y-57900000D02*
X213600000Y-67700000D01*
%TO.N,GND*%
X186800000Y-54600000D02*
X186700000Y-54700000D01*
X186800000Y-51500000D02*
X186800000Y-54600000D01*
%TO.N,chrg*%
X187400000Y-46400000D02*
X187400000Y-45200000D01*
X186800000Y-47000000D02*
X187400000Y-46400000D01*
X186800000Y-49500000D02*
X186800000Y-47000000D01*
%TO.N,+5V*%
X193100000Y-50300000D02*
X193200000Y-50400000D01*
X192400000Y-50300000D02*
X193100000Y-50300000D01*
X193200000Y-50400000D02*
X193200000Y-51600000D01*
X193200000Y-48900000D02*
X193200000Y-50400000D01*
X193200000Y-52300000D02*
X193200000Y-51600000D01*
X195200000Y-54300000D02*
X193200000Y-52300000D01*
%TO.N,Net-(R13-Pad1)*%
X192500000Y-53500000D02*
X190900000Y-53500000D01*
X193200000Y-54200000D02*
X192500000Y-53500000D01*
X193200000Y-54300000D02*
X193200000Y-54200000D01*
%TO.N,+5V*%
X216500000Y-52100000D02*
X217500000Y-52100000D01*
%TO.N,DTR*%
X214552400Y-52047600D02*
X214500000Y-52100000D01*
X214552400Y-49052400D02*
X214552400Y-52047600D01*
X214400000Y-48900000D02*
X214552400Y-49052400D01*
%TO.N,FTDI_TX*%
X215600000Y-50300000D02*
X215100000Y-49800000D01*
X215100000Y-37000000D02*
X216070000Y-36030000D01*
X216070000Y-36030000D02*
X223600000Y-36030000D01*
X215100000Y-49800000D02*
X215100000Y-37000000D01*
%TO.N,scl*%
X195600000Y-48900000D02*
X196300000Y-49600000D01*
X195200000Y-48900000D02*
X195600000Y-48900000D01*
%TO.N,v_bat*%
X215700000Y-44600000D02*
X215700000Y-49300000D01*
X215700000Y-49300000D02*
X216000000Y-49600000D01*
X215700000Y-44500000D02*
X215700000Y-44600000D01*
X215950000Y-44250000D02*
X215700000Y-44500000D01*
X216100000Y-49700000D02*
X217100000Y-49700000D01*
X216000000Y-49600000D02*
X216100000Y-49700000D01*
X217100000Y-44250000D02*
X215950000Y-44250000D01*
X217100000Y-44250000D02*
X219700000Y-44250000D01*
%TO.N,Net-(R9-Pad1)*%
X205600000Y-46300000D02*
X205600000Y-49700000D01*
%TO.N,sda*%
X213600000Y-49900000D02*
X213900000Y-49900000D01*
X213600000Y-38155441D02*
X213600000Y-49900000D01*
%TO.N,chrg*%
X187400000Y-37100000D02*
X187400000Y-45200000D01*
X187300000Y-37000000D02*
X187400000Y-37100000D01*
X189500000Y-34800000D02*
X187300000Y-37000000D01*
X207500000Y-34800000D02*
X189500000Y-34800000D01*
X213748100Y-35700000D02*
X208400000Y-35700000D01*
X208400000Y-35700000D02*
X207500000Y-34800000D01*
%TO.N,sda*%
X211744559Y-36300000D02*
X213600000Y-38155441D01*
X206620000Y-36300000D02*
X211744559Y-36300000D01*
%TO.N,DTR*%
X214400000Y-30900000D02*
X214400000Y-48900000D01*
D23*
%TO.N,sw_up*%
X191950000Y-69450000D02*
X193650000Y-69450000D01*
X191400000Y-70000000D02*
X191950000Y-69450000D01*
X191400000Y-71700000D02*
X191400000Y-70000000D01*
%TO.N,osc1*%
X204850000Y-51600000D02*
X204800000Y-51650000D01*
X206937500Y-51600000D02*
X204850000Y-51600000D01*
%TO.N,osc2*%
X207037500Y-56500000D02*
X204850000Y-56500000D01*
X204850000Y-56500000D02*
X204800000Y-56550000D01*
%TD*%
%TA.AperFunction,Conductor*%
%TO.N,+5V*%
G36*
X193019866Y-26786738D02*
G01*
X193118020Y-26877154D01*
X193235411Y-26962287D01*
X193353514Y-27047936D01*
X193384200Y-27070190D01*
X193671084Y-27230853D01*
X193818697Y-27292147D01*
X193971352Y-27355535D01*
X193971355Y-27355536D01*
X193974753Y-27356947D01*
X193978301Y-27357954D01*
X193978303Y-27357955D01*
X194287505Y-27445742D01*
X194287510Y-27445743D01*
X194291060Y-27446751D01*
X194615684Y-27499038D01*
X194619104Y-27499211D01*
X194619111Y-27499212D01*
X194800876Y-27508420D01*
X194800893Y-27508420D01*
X194802464Y-27508500D01*
X216384411Y-27508500D01*
X216628246Y-27494227D01*
X216631872Y-27493584D01*
X216631875Y-27493584D01*
X216948388Y-27437490D01*
X216948392Y-27437489D01*
X216952009Y-27436848D01*
X217217489Y-27356947D01*
X217263338Y-27343148D01*
X217263341Y-27343147D01*
X217266866Y-27342086D01*
X217270246Y-27340620D01*
X217270251Y-27340618D01*
X217565124Y-27212710D01*
X217565127Y-27212709D01*
X217568517Y-27211238D01*
X217852842Y-27046089D01*
X218089936Y-26868397D01*
X218156441Y-26843549D01*
X218225824Y-26858602D01*
X218276054Y-26908776D01*
X218291500Y-26969223D01*
X218291500Y-27291377D01*
X218291498Y-27292147D01*
X218291024Y-27369721D01*
X218293491Y-27378352D01*
X218299150Y-27398153D01*
X218302728Y-27414915D01*
X218306920Y-27444187D01*
X218310634Y-27452355D01*
X218310634Y-27452356D01*
X218317548Y-27467562D01*
X218323996Y-27485086D01*
X218331051Y-27509771D01*
X218335843Y-27517365D01*
X218335844Y-27517368D01*
X218346830Y-27534780D01*
X218354969Y-27549863D01*
X218367208Y-27576782D01*
X218373069Y-27583584D01*
X218383970Y-27596235D01*
X218395073Y-27611239D01*
X218408776Y-27632958D01*
X218415501Y-27638897D01*
X218415504Y-27638901D01*
X218430938Y-27652532D01*
X218442982Y-27664724D01*
X218456427Y-27680327D01*
X218456430Y-27680329D01*
X218462287Y-27687127D01*
X218469816Y-27692007D01*
X218469817Y-27692008D01*
X218483835Y-27701094D01*
X218498709Y-27712385D01*
X218511217Y-27723431D01*
X218517951Y-27729378D01*
X218544711Y-27741942D01*
X218559691Y-27750263D01*
X218576983Y-27761471D01*
X218576988Y-27761473D01*
X218584515Y-27766352D01*
X218593108Y-27768922D01*
X218593113Y-27768924D01*
X218609120Y-27773711D01*
X218626564Y-27780372D01*
X218641676Y-27787467D01*
X218641678Y-27787468D01*
X218649800Y-27791281D01*
X218658667Y-27792662D01*
X218658668Y-27792662D01*
X218661353Y-27793080D01*
X218679017Y-27795830D01*
X218695732Y-27799613D01*
X218715466Y-27805515D01*
X218715472Y-27805516D01*
X218724066Y-27808086D01*
X218733037Y-27808141D01*
X218733038Y-27808141D01*
X218743097Y-27808202D01*
X218758506Y-27808296D01*
X218759289Y-27808329D01*
X218760386Y-27808500D01*
X218791377Y-27808500D01*
X218792147Y-27808502D01*
X218865785Y-27808952D01*
X218865786Y-27808952D01*
X218869721Y-27808976D01*
X218871065Y-27808592D01*
X218872410Y-27808500D01*
X225465500Y-27808500D01*
X225533621Y-27828502D01*
X225580114Y-27882158D01*
X225591500Y-27934500D01*
X225591500Y-77065500D01*
X225571498Y-77133621D01*
X225517842Y-77180114D01*
X225465500Y-77191500D01*
X219008623Y-77191500D01*
X219007853Y-77191498D01*
X219007037Y-77191493D01*
X218930279Y-77191024D01*
X218907918Y-77197415D01*
X218901847Y-77199150D01*
X218885085Y-77202728D01*
X218855813Y-77206920D01*
X218847645Y-77210634D01*
X218847644Y-77210634D01*
X218832438Y-77217548D01*
X218814914Y-77223996D01*
X218790229Y-77231051D01*
X218782635Y-77235843D01*
X218782632Y-77235844D01*
X218765220Y-77246830D01*
X218750137Y-77254969D01*
X218723218Y-77267208D01*
X218716416Y-77273069D01*
X218703765Y-77283970D01*
X218688761Y-77295073D01*
X218667042Y-77308776D01*
X218661103Y-77315501D01*
X218661099Y-77315504D01*
X218647468Y-77330938D01*
X218635276Y-77342982D01*
X218619673Y-77356427D01*
X218619671Y-77356430D01*
X218612873Y-77362287D01*
X218607993Y-77369816D01*
X218607992Y-77369817D01*
X218598906Y-77383835D01*
X218587615Y-77398709D01*
X218576569Y-77411217D01*
X218570622Y-77417951D01*
X218564312Y-77431391D01*
X218558058Y-77444711D01*
X218549737Y-77459691D01*
X218538529Y-77476983D01*
X218538527Y-77476988D01*
X218533648Y-77484515D01*
X218531078Y-77493108D01*
X218531076Y-77493113D01*
X218526289Y-77509120D01*
X218519628Y-77526564D01*
X218512533Y-77541676D01*
X218508719Y-77549800D01*
X218507338Y-77558667D01*
X218507338Y-77558668D01*
X218504170Y-77579015D01*
X218500387Y-77595732D01*
X218494485Y-77615466D01*
X218494484Y-77615472D01*
X218491914Y-77624066D01*
X218491740Y-77652663D01*
X218491704Y-77658497D01*
X218491671Y-77659289D01*
X218491500Y-77660386D01*
X218491500Y-77691377D01*
X218491498Y-77692147D01*
X218491024Y-77769721D01*
X218491408Y-77771065D01*
X218491500Y-77772410D01*
X218491500Y-78312703D01*
X218471498Y-78380824D01*
X218417842Y-78427317D01*
X218347568Y-78437421D01*
X218280133Y-78405377D01*
X218115416Y-78253646D01*
X218081980Y-78222846D01*
X217849033Y-78053911D01*
X217818783Y-78031973D01*
X217818780Y-78031971D01*
X217815800Y-78029810D01*
X217768510Y-78003326D01*
X217563941Y-77888762D01*
X217528916Y-77869147D01*
X217313411Y-77779662D01*
X217228648Y-77744465D01*
X217228645Y-77744464D01*
X217225247Y-77743053D01*
X217217657Y-77740898D01*
X216912495Y-77654258D01*
X216912490Y-77654257D01*
X216908940Y-77653249D01*
X216584316Y-77600962D01*
X216580896Y-77600789D01*
X216580889Y-77600788D01*
X216399124Y-77591580D01*
X216399107Y-77591580D01*
X216397536Y-77591500D01*
X194815589Y-77591500D01*
X194571754Y-77605773D01*
X194568128Y-77606416D01*
X194568125Y-77606416D01*
X194251612Y-77662510D01*
X194251608Y-77662511D01*
X194247991Y-77663152D01*
X194099467Y-77707853D01*
X193936662Y-77756852D01*
X193936659Y-77756853D01*
X193933134Y-77757914D01*
X193929754Y-77759380D01*
X193929749Y-77759382D01*
X193634876Y-77887290D01*
X193631483Y-77888762D01*
X193347158Y-78053911D01*
X193344219Y-78056114D01*
X193344214Y-78056117D01*
X193193663Y-78168949D01*
X193084043Y-78251105D01*
X193081370Y-78253646D01*
X192921313Y-78405801D01*
X192858159Y-78438239D01*
X192787495Y-78431384D01*
X192731754Y-78387413D01*
X192708500Y-78314480D01*
X192708500Y-77708623D01*
X192708502Y-77707853D01*
X192708800Y-77659102D01*
X192708976Y-77630279D01*
X192700850Y-77601847D01*
X192697272Y-77585085D01*
X192694352Y-77564698D01*
X192693080Y-77555813D01*
X192682451Y-77532436D01*
X192676004Y-77514913D01*
X192671416Y-77498862D01*
X192668949Y-77490229D01*
X192664156Y-77482632D01*
X192653170Y-77465220D01*
X192645030Y-77450135D01*
X192642564Y-77444711D01*
X192632792Y-77423218D01*
X192616030Y-77403765D01*
X192604927Y-77388761D01*
X192591224Y-77367042D01*
X192584499Y-77361103D01*
X192584496Y-77361099D01*
X192569062Y-77347468D01*
X192557018Y-77335276D01*
X192543573Y-77319673D01*
X192543570Y-77319671D01*
X192537713Y-77312873D01*
X192524009Y-77303990D01*
X192516165Y-77298906D01*
X192501291Y-77287615D01*
X192488783Y-77276569D01*
X192488782Y-77276568D01*
X192482049Y-77270622D01*
X192455287Y-77258057D01*
X192440309Y-77249737D01*
X192423017Y-77238529D01*
X192423012Y-77238527D01*
X192415485Y-77233648D01*
X192406892Y-77231078D01*
X192406887Y-77231076D01*
X192390880Y-77226289D01*
X192373436Y-77219628D01*
X192358324Y-77212533D01*
X192358322Y-77212532D01*
X192350200Y-77208719D01*
X192341333Y-77207338D01*
X192341332Y-77207338D01*
X192330478Y-77205648D01*
X192320983Y-77204170D01*
X192304268Y-77200387D01*
X192284534Y-77194485D01*
X192284528Y-77194484D01*
X192275934Y-77191914D01*
X192266963Y-77191859D01*
X192266962Y-77191859D01*
X192256903Y-77191798D01*
X192241494Y-77191704D01*
X192240711Y-77191671D01*
X192239614Y-77191500D01*
X192208623Y-77191500D01*
X192207853Y-77191498D01*
X192134215Y-77191048D01*
X192134214Y-77191048D01*
X192130279Y-77191024D01*
X192128935Y-77191408D01*
X192127590Y-77191500D01*
X185134500Y-77191500D01*
X185066379Y-77171498D01*
X185019886Y-77117842D01*
X185008500Y-77065500D01*
X185008500Y-72197095D01*
X188292001Y-72197095D01*
X188292338Y-72203614D01*
X188302257Y-72299206D01*
X188305149Y-72312600D01*
X188356588Y-72466784D01*
X188362761Y-72479962D01*
X188448063Y-72617807D01*
X188457099Y-72629208D01*
X188571829Y-72743739D01*
X188583240Y-72752751D01*
X188721243Y-72837816D01*
X188734424Y-72843963D01*
X188888710Y-72895138D01*
X188902086Y-72898005D01*
X188996438Y-72907672D01*
X189002854Y-72908000D01*
X189127885Y-72908000D01*
X189143124Y-72903525D01*
X189144329Y-72902135D01*
X189146000Y-72894452D01*
X189146000Y-71972115D01*
X189141525Y-71956876D01*
X189140135Y-71955671D01*
X189132452Y-71954000D01*
X188310116Y-71954000D01*
X188294877Y-71958475D01*
X188293672Y-71959865D01*
X188292001Y-71967548D01*
X188292001Y-72197095D01*
X185008500Y-72197095D01*
X185008500Y-71427885D01*
X188292000Y-71427885D01*
X188296475Y-71443124D01*
X188297865Y-71444329D01*
X188305548Y-71446000D01*
X189127885Y-71446000D01*
X189143124Y-71441525D01*
X189144329Y-71440135D01*
X189146000Y-71432452D01*
X189146000Y-70510116D01*
X189141525Y-70494877D01*
X189140135Y-70493672D01*
X189132452Y-70492001D01*
X189002905Y-70492001D01*
X188996386Y-70492338D01*
X188900794Y-70502257D01*
X188887400Y-70505149D01*
X188733216Y-70556588D01*
X188720038Y-70562761D01*
X188582193Y-70648063D01*
X188570792Y-70657099D01*
X188456261Y-70771829D01*
X188447249Y-70783240D01*
X188362184Y-70921243D01*
X188356037Y-70934424D01*
X188304862Y-71088710D01*
X188301995Y-71102086D01*
X188292328Y-71196438D01*
X188292000Y-71202855D01*
X188292000Y-71427885D01*
X185008500Y-71427885D01*
X185008500Y-69450000D01*
X185636835Y-69450000D01*
X185655465Y-69686711D01*
X185656619Y-69691518D01*
X185656620Y-69691524D01*
X185687875Y-69821708D01*
X185710895Y-69917594D01*
X185712788Y-69922165D01*
X185712789Y-69922167D01*
X185792057Y-70113537D01*
X185801760Y-70136963D01*
X185804346Y-70141183D01*
X185923241Y-70335202D01*
X185923245Y-70335208D01*
X185925824Y-70339416D01*
X186056143Y-70492000D01*
X186067374Y-70505149D01*
X186080031Y-70519969D01*
X186260584Y-70674176D01*
X186264792Y-70676755D01*
X186264798Y-70676759D01*
X186417735Y-70770479D01*
X186463037Y-70798240D01*
X186467607Y-70800133D01*
X186467611Y-70800135D01*
X186677833Y-70887211D01*
X186682406Y-70889105D01*
X186762609Y-70908360D01*
X186908476Y-70943380D01*
X186908482Y-70943381D01*
X186913289Y-70944535D01*
X187150000Y-70963165D01*
X187386711Y-70944535D01*
X187391518Y-70943381D01*
X187391524Y-70943380D01*
X187537391Y-70908360D01*
X187617594Y-70889105D01*
X187622167Y-70887211D01*
X187832389Y-70800135D01*
X187832393Y-70800133D01*
X187836963Y-70798240D01*
X187882265Y-70770479D01*
X188035202Y-70676759D01*
X188035208Y-70676755D01*
X188039416Y-70674176D01*
X188219969Y-70519969D01*
X188232627Y-70505149D01*
X188243857Y-70492000D01*
X188374176Y-70339416D01*
X188376755Y-70335208D01*
X188376759Y-70335202D01*
X188495654Y-70141183D01*
X188498240Y-70136963D01*
X188507944Y-70113537D01*
X188587211Y-69922167D01*
X188587212Y-69922165D01*
X188589105Y-69917594D01*
X188612125Y-69821708D01*
X188643380Y-69691524D01*
X188643381Y-69691518D01*
X188644535Y-69686711D01*
X188663165Y-69450000D01*
X188644535Y-69213289D01*
X188589105Y-68982406D01*
X188587211Y-68977833D01*
X188500135Y-68767611D01*
X188500133Y-68767607D01*
X188498240Y-68763037D01*
X188482789Y-68737824D01*
X188376759Y-68564798D01*
X188376755Y-68564792D01*
X188374176Y-68560584D01*
X188219969Y-68380031D01*
X188039416Y-68225824D01*
X188035208Y-68223245D01*
X188035202Y-68223241D01*
X187841183Y-68104346D01*
X187836963Y-68101760D01*
X187832393Y-68099867D01*
X187832389Y-68099865D01*
X187622167Y-68012789D01*
X187622165Y-68012788D01*
X187617594Y-68010895D01*
X187537391Y-67991640D01*
X187391524Y-67956620D01*
X187391518Y-67956619D01*
X187386711Y-67955465D01*
X187150000Y-67936835D01*
X186913289Y-67955465D01*
X186908482Y-67956619D01*
X186908476Y-67956620D01*
X186762609Y-67991640D01*
X186682406Y-68010895D01*
X186677835Y-68012788D01*
X186677833Y-68012789D01*
X186467611Y-68099865D01*
X186467607Y-68099867D01*
X186463037Y-68101760D01*
X186458817Y-68104346D01*
X186264798Y-68223241D01*
X186264792Y-68223245D01*
X186260584Y-68225824D01*
X186080031Y-68380031D01*
X185925824Y-68560584D01*
X185923245Y-68564792D01*
X185923241Y-68564798D01*
X185817211Y-68737824D01*
X185801760Y-68763037D01*
X185799867Y-68767607D01*
X185799865Y-68767611D01*
X185712789Y-68977833D01*
X185710895Y-68982406D01*
X185655465Y-69213289D01*
X185636835Y-69450000D01*
X185008500Y-69450000D01*
X185008500Y-58588640D01*
X191386463Y-58588640D01*
X191404163Y-58769160D01*
X191461418Y-58941273D01*
X191465065Y-58947295D01*
X191465066Y-58947297D01*
X191531825Y-59057529D01*
X191555380Y-59096424D01*
X191560269Y-59101487D01*
X191560270Y-59101488D01*
X191635583Y-59179476D01*
X191681382Y-59226902D01*
X191757270Y-59276562D01*
X191798218Y-59303357D01*
X191833159Y-59326222D01*
X191839763Y-59328678D01*
X191839765Y-59328679D01*
X191996558Y-59386990D01*
X191996560Y-59386990D01*
X192003168Y-59389448D01*
X192082452Y-59400027D01*
X192175980Y-59412507D01*
X192175984Y-59412507D01*
X192182961Y-59413438D01*
X192189972Y-59412800D01*
X192189976Y-59412800D01*
X192332459Y-59399832D01*
X192363600Y-59396998D01*
X192370302Y-59394820D01*
X192370304Y-59394820D01*
X192529409Y-59343124D01*
X192529412Y-59343123D01*
X192536108Y-59340947D01*
X192640577Y-59278671D01*
X192705094Y-59260900D01*
X195595774Y-59260900D01*
X195664766Y-59281467D01*
X195733159Y-59326222D01*
X195739763Y-59328678D01*
X195739765Y-59328679D01*
X195896558Y-59386990D01*
X195896560Y-59386990D01*
X195903168Y-59389448D01*
X195982452Y-59400027D01*
X196075980Y-59412507D01*
X196075984Y-59412507D01*
X196082961Y-59413438D01*
X196089972Y-59412800D01*
X196089976Y-59412800D01*
X196232459Y-59399832D01*
X196263600Y-59396998D01*
X196270302Y-59394820D01*
X196270304Y-59394820D01*
X196429409Y-59343124D01*
X196429412Y-59343123D01*
X196436108Y-59340947D01*
X196591912Y-59248069D01*
X196723266Y-59122982D01*
X196823643Y-58971902D01*
X196865423Y-58861917D01*
X196885555Y-58808920D01*
X196885556Y-58808918D01*
X196888055Y-58802338D01*
X196889035Y-58795366D01*
X196912748Y-58626639D01*
X196912748Y-58626636D01*
X196913299Y-58622717D01*
X196913616Y-58600000D01*
X196893397Y-58419745D01*
X196891080Y-58413091D01*
X196836064Y-58255106D01*
X196836062Y-58255103D01*
X196833745Y-58248448D01*
X196737626Y-58094624D01*
X196663521Y-58020000D01*
X196614778Y-57970915D01*
X196614774Y-57970912D01*
X196609815Y-57965918D01*
X196598697Y-57958862D01*
X196519338Y-57908500D01*
X196456666Y-57868727D01*
X196371147Y-57838275D01*
X196292425Y-57810243D01*
X196292420Y-57810242D01*
X196285790Y-57807881D01*
X196278802Y-57807048D01*
X196278799Y-57807047D01*
X196155477Y-57792342D01*
X196105680Y-57786404D01*
X196098677Y-57787140D01*
X196098676Y-57787140D01*
X195932288Y-57804628D01*
X195932286Y-57804629D01*
X195925288Y-57805364D01*
X195835094Y-57836068D01*
X195760249Y-57861547D01*
X195760246Y-57861548D01*
X195753579Y-57863818D01*
X195747576Y-57867511D01*
X195747572Y-57867513D01*
X195661578Y-57920417D01*
X195595556Y-57939100D01*
X192704162Y-57939100D01*
X192636648Y-57919485D01*
X192605944Y-57900000D01*
X192556666Y-57868727D01*
X192471147Y-57838275D01*
X192392425Y-57810243D01*
X192392420Y-57810242D01*
X192385790Y-57807881D01*
X192378802Y-57807048D01*
X192378799Y-57807047D01*
X192255477Y-57792342D01*
X192205680Y-57786404D01*
X192198677Y-57787140D01*
X192198676Y-57787140D01*
X192032288Y-57804628D01*
X192032286Y-57804629D01*
X192025288Y-57805364D01*
X191853579Y-57863818D01*
X191847575Y-57867512D01*
X191705095Y-57955166D01*
X191705092Y-57955168D01*
X191699088Y-57958862D01*
X191694053Y-57963793D01*
X191694050Y-57963795D01*
X191579630Y-58075844D01*
X191569493Y-58085771D01*
X191471235Y-58238238D01*
X191468826Y-58244858D01*
X191468824Y-58244861D01*
X191424610Y-58366338D01*
X191409197Y-58408685D01*
X191386463Y-58588640D01*
X185008500Y-58588640D01*
X185008500Y-51900400D01*
X185591500Y-51900400D01*
X185591837Y-51903646D01*
X185591837Y-51903650D01*
X185598342Y-51966338D01*
X185602474Y-52006166D01*
X185604655Y-52012702D01*
X185604655Y-52012704D01*
X185636541Y-52108277D01*
X185658450Y-52173946D01*
X185751522Y-52324348D01*
X185876697Y-52449305D01*
X185882927Y-52453145D01*
X185882928Y-52453146D01*
X186020090Y-52537694D01*
X186027262Y-52542115D01*
X186052770Y-52550576D01*
X186111128Y-52591007D01*
X186138364Y-52656571D01*
X186139100Y-52670168D01*
X186139100Y-54064641D01*
X186119098Y-54132762D01*
X186101258Y-54154664D01*
X186076743Y-54178671D01*
X186069493Y-54185771D01*
X185971235Y-54338238D01*
X185968826Y-54344858D01*
X185968824Y-54344861D01*
X185935994Y-54435060D01*
X185909197Y-54508685D01*
X185886463Y-54688640D01*
X185904163Y-54869160D01*
X185961418Y-55041273D01*
X185965065Y-55047295D01*
X185965066Y-55047297D01*
X186036054Y-55164512D01*
X186055380Y-55196424D01*
X186060269Y-55201487D01*
X186060270Y-55201488D01*
X186137121Y-55281068D01*
X186181382Y-55326902D01*
X186333159Y-55426222D01*
X186339763Y-55428678D01*
X186339765Y-55428679D01*
X186496558Y-55486990D01*
X186496560Y-55486990D01*
X186503168Y-55489448D01*
X186586995Y-55500633D01*
X186675980Y-55512507D01*
X186675984Y-55512507D01*
X186682961Y-55513438D01*
X186689972Y-55512800D01*
X186689976Y-55512800D01*
X186852535Y-55498005D01*
X186863600Y-55496998D01*
X186870302Y-55494820D01*
X186870304Y-55494820D01*
X187029409Y-55443124D01*
X187029412Y-55443123D01*
X187036108Y-55440947D01*
X187163166Y-55365205D01*
X187185860Y-55351677D01*
X187185862Y-55351676D01*
X187191912Y-55348069D01*
X187323266Y-55222982D01*
X187423643Y-55071902D01*
X187465423Y-54961917D01*
X187485555Y-54908920D01*
X187485556Y-54908918D01*
X187488055Y-54902338D01*
X187489035Y-54895366D01*
X187512748Y-54726639D01*
X187512748Y-54726636D01*
X187513299Y-54722717D01*
X187513616Y-54700000D01*
X187493397Y-54519745D01*
X187479871Y-54480902D01*
X187467909Y-54446553D01*
X187460900Y-54405116D01*
X187460900Y-53488640D01*
X190086463Y-53488640D01*
X190104163Y-53669160D01*
X190161418Y-53841273D01*
X190165065Y-53847295D01*
X190165066Y-53847297D01*
X190246144Y-53981173D01*
X190255380Y-53996424D01*
X190381382Y-54126902D01*
X190533159Y-54226222D01*
X190539763Y-54228678D01*
X190539765Y-54228679D01*
X190696558Y-54286990D01*
X190696560Y-54286990D01*
X190703168Y-54289448D01*
X190786995Y-54300633D01*
X190875980Y-54312507D01*
X190875984Y-54312507D01*
X190882961Y-54313438D01*
X190889972Y-54312800D01*
X190889976Y-54312800D01*
X191032459Y-54299832D01*
X191063600Y-54296998D01*
X191070302Y-54294820D01*
X191070304Y-54294820D01*
X191229409Y-54243124D01*
X191229412Y-54243123D01*
X191236108Y-54240947D01*
X191340577Y-54178671D01*
X191405094Y-54160900D01*
X191965500Y-54160900D01*
X192033621Y-54180902D01*
X192080114Y-54234558D01*
X192091500Y-54286900D01*
X192091500Y-54800400D01*
X192091837Y-54803646D01*
X192091837Y-54803650D01*
X192101618Y-54897914D01*
X192102474Y-54906166D01*
X192158450Y-55073946D01*
X192251522Y-55224348D01*
X192376697Y-55349305D01*
X192382927Y-55353145D01*
X192382928Y-55353146D01*
X192520288Y-55437816D01*
X192527262Y-55442115D01*
X192607005Y-55468564D01*
X192688611Y-55495632D01*
X192688613Y-55495632D01*
X192695139Y-55497797D01*
X192701975Y-55498497D01*
X192701978Y-55498498D01*
X192745031Y-55502909D01*
X192799600Y-55508500D01*
X193600400Y-55508500D01*
X193603646Y-55508163D01*
X193603650Y-55508163D01*
X193699308Y-55498238D01*
X193699312Y-55498237D01*
X193706166Y-55497526D01*
X193712702Y-55495345D01*
X193712704Y-55495345D01*
X193858525Y-55446695D01*
X193873946Y-55441550D01*
X194024348Y-55348478D01*
X194042035Y-55330760D01*
X194111138Y-55261537D01*
X194173421Y-55227458D01*
X194244241Y-55232461D01*
X194289329Y-55261382D01*
X194371829Y-55343739D01*
X194383240Y-55352751D01*
X194521243Y-55437816D01*
X194534424Y-55443963D01*
X194688710Y-55495138D01*
X194702086Y-55498005D01*
X194796438Y-55507672D01*
X194802854Y-55508000D01*
X194927885Y-55508000D01*
X194943124Y-55503525D01*
X194944329Y-55502135D01*
X194946000Y-55494452D01*
X194946000Y-53110116D01*
X194941525Y-53094877D01*
X194940135Y-53093672D01*
X194932452Y-53092001D01*
X194802905Y-53092001D01*
X194796386Y-53092338D01*
X194700794Y-53102257D01*
X194687400Y-53105149D01*
X194533216Y-53156588D01*
X194520038Y-53162761D01*
X194382193Y-53248063D01*
X194370792Y-53257099D01*
X194289570Y-53338462D01*
X194227287Y-53372541D01*
X194156467Y-53367538D01*
X194111380Y-53338617D01*
X194028488Y-53255870D01*
X194028483Y-53255866D01*
X194023303Y-53250695D01*
X193964719Y-53214583D01*
X193878968Y-53161725D01*
X193878966Y-53161724D01*
X193872738Y-53157885D01*
X193769411Y-53123613D01*
X193711389Y-53104368D01*
X193711387Y-53104368D01*
X193704861Y-53102203D01*
X193698025Y-53101503D01*
X193698022Y-53101502D01*
X193654969Y-53097091D01*
X193600400Y-53091500D01*
X193078343Y-53091500D01*
X193010222Y-53071498D01*
X192989248Y-53054595D01*
X192986614Y-53051961D01*
X192980760Y-53045695D01*
X192950470Y-53010972D01*
X192950467Y-53010969D01*
X192945476Y-53005248D01*
X192939264Y-53000882D01*
X192937238Y-52999058D01*
X192900000Y-52938611D01*
X192901353Y-52867628D01*
X192926326Y-52822912D01*
X192944329Y-52802136D01*
X192946000Y-52794452D01*
X192946000Y-51872115D01*
X192941525Y-51856876D01*
X192940135Y-51855671D01*
X192932452Y-51854000D01*
X192110116Y-51854000D01*
X192094877Y-51858475D01*
X192093672Y-51859865D01*
X192092001Y-51867548D01*
X192092001Y-52097095D01*
X192092338Y-52103614D01*
X192102257Y-52199206D01*
X192105149Y-52212600D01*
X192156588Y-52366784D01*
X192162761Y-52379962D01*
X192248063Y-52517807D01*
X192257099Y-52529208D01*
X192351983Y-52623927D01*
X192386062Y-52686210D01*
X192381059Y-52757030D01*
X192338562Y-52813902D01*
X192272063Y-52838771D01*
X192262965Y-52839100D01*
X191404162Y-52839100D01*
X191336648Y-52819485D01*
X191314017Y-52805123D01*
X191256666Y-52768727D01*
X191223817Y-52757030D01*
X191092425Y-52710243D01*
X191092420Y-52710242D01*
X191085790Y-52707881D01*
X191078802Y-52707048D01*
X191078799Y-52707047D01*
X190933371Y-52689706D01*
X190905680Y-52686404D01*
X190898677Y-52687140D01*
X190898676Y-52687140D01*
X190732288Y-52704628D01*
X190732286Y-52704629D01*
X190725288Y-52705364D01*
X190553579Y-52763818D01*
X190503136Y-52794851D01*
X190405095Y-52855166D01*
X190405092Y-52855168D01*
X190399088Y-52858862D01*
X190394053Y-52863793D01*
X190394050Y-52863795D01*
X190274525Y-52980843D01*
X190269493Y-52985771D01*
X190171235Y-53138238D01*
X190168826Y-53144858D01*
X190168824Y-53144861D01*
X190140406Y-53222939D01*
X190109197Y-53308685D01*
X190086463Y-53488640D01*
X187460900Y-53488640D01*
X187460900Y-52670056D01*
X187480902Y-52601935D01*
X187534558Y-52555442D01*
X187547023Y-52550533D01*
X187566993Y-52543870D01*
X187566995Y-52543869D01*
X187573946Y-52541550D01*
X187724348Y-52448478D01*
X187849305Y-52323303D01*
X187902294Y-52237339D01*
X187938275Y-52178968D01*
X187938276Y-52178966D01*
X187942115Y-52172738D01*
X187997797Y-52004861D01*
X188008500Y-51900400D01*
X188008500Y-51327885D01*
X192092000Y-51327885D01*
X192096475Y-51343124D01*
X192097865Y-51344329D01*
X192105548Y-51346000D01*
X192927885Y-51346000D01*
X192943124Y-51341525D01*
X192944329Y-51340135D01*
X192946000Y-51332452D01*
X192946000Y-50410116D01*
X192941525Y-50394877D01*
X192940135Y-50393672D01*
X192932452Y-50392001D01*
X192802905Y-50392001D01*
X192796386Y-50392338D01*
X192700794Y-50402257D01*
X192687400Y-50405149D01*
X192533216Y-50456588D01*
X192520038Y-50462761D01*
X192382193Y-50548063D01*
X192370792Y-50557099D01*
X192256261Y-50671829D01*
X192247249Y-50683240D01*
X192162184Y-50821243D01*
X192156037Y-50834424D01*
X192104862Y-50988710D01*
X192101995Y-51002086D01*
X192092328Y-51096438D01*
X192092000Y-51102855D01*
X192092000Y-51327885D01*
X188008500Y-51327885D01*
X188008500Y-51099600D01*
X188004923Y-51065121D01*
X187998238Y-51000692D01*
X187998237Y-51000688D01*
X187997526Y-50993834D01*
X187941550Y-50826054D01*
X187848478Y-50675652D01*
X187761891Y-50589216D01*
X187727812Y-50526934D01*
X187732815Y-50456114D01*
X187761736Y-50411025D01*
X187844134Y-50328483D01*
X187849305Y-50323303D01*
X187858316Y-50308685D01*
X187938275Y-50178968D01*
X187938276Y-50178966D01*
X187942115Y-50172738D01*
X187978707Y-50062415D01*
X187995632Y-50011389D01*
X187995632Y-50011387D01*
X187997797Y-50004861D01*
X187998732Y-49995741D01*
X188004019Y-49944130D01*
X188008500Y-49900400D01*
X188008500Y-49397095D01*
X192092001Y-49397095D01*
X192092338Y-49403614D01*
X192102257Y-49499206D01*
X192105149Y-49512600D01*
X192156588Y-49666784D01*
X192162761Y-49679962D01*
X192248063Y-49817807D01*
X192257099Y-49829208D01*
X192371829Y-49943739D01*
X192383240Y-49952751D01*
X192521243Y-50037816D01*
X192534424Y-50043963D01*
X192688710Y-50095138D01*
X192702086Y-50098005D01*
X192796438Y-50107672D01*
X192802854Y-50108000D01*
X192927885Y-50108000D01*
X192943124Y-50103525D01*
X192944329Y-50102135D01*
X192946000Y-50094452D01*
X192946000Y-49172115D01*
X192941525Y-49156876D01*
X192940135Y-49155671D01*
X192932452Y-49154000D01*
X192110116Y-49154000D01*
X192094877Y-49158475D01*
X192093672Y-49159865D01*
X192092001Y-49167548D01*
X192092001Y-49397095D01*
X188008500Y-49397095D01*
X188008500Y-49099600D01*
X188005524Y-49070915D01*
X187998238Y-49000692D01*
X187998237Y-49000688D01*
X187997526Y-48993834D01*
X187990411Y-48972506D01*
X187943868Y-48833002D01*
X187941550Y-48826054D01*
X187848478Y-48675652D01*
X187800628Y-48627885D01*
X192092000Y-48627885D01*
X192096475Y-48643124D01*
X192097865Y-48644329D01*
X192105548Y-48646000D01*
X192927885Y-48646000D01*
X192943124Y-48641525D01*
X192944329Y-48640135D01*
X192946000Y-48632452D01*
X192946000Y-47710116D01*
X192941525Y-47694877D01*
X192940135Y-47693672D01*
X192932452Y-47692001D01*
X192802905Y-47692001D01*
X192796386Y-47692338D01*
X192700794Y-47702257D01*
X192687400Y-47705149D01*
X192533216Y-47756588D01*
X192520038Y-47762761D01*
X192382193Y-47848063D01*
X192370792Y-47857099D01*
X192256261Y-47971829D01*
X192247249Y-47983240D01*
X192162184Y-48121243D01*
X192156037Y-48134424D01*
X192104862Y-48288710D01*
X192101995Y-48302086D01*
X192092328Y-48396438D01*
X192092000Y-48402855D01*
X192092000Y-48627885D01*
X187800628Y-48627885D01*
X187723303Y-48550695D01*
X187648394Y-48504520D01*
X187578968Y-48461725D01*
X187578966Y-48461724D01*
X187572738Y-48457885D01*
X187547230Y-48449424D01*
X187488872Y-48408993D01*
X187461636Y-48343429D01*
X187460900Y-48329832D01*
X187460900Y-47325944D01*
X187480902Y-47257823D01*
X187497805Y-47236849D01*
X187848047Y-46886607D01*
X187854313Y-46880753D01*
X187889025Y-46850472D01*
X187894752Y-46845476D01*
X187928882Y-46796913D01*
X187932814Y-46791618D01*
X187964777Y-46750855D01*
X187969463Y-46744879D01*
X187972589Y-46737955D01*
X187976302Y-46731824D01*
X187978938Y-46727204D01*
X187982360Y-46720822D01*
X187986731Y-46714603D01*
X188008299Y-46659286D01*
X188010855Y-46653205D01*
X188020137Y-46632648D01*
X188066399Y-46578794D01*
X188134973Y-46558500D01*
X188298134Y-46558500D01*
X188360316Y-46551745D01*
X188496705Y-46500615D01*
X188613261Y-46413261D01*
X188700615Y-46296705D01*
X188751745Y-46160316D01*
X188758500Y-46098134D01*
X188758500Y-44301866D01*
X188751745Y-44239684D01*
X188700615Y-44103295D01*
X188613261Y-43986739D01*
X188496705Y-43899385D01*
X188360316Y-43848255D01*
X188298134Y-43841500D01*
X188186900Y-43841500D01*
X188118779Y-43821498D01*
X188072286Y-43767842D01*
X188060900Y-43715500D01*
X188060900Y-42194669D01*
X197642001Y-42194669D01*
X197642371Y-42201490D01*
X197647895Y-42252352D01*
X197651521Y-42267604D01*
X197696676Y-42388054D01*
X197705214Y-42403649D01*
X197781715Y-42505724D01*
X197794276Y-42518285D01*
X197896351Y-42594786D01*
X197911946Y-42603324D01*
X198032394Y-42648478D01*
X198047649Y-42652105D01*
X198098514Y-42657631D01*
X198105328Y-42658000D01*
X198727885Y-42658000D01*
X198743124Y-42653525D01*
X198744329Y-42652135D01*
X198746000Y-42644452D01*
X198746000Y-41572115D01*
X198741525Y-41556876D01*
X198740135Y-41555671D01*
X198732452Y-41554000D01*
X197660116Y-41554000D01*
X197644877Y-41558475D01*
X197643672Y-41559865D01*
X197642001Y-41567548D01*
X197642001Y-42194669D01*
X188060900Y-42194669D01*
X188060900Y-41027885D01*
X197642000Y-41027885D01*
X197646475Y-41043124D01*
X197647865Y-41044329D01*
X197655548Y-41046000D01*
X198727885Y-41046000D01*
X198743124Y-41041525D01*
X198744329Y-41040135D01*
X198746000Y-41032452D01*
X198746000Y-39960116D01*
X198741525Y-39944877D01*
X198740135Y-39943672D01*
X198732452Y-39942001D01*
X198105331Y-39942001D01*
X198098510Y-39942371D01*
X198047648Y-39947895D01*
X198032396Y-39951521D01*
X197911946Y-39996676D01*
X197896351Y-40005214D01*
X197794276Y-40081715D01*
X197781715Y-40094276D01*
X197705214Y-40196351D01*
X197696676Y-40211946D01*
X197651522Y-40332394D01*
X197647895Y-40347649D01*
X197642369Y-40398514D01*
X197642000Y-40405328D01*
X197642000Y-41027885D01*
X188060900Y-41027885D01*
X188060900Y-37225944D01*
X188070083Y-37194669D01*
X197642001Y-37194669D01*
X197642371Y-37201490D01*
X197647895Y-37252352D01*
X197651521Y-37267604D01*
X197696676Y-37388054D01*
X197705214Y-37403649D01*
X197781715Y-37505724D01*
X197794276Y-37518285D01*
X197896351Y-37594786D01*
X197911946Y-37603324D01*
X198032394Y-37648478D01*
X198047649Y-37652105D01*
X198098514Y-37657631D01*
X198105328Y-37658000D01*
X198727885Y-37658000D01*
X198743124Y-37653525D01*
X198744329Y-37652135D01*
X198746000Y-37644452D01*
X198746000Y-36572115D01*
X198741525Y-36556876D01*
X198740135Y-36555671D01*
X198732452Y-36554000D01*
X197660116Y-36554000D01*
X197644877Y-36558475D01*
X197643672Y-36559865D01*
X197642001Y-36567548D01*
X197642001Y-37194669D01*
X188070083Y-37194669D01*
X188080902Y-37157823D01*
X188097805Y-37136849D01*
X189736848Y-35497805D01*
X189799160Y-35463780D01*
X189825943Y-35460900D01*
X197516000Y-35460900D01*
X197584121Y-35480902D01*
X197630614Y-35534558D01*
X197642000Y-35586900D01*
X197642000Y-36027885D01*
X197646475Y-36043124D01*
X197647865Y-36044329D01*
X197655548Y-36046000D01*
X199128000Y-36046000D01*
X199196121Y-36066002D01*
X199242614Y-36119658D01*
X199254000Y-36172000D01*
X199254000Y-37639884D01*
X199258475Y-37655123D01*
X199259865Y-37656328D01*
X199267548Y-37657999D01*
X199894669Y-37657999D01*
X199901490Y-37657629D01*
X199952352Y-37652105D01*
X199967604Y-37648479D01*
X200088054Y-37603324D01*
X200103649Y-37594786D01*
X200205724Y-37518285D01*
X200218285Y-37505724D01*
X200294786Y-37403649D01*
X200303324Y-37388054D01*
X200344225Y-37278952D01*
X200386867Y-37222188D01*
X200453428Y-37197488D01*
X200522777Y-37212696D01*
X200557444Y-37240684D01*
X200582865Y-37270031D01*
X200582869Y-37270035D01*
X200586250Y-37273938D01*
X200693969Y-37363368D01*
X200750532Y-37410327D01*
X200758126Y-37416632D01*
X200951000Y-37529338D01*
X201159692Y-37609030D01*
X201164760Y-37610061D01*
X201164763Y-37610062D01*
X201272017Y-37631883D01*
X201378597Y-37653567D01*
X201383772Y-37653757D01*
X201383774Y-37653757D01*
X201596673Y-37661564D01*
X201596677Y-37661564D01*
X201601837Y-37661753D01*
X201606957Y-37661097D01*
X201606959Y-37661097D01*
X201818288Y-37634025D01*
X201818289Y-37634025D01*
X201823416Y-37633368D01*
X201828366Y-37631883D01*
X202032429Y-37570661D01*
X202032434Y-37570659D01*
X202037384Y-37569174D01*
X202237994Y-37470896D01*
X202419860Y-37341173D01*
X202435143Y-37325944D01*
X202524549Y-37236849D01*
X202578096Y-37183489D01*
X202660405Y-37068944D01*
X202708453Y-37002077D01*
X202709776Y-37003028D01*
X202756645Y-36959857D01*
X202826580Y-36947625D01*
X202892026Y-36975144D01*
X202919875Y-37006994D01*
X202979987Y-37105088D01*
X203126250Y-37273938D01*
X203233969Y-37363368D01*
X203290532Y-37410327D01*
X203298126Y-37416632D01*
X203491000Y-37529338D01*
X203699692Y-37609030D01*
X203704760Y-37610061D01*
X203704763Y-37610062D01*
X203812017Y-37631883D01*
X203918597Y-37653567D01*
X203923772Y-37653757D01*
X203923774Y-37653757D01*
X204136673Y-37661564D01*
X204136677Y-37661564D01*
X204141837Y-37661753D01*
X204146957Y-37661097D01*
X204146959Y-37661097D01*
X204358288Y-37634025D01*
X204358289Y-37634025D01*
X204363416Y-37633368D01*
X204368366Y-37631883D01*
X204572429Y-37570661D01*
X204572434Y-37570659D01*
X204577384Y-37569174D01*
X204777994Y-37470896D01*
X204959860Y-37341173D01*
X204975143Y-37325944D01*
X205064549Y-37236849D01*
X205118096Y-37183489D01*
X205200405Y-37068944D01*
X205248453Y-37002077D01*
X205249776Y-37003028D01*
X205296645Y-36959857D01*
X205366580Y-36947625D01*
X205432026Y-36975144D01*
X205459875Y-37006994D01*
X205519987Y-37105088D01*
X205666250Y-37273938D01*
X205773969Y-37363368D01*
X205830532Y-37410327D01*
X205838126Y-37416632D01*
X206031000Y-37529338D01*
X206239692Y-37609030D01*
X206244760Y-37610061D01*
X206244763Y-37610062D01*
X206352017Y-37631883D01*
X206458597Y-37653567D01*
X206463772Y-37653757D01*
X206463774Y-37653757D01*
X206676673Y-37661564D01*
X206676677Y-37661564D01*
X206681837Y-37661753D01*
X206686957Y-37661097D01*
X206686959Y-37661097D01*
X206898288Y-37634025D01*
X206898289Y-37634025D01*
X206903416Y-37633368D01*
X206908366Y-37631883D01*
X207112429Y-37570661D01*
X207112434Y-37570659D01*
X207117384Y-37569174D01*
X207317994Y-37470896D01*
X207499860Y-37341173D01*
X207515143Y-37325944D01*
X207604549Y-37236849D01*
X207658096Y-37183489D01*
X207780336Y-37013373D01*
X207836330Y-36969726D01*
X207882658Y-36960900D01*
X211418615Y-36960900D01*
X211486736Y-36980902D01*
X211507710Y-36997805D01*
X211649423Y-37139518D01*
X211683449Y-37201830D01*
X211678384Y-37272645D01*
X211666242Y-37296863D01*
X211582198Y-37427275D01*
X211579789Y-37433895D01*
X211579787Y-37433898D01*
X211549073Y-37518285D01*
X211520160Y-37597722D01*
X211497426Y-37777677D01*
X211515126Y-37958197D01*
X211572381Y-38130310D01*
X211666343Y-38285461D01*
X211671232Y-38290524D01*
X211671233Y-38290525D01*
X211692558Y-38312607D01*
X211792345Y-38415939D01*
X211944122Y-38515259D01*
X212043651Y-38552274D01*
X212057021Y-38557246D01*
X212113897Y-38599739D01*
X212138770Y-38666235D01*
X212139100Y-38675343D01*
X212139100Y-43275981D01*
X212119098Y-43344102D01*
X212065442Y-43390595D01*
X211995168Y-43400699D01*
X211967326Y-43393372D01*
X211956883Y-43389300D01*
X211950807Y-43386746D01*
X211944995Y-43384122D01*
X211896688Y-43362311D01*
X211889212Y-43360925D01*
X211882334Y-43358770D01*
X211877209Y-43357310D01*
X211870245Y-43355522D01*
X211863166Y-43352762D01*
X211855634Y-43351770D01*
X211855632Y-43351770D01*
X211830404Y-43348449D01*
X211804300Y-43345013D01*
X211797802Y-43343984D01*
X211739403Y-43333160D01*
X211731823Y-43333597D01*
X211731822Y-43333597D01*
X211681633Y-43336491D01*
X211674380Y-43336700D01*
X210729932Y-43336700D01*
X210661811Y-43316698D01*
X210615318Y-43263042D01*
X210605214Y-43192768D01*
X210611950Y-43166471D01*
X210648971Y-43067718D01*
X210648973Y-43067712D01*
X210651745Y-43060316D01*
X210658500Y-42998134D01*
X210658500Y-41201866D01*
X210651745Y-41139684D01*
X210600615Y-41003295D01*
X210513261Y-40886739D01*
X210396705Y-40799385D01*
X210260316Y-40748255D01*
X210198134Y-40741500D01*
X208401866Y-40741500D01*
X208339684Y-40748255D01*
X208203295Y-40799385D01*
X208121480Y-40860702D01*
X208089856Y-40884403D01*
X208023350Y-40909251D01*
X207953967Y-40894198D01*
X207903737Y-40844024D01*
X207898749Y-40833835D01*
X207821354Y-40655840D01*
X207700014Y-40468277D01*
X207549670Y-40303051D01*
X207545619Y-40299852D01*
X207545615Y-40299848D01*
X207378414Y-40167800D01*
X207378410Y-40167798D01*
X207374359Y-40164598D01*
X207359257Y-40156261D01*
X207322136Y-40135769D01*
X207178789Y-40056638D01*
X207173920Y-40054914D01*
X207173916Y-40054912D01*
X206973087Y-39983795D01*
X206973083Y-39983794D01*
X206968212Y-39982069D01*
X206963119Y-39981162D01*
X206963116Y-39981161D01*
X206753373Y-39943800D01*
X206753367Y-39943799D01*
X206748284Y-39942894D01*
X206674452Y-39941992D01*
X206530081Y-39940228D01*
X206530079Y-39940228D01*
X206524911Y-39940165D01*
X206304091Y-39973955D01*
X206091756Y-40043357D01*
X205893607Y-40146507D01*
X205889474Y-40149610D01*
X205889471Y-40149612D01*
X205719100Y-40277530D01*
X205714965Y-40280635D01*
X205560629Y-40442138D01*
X205453201Y-40599621D01*
X205398293Y-40644621D01*
X205327768Y-40652792D01*
X205264021Y-40621538D01*
X205243324Y-40597054D01*
X205162822Y-40472617D01*
X205162820Y-40472614D01*
X205160014Y-40468277D01*
X205009670Y-40303051D01*
X205005619Y-40299852D01*
X205005615Y-40299848D01*
X204838414Y-40167800D01*
X204838410Y-40167798D01*
X204834359Y-40164598D01*
X204819257Y-40156261D01*
X204782136Y-40135769D01*
X204638789Y-40056638D01*
X204633920Y-40054914D01*
X204633916Y-40054912D01*
X204433087Y-39983795D01*
X204433083Y-39983794D01*
X204428212Y-39982069D01*
X204423119Y-39981162D01*
X204423116Y-39981161D01*
X204213373Y-39943800D01*
X204213367Y-39943799D01*
X204208284Y-39942894D01*
X204134452Y-39941992D01*
X203990081Y-39940228D01*
X203990079Y-39940228D01*
X203984911Y-39940165D01*
X203764091Y-39973955D01*
X203551756Y-40043357D01*
X203353607Y-40146507D01*
X203349474Y-40149610D01*
X203349471Y-40149612D01*
X203179100Y-40277530D01*
X203174965Y-40280635D01*
X203020629Y-40442138D01*
X202913201Y-40599621D01*
X202858293Y-40644621D01*
X202787768Y-40652792D01*
X202724021Y-40621538D01*
X202703324Y-40597054D01*
X202622822Y-40472617D01*
X202622820Y-40472614D01*
X202620014Y-40468277D01*
X202469670Y-40303051D01*
X202465619Y-40299852D01*
X202465615Y-40299848D01*
X202298414Y-40167800D01*
X202298410Y-40167798D01*
X202294359Y-40164598D01*
X202279257Y-40156261D01*
X202242136Y-40135769D01*
X202098789Y-40056638D01*
X202093920Y-40054914D01*
X202093916Y-40054912D01*
X201893087Y-39983795D01*
X201893083Y-39983794D01*
X201888212Y-39982069D01*
X201883119Y-39981162D01*
X201883116Y-39981161D01*
X201673373Y-39943800D01*
X201673367Y-39943799D01*
X201668284Y-39942894D01*
X201594452Y-39941992D01*
X201450081Y-39940228D01*
X201450079Y-39940228D01*
X201444911Y-39940165D01*
X201224091Y-39973955D01*
X201011756Y-40043357D01*
X200813607Y-40146507D01*
X200809474Y-40149610D01*
X200809471Y-40149612D01*
X200639100Y-40277530D01*
X200634965Y-40280635D01*
X200631393Y-40284373D01*
X200553898Y-40365466D01*
X200492374Y-40400895D01*
X200421462Y-40397438D01*
X200363676Y-40356192D01*
X200344823Y-40322644D01*
X200303324Y-40211946D01*
X200294786Y-40196351D01*
X200218285Y-40094276D01*
X200205724Y-40081715D01*
X200103649Y-40005214D01*
X200088054Y-39996676D01*
X199967606Y-39951522D01*
X199952351Y-39947895D01*
X199901486Y-39942369D01*
X199894672Y-39942000D01*
X199272115Y-39942000D01*
X199256876Y-39946475D01*
X199255671Y-39947865D01*
X199254000Y-39955548D01*
X199254000Y-42639884D01*
X199258475Y-42655123D01*
X199259865Y-42656328D01*
X199267548Y-42657999D01*
X199894669Y-42657999D01*
X199901490Y-42657629D01*
X199952352Y-42652105D01*
X199967604Y-42648479D01*
X200088054Y-42603324D01*
X200103649Y-42594786D01*
X200205724Y-42518285D01*
X200218285Y-42505724D01*
X200294786Y-42403649D01*
X200303324Y-42388054D01*
X200344225Y-42278952D01*
X200386867Y-42222188D01*
X200453428Y-42197488D01*
X200522777Y-42212696D01*
X200557444Y-42240684D01*
X200582865Y-42270031D01*
X200582869Y-42270035D01*
X200586250Y-42273938D01*
X200758126Y-42416632D01*
X200951000Y-42529338D01*
X201159692Y-42609030D01*
X201164760Y-42610061D01*
X201164763Y-42610062D01*
X201250622Y-42627530D01*
X201378597Y-42653567D01*
X201383772Y-42653757D01*
X201383774Y-42653757D01*
X201596673Y-42661564D01*
X201596677Y-42661564D01*
X201601837Y-42661753D01*
X201606957Y-42661097D01*
X201606959Y-42661097D01*
X201818288Y-42634025D01*
X201818289Y-42634025D01*
X201823416Y-42633368D01*
X201828366Y-42631883D01*
X202032429Y-42570661D01*
X202032434Y-42570659D01*
X202037384Y-42569174D01*
X202237994Y-42470896D01*
X202419860Y-42341173D01*
X202452648Y-42308500D01*
X202534802Y-42226632D01*
X202578096Y-42183489D01*
X202600184Y-42152751D01*
X202708453Y-42002077D01*
X202709776Y-42003028D01*
X202756645Y-41959857D01*
X202826580Y-41947625D01*
X202892026Y-41975144D01*
X202919875Y-42006994D01*
X202979987Y-42105088D01*
X203126250Y-42273938D01*
X203298126Y-42416632D01*
X203491000Y-42529338D01*
X203699692Y-42609030D01*
X203704760Y-42610061D01*
X203704763Y-42610062D01*
X203790622Y-42627530D01*
X203918597Y-42653567D01*
X203923772Y-42653757D01*
X203923774Y-42653757D01*
X204136673Y-42661564D01*
X204136677Y-42661564D01*
X204141837Y-42661753D01*
X204146957Y-42661097D01*
X204146959Y-42661097D01*
X204358288Y-42634025D01*
X204358289Y-42634025D01*
X204363416Y-42633368D01*
X204368366Y-42631883D01*
X204572429Y-42570661D01*
X204572434Y-42570659D01*
X204577384Y-42569174D01*
X204777994Y-42470896D01*
X204959860Y-42341173D01*
X204992648Y-42308500D01*
X205074802Y-42226632D01*
X205118096Y-42183489D01*
X205140184Y-42152751D01*
X205248453Y-42002077D01*
X205249776Y-42003028D01*
X205296645Y-41959857D01*
X205366580Y-41947625D01*
X205432026Y-41975144D01*
X205459875Y-42006994D01*
X205519987Y-42105088D01*
X205666250Y-42273938D01*
X205838126Y-42416632D01*
X206031000Y-42529338D01*
X206239692Y-42609030D01*
X206244760Y-42610061D01*
X206244763Y-42610062D01*
X206330622Y-42627530D01*
X206458597Y-42653567D01*
X206463772Y-42653757D01*
X206463774Y-42653757D01*
X206676673Y-42661564D01*
X206676677Y-42661564D01*
X206681837Y-42661753D01*
X206686957Y-42661097D01*
X206686959Y-42661097D01*
X206898288Y-42634025D01*
X206898289Y-42634025D01*
X206903416Y-42633368D01*
X206908366Y-42631883D01*
X207112429Y-42570661D01*
X207112434Y-42570659D01*
X207117384Y-42569174D01*
X207317994Y-42470896D01*
X207499860Y-42341173D01*
X207532648Y-42308500D01*
X207614802Y-42226632D01*
X207658096Y-42183489D01*
X207713177Y-42106835D01*
X207769172Y-42063187D01*
X207839875Y-42056741D01*
X207902839Y-42089543D01*
X207938074Y-42151180D01*
X207941500Y-42180361D01*
X207941500Y-42998134D01*
X207948255Y-43060316D01*
X207951027Y-43067712D01*
X207951029Y-43067718D01*
X207988050Y-43166471D01*
X207993233Y-43237278D01*
X207959312Y-43299647D01*
X207897056Y-43333776D01*
X207870068Y-43336700D01*
X206129652Y-43336700D01*
X206121082Y-43336408D01*
X206075132Y-43333275D01*
X206075128Y-43333275D01*
X206067556Y-43332759D01*
X206060079Y-43334064D01*
X206060077Y-43334064D01*
X206023900Y-43340378D01*
X206009062Y-43342968D01*
X206002544Y-43343929D01*
X205989453Y-43345514D01*
X205951137Y-43350150D01*
X205951134Y-43350151D01*
X205943595Y-43351063D01*
X205936487Y-43353749D01*
X205929521Y-43355460D01*
X205924332Y-43356879D01*
X205917453Y-43358956D01*
X205909976Y-43360261D01*
X205903024Y-43363313D01*
X205903023Y-43363313D01*
X205855620Y-43384122D01*
X205849516Y-43386613D01*
X205842405Y-43389300D01*
X205801064Y-43404921D01*
X205801062Y-43404922D01*
X205793959Y-43407606D01*
X205787702Y-43411906D01*
X205781325Y-43415240D01*
X205776655Y-43417840D01*
X205770458Y-43421505D01*
X205763503Y-43424558D01*
X205757479Y-43429180D01*
X205757478Y-43429181D01*
X205716395Y-43460706D01*
X205711058Y-43464583D01*
X205682715Y-43484063D01*
X205638402Y-43503285D01*
X205632295Y-43504628D01*
X205625288Y-43505364D01*
X205618621Y-43507633D01*
X205618619Y-43507634D01*
X205560962Y-43527262D01*
X205453579Y-43563818D01*
X205447575Y-43567512D01*
X205305095Y-43655166D01*
X205305092Y-43655168D01*
X205299088Y-43658862D01*
X205294053Y-43663793D01*
X205294050Y-43663795D01*
X205243559Y-43713240D01*
X205169493Y-43785771D01*
X205071235Y-43938238D01*
X205068826Y-43944858D01*
X205068824Y-43944861D01*
X205029612Y-44052596D01*
X205009197Y-44108685D01*
X204986463Y-44288640D01*
X205004163Y-44469160D01*
X205061418Y-44641273D01*
X205065065Y-44647295D01*
X205065066Y-44647297D01*
X205148159Y-44784500D01*
X205155380Y-44796424D01*
X205160269Y-44801487D01*
X205160270Y-44801488D01*
X205179012Y-44820896D01*
X205281382Y-44926902D01*
X205310567Y-44946000D01*
X205410046Y-45011097D01*
X205433159Y-45026222D01*
X205439763Y-45028678D01*
X205439765Y-45028679D01*
X205596558Y-45086990D01*
X205596560Y-45086990D01*
X205603168Y-45089448D01*
X205686995Y-45100633D01*
X205775980Y-45112507D01*
X205775984Y-45112507D01*
X205782961Y-45113438D01*
X205789972Y-45112800D01*
X205789976Y-45112800D01*
X205932459Y-45099832D01*
X205963600Y-45096998D01*
X205970302Y-45094820D01*
X205970304Y-45094820D01*
X206129409Y-45043124D01*
X206129412Y-45043123D01*
X206136108Y-45040947D01*
X206240079Y-44978968D01*
X206285860Y-44951677D01*
X206285862Y-44951676D01*
X206291912Y-44948069D01*
X206423266Y-44822982D01*
X206427167Y-44817111D01*
X206495160Y-44714773D01*
X206549518Y-44669102D01*
X206600108Y-44658500D01*
X207816000Y-44658500D01*
X207884121Y-44678502D01*
X207930614Y-44732158D01*
X207942000Y-44784500D01*
X207942000Y-44927885D01*
X207946475Y-44943124D01*
X207947865Y-44944329D01*
X207955548Y-44946000D01*
X210639884Y-44946000D01*
X210655123Y-44941525D01*
X210656328Y-44940135D01*
X210657999Y-44932452D01*
X210657999Y-44784500D01*
X210678001Y-44716379D01*
X210731657Y-44669886D01*
X210783999Y-44658500D01*
X211213100Y-44658500D01*
X211281221Y-44678502D01*
X211327714Y-44732158D01*
X211339100Y-44784500D01*
X211339100Y-48538002D01*
X211338808Y-48546573D01*
X211335158Y-48600108D01*
X211342666Y-48643124D01*
X211345368Y-48658608D01*
X211346330Y-48665130D01*
X211353463Y-48724070D01*
X211356149Y-48731178D01*
X211357860Y-48738144D01*
X211359279Y-48743333D01*
X211361356Y-48750212D01*
X211362661Y-48757689D01*
X211386529Y-48812060D01*
X211389012Y-48818146D01*
X211410006Y-48873706D01*
X211414309Y-48879967D01*
X211417615Y-48886291D01*
X211420271Y-48891063D01*
X211423906Y-48897209D01*
X211426958Y-48904161D01*
X211431580Y-48910184D01*
X211463102Y-48951266D01*
X211466973Y-48956593D01*
X211500611Y-49005536D01*
X211506287Y-49010593D01*
X211543819Y-49044033D01*
X211549095Y-49049014D01*
X211797806Y-49297725D01*
X211831119Y-49359077D01*
X211831369Y-49361631D01*
X211888624Y-49533744D01*
X211892271Y-49539766D01*
X211892272Y-49539768D01*
X211973533Y-49673946D01*
X211982586Y-49688895D01*
X211987475Y-49693958D01*
X211987476Y-49693959D01*
X212056231Y-49765156D01*
X212108588Y-49819373D01*
X212128590Y-49832462D01*
X212224718Y-49895366D01*
X212260365Y-49918693D01*
X212266969Y-49921149D01*
X212266971Y-49921150D01*
X212423764Y-49979461D01*
X212423766Y-49979461D01*
X212430374Y-49981919D01*
X212514201Y-49993104D01*
X212603186Y-50004978D01*
X212603190Y-50004978D01*
X212610167Y-50005909D01*
X212617178Y-50005271D01*
X212617182Y-50005271D01*
X212759665Y-49992303D01*
X212790806Y-49989469D01*
X212798026Y-49987123D01*
X212798376Y-49987113D01*
X212804407Y-49985875D01*
X212804624Y-49986934D01*
X212868992Y-49985095D01*
X212929791Y-50021757D01*
X212954827Y-50062415D01*
X212964236Y-50087316D01*
X212968888Y-50102436D01*
X212974227Y-50124677D01*
X212974229Y-50124683D01*
X212976001Y-50132063D01*
X212991876Y-50162819D01*
X212997767Y-50176052D01*
X213010006Y-50208441D01*
X213014305Y-50214696D01*
X213014306Y-50214698D01*
X213027268Y-50233557D01*
X213035395Y-50247138D01*
X213045879Y-50267451D01*
X213045883Y-50267457D01*
X213049368Y-50274209D01*
X213054365Y-50279937D01*
X213072120Y-50300290D01*
X213081009Y-50311749D01*
X213100611Y-50340271D01*
X213106281Y-50345322D01*
X213106282Y-50345324D01*
X213123364Y-50360543D01*
X213134494Y-50371791D01*
X213154524Y-50394752D01*
X213182844Y-50414656D01*
X213194205Y-50423661D01*
X213220045Y-50446683D01*
X213242269Y-50458450D01*
X213246977Y-50460943D01*
X213260466Y-50469209D01*
X213285397Y-50486731D01*
X213292473Y-50489490D01*
X213292475Y-50489491D01*
X213317637Y-50499301D01*
X213330826Y-50505339D01*
X213354702Y-50517981D01*
X213354704Y-50517982D01*
X213361415Y-50521535D01*
X213368783Y-50523386D01*
X213373692Y-50525270D01*
X213397530Y-50537469D01*
X213426924Y-50556704D01*
X213523382Y-50619824D01*
X213533159Y-50626222D01*
X213539763Y-50628678D01*
X213539765Y-50628679D01*
X213696558Y-50686990D01*
X213696560Y-50686990D01*
X213703168Y-50689448D01*
X213750176Y-50695720D01*
X213782165Y-50699989D01*
X213847042Y-50728825D01*
X213886030Y-50788159D01*
X213891500Y-50824882D01*
X213891500Y-50848613D01*
X213871498Y-50916734D01*
X213825270Y-50957184D01*
X213826054Y-50958450D01*
X213675652Y-51051522D01*
X213550695Y-51176697D01*
X213546855Y-51182927D01*
X213546854Y-51182928D01*
X213462519Y-51319745D01*
X213457885Y-51327262D01*
X213402203Y-51495139D01*
X213401503Y-51501975D01*
X213401502Y-51501978D01*
X213397091Y-51545031D01*
X213391500Y-51599600D01*
X213391500Y-52365500D01*
X213371498Y-52433621D01*
X213317842Y-52480114D01*
X213265500Y-52491500D01*
X213078345Y-52491500D01*
X213010224Y-52471498D01*
X212989250Y-52454596D01*
X212697805Y-52163152D01*
X212663780Y-52100839D01*
X212660900Y-52074056D01*
X212660900Y-52004379D01*
X212681952Y-51934652D01*
X212688781Y-51924373D01*
X212723643Y-51871902D01*
X212788055Y-51702338D01*
X212796180Y-51644525D01*
X212812748Y-51526639D01*
X212812748Y-51526636D01*
X212813299Y-51522717D01*
X212813616Y-51500000D01*
X212793397Y-51319745D01*
X212782042Y-51287137D01*
X212736064Y-51155106D01*
X212736062Y-51155103D01*
X212733745Y-51148448D01*
X212707394Y-51106277D01*
X212641359Y-51000598D01*
X212637626Y-50994624D01*
X212601704Y-50958450D01*
X212514778Y-50870915D01*
X212514774Y-50870912D01*
X212509815Y-50865918D01*
X212498697Y-50858862D01*
X212423733Y-50811289D01*
X212356666Y-50768727D01*
X212327463Y-50758328D01*
X212192425Y-50710243D01*
X212192420Y-50710242D01*
X212185790Y-50707881D01*
X212178802Y-50707048D01*
X212178799Y-50707047D01*
X212039023Y-50690380D01*
X212005680Y-50686404D01*
X211998677Y-50687140D01*
X211998676Y-50687140D01*
X211832288Y-50704628D01*
X211832286Y-50704629D01*
X211825288Y-50705364D01*
X211653579Y-50763818D01*
X211591109Y-50802250D01*
X211505095Y-50855166D01*
X211505092Y-50855168D01*
X211499088Y-50858862D01*
X211494053Y-50863793D01*
X211494050Y-50863795D01*
X211440700Y-50916040D01*
X211378035Y-50949411D01*
X211307276Y-50943605D01*
X211250889Y-50900466D01*
X211227215Y-50839022D01*
X211223238Y-50800692D01*
X211223237Y-50800688D01*
X211222526Y-50793834D01*
X211215411Y-50772506D01*
X211168868Y-50633002D01*
X211166550Y-50626054D01*
X211073478Y-50475652D01*
X210948303Y-50350695D01*
X210931392Y-50340271D01*
X210803968Y-50261725D01*
X210803966Y-50261724D01*
X210797738Y-50257885D01*
X210692508Y-50222982D01*
X210636389Y-50204368D01*
X210636387Y-50204368D01*
X210629861Y-50202203D01*
X210623025Y-50201503D01*
X210623022Y-50201502D01*
X210573458Y-50196424D01*
X210525400Y-50191500D01*
X209599600Y-50191500D01*
X209596354Y-50191837D01*
X209596350Y-50191837D01*
X209547305Y-50196926D01*
X209477483Y-50184061D01*
X209427447Y-50138368D01*
X209380046Y-50062510D01*
X209360900Y-49995741D01*
X209360900Y-49827252D01*
X209361192Y-49818682D01*
X209364325Y-49772732D01*
X209364325Y-49772728D01*
X209364841Y-49765156D01*
X209362457Y-49751492D01*
X209355704Y-49712800D01*
X209354632Y-49706662D01*
X209353670Y-49700140D01*
X209347450Y-49648737D01*
X209347449Y-49648734D01*
X209346537Y-49641195D01*
X209343851Y-49634087D01*
X209342140Y-49627121D01*
X209340721Y-49621932D01*
X209338644Y-49615053D01*
X209337339Y-49607576D01*
X209334014Y-49600000D01*
X209313478Y-49553220D01*
X209310985Y-49547111D01*
X209292679Y-49498664D01*
X209292678Y-49498662D01*
X209289994Y-49491559D01*
X209285694Y-49485302D01*
X209282360Y-49478925D01*
X209279760Y-49474255D01*
X209276095Y-49468058D01*
X209273042Y-49461103D01*
X209236894Y-49413995D01*
X209233016Y-49408657D01*
X209203691Y-49365988D01*
X209203689Y-49365986D01*
X209199389Y-49359729D01*
X209193302Y-49354305D01*
X209156181Y-49321232D01*
X209150905Y-49316251D01*
X208224894Y-48390240D01*
X207297805Y-47463152D01*
X207263780Y-47400840D01*
X207260900Y-47374057D01*
X207260900Y-46804379D01*
X207281952Y-46734652D01*
X207285760Y-46728921D01*
X207323643Y-46671902D01*
X207370341Y-46548971D01*
X207385555Y-46508920D01*
X207385556Y-46508918D01*
X207388055Y-46502338D01*
X207389054Y-46495229D01*
X207412748Y-46326639D01*
X207412748Y-46326636D01*
X207413299Y-46322717D01*
X207413616Y-46300000D01*
X207393397Y-46119745D01*
X207391080Y-46113091D01*
X207384665Y-46094669D01*
X207942001Y-46094669D01*
X207942371Y-46101490D01*
X207947895Y-46152352D01*
X207951521Y-46167604D01*
X207996676Y-46288054D01*
X208005214Y-46303649D01*
X208081715Y-46405724D01*
X208094276Y-46418285D01*
X208196351Y-46494786D01*
X208211946Y-46503324D01*
X208332394Y-46548478D01*
X208347649Y-46552105D01*
X208398514Y-46557631D01*
X208405328Y-46558000D01*
X209027885Y-46558000D01*
X209043124Y-46553525D01*
X209044329Y-46552135D01*
X209046000Y-46544452D01*
X209046000Y-46539884D01*
X209554000Y-46539884D01*
X209558475Y-46555123D01*
X209559865Y-46556328D01*
X209567548Y-46557999D01*
X210194669Y-46557999D01*
X210201490Y-46557629D01*
X210252352Y-46552105D01*
X210267604Y-46548479D01*
X210388054Y-46503324D01*
X210403649Y-46494786D01*
X210505724Y-46418285D01*
X210518285Y-46405724D01*
X210594786Y-46303649D01*
X210603324Y-46288054D01*
X210648478Y-46167606D01*
X210652105Y-46152351D01*
X210657631Y-46101486D01*
X210658000Y-46094672D01*
X210658000Y-45472115D01*
X210653525Y-45456876D01*
X210652135Y-45455671D01*
X210644452Y-45454000D01*
X209572115Y-45454000D01*
X209556876Y-45458475D01*
X209555671Y-45459865D01*
X209554000Y-45467548D01*
X209554000Y-46539884D01*
X209046000Y-46539884D01*
X209046000Y-45472115D01*
X209041525Y-45456876D01*
X209040135Y-45455671D01*
X209032452Y-45454000D01*
X207960116Y-45454000D01*
X207944877Y-45458475D01*
X207943672Y-45459865D01*
X207942001Y-45467548D01*
X207942001Y-46094669D01*
X207384665Y-46094669D01*
X207336064Y-45955106D01*
X207336062Y-45955103D01*
X207333745Y-45948448D01*
X207284233Y-45869212D01*
X207241359Y-45800598D01*
X207237626Y-45794624D01*
X207223941Y-45780843D01*
X207114778Y-45670915D01*
X207114774Y-45670912D01*
X207109815Y-45665918D01*
X207102928Y-45661547D01*
X207050538Y-45628300D01*
X206956666Y-45568727D01*
X206927463Y-45558328D01*
X206792425Y-45510243D01*
X206792420Y-45510242D01*
X206785790Y-45507881D01*
X206778802Y-45507048D01*
X206778799Y-45507047D01*
X206655698Y-45492368D01*
X206605680Y-45486404D01*
X206598677Y-45487140D01*
X206598676Y-45487140D01*
X206432288Y-45504628D01*
X206432286Y-45504629D01*
X206425288Y-45505364D01*
X206253579Y-45563818D01*
X206165946Y-45617731D01*
X206097447Y-45636388D01*
X206032412Y-45616797D01*
X205962620Y-45572505D01*
X205962616Y-45572503D01*
X205956666Y-45568727D01*
X205927463Y-45558328D01*
X205792425Y-45510243D01*
X205792420Y-45510242D01*
X205785790Y-45507881D01*
X205778802Y-45507048D01*
X205778799Y-45507047D01*
X205655698Y-45492368D01*
X205605680Y-45486404D01*
X205598677Y-45487140D01*
X205598676Y-45487140D01*
X205432288Y-45504628D01*
X205432286Y-45504629D01*
X205425288Y-45505364D01*
X205253579Y-45563818D01*
X205247575Y-45567512D01*
X205105095Y-45655166D01*
X205105092Y-45655168D01*
X205099088Y-45658862D01*
X205094053Y-45663793D01*
X205094050Y-45663795D01*
X204974525Y-45780843D01*
X204969493Y-45785771D01*
X204871235Y-45938238D01*
X204868826Y-45944858D01*
X204868824Y-45944861D01*
X204834838Y-46038238D01*
X204809197Y-46108685D01*
X204786463Y-46288640D01*
X204804163Y-46469160D01*
X204861418Y-46641273D01*
X204865065Y-46647295D01*
X204865066Y-46647297D01*
X204875978Y-46665314D01*
X204917933Y-46734590D01*
X204920876Y-46739450D01*
X204939100Y-46804721D01*
X204939100Y-48191110D01*
X204919098Y-48259231D01*
X204865442Y-48305724D01*
X204795168Y-48315828D01*
X204730588Y-48286334D01*
X204723695Y-48279895D01*
X204714778Y-48270916D01*
X204709815Y-48265918D01*
X204667557Y-48239100D01*
X204591936Y-48191110D01*
X204556666Y-48168727D01*
X204527463Y-48158328D01*
X204392425Y-48110243D01*
X204392420Y-48110242D01*
X204385790Y-48107881D01*
X204378802Y-48107048D01*
X204378799Y-48107047D01*
X204255698Y-48092368D01*
X204205680Y-48086404D01*
X204198677Y-48087140D01*
X204198676Y-48087140D01*
X204032288Y-48104628D01*
X204032286Y-48104629D01*
X204025288Y-48105364D01*
X203944101Y-48133002D01*
X203860249Y-48161547D01*
X203860246Y-48161548D01*
X203853579Y-48163818D01*
X203847576Y-48167511D01*
X203847572Y-48167513D01*
X203761578Y-48220417D01*
X203695556Y-48239100D01*
X201125944Y-48239100D01*
X201057823Y-48219098D01*
X201036849Y-48202195D01*
X199898132Y-47063479D01*
X199898129Y-47063475D01*
X198786614Y-45951961D01*
X198780760Y-45945695D01*
X198745476Y-45905248D01*
X198696898Y-45871107D01*
X198691604Y-45867175D01*
X198650855Y-45835223D01*
X198650856Y-45835223D01*
X198644879Y-45830537D01*
X198637955Y-45827411D01*
X198631824Y-45823698D01*
X198627204Y-45821062D01*
X198620822Y-45817640D01*
X198614603Y-45813269D01*
X198559286Y-45791701D01*
X198553207Y-45789146D01*
X198534817Y-45780843D01*
X198499088Y-45764711D01*
X198491612Y-45763325D01*
X198484734Y-45761170D01*
X198479609Y-45759710D01*
X198472645Y-45757922D01*
X198465566Y-45755162D01*
X198458034Y-45754170D01*
X198458032Y-45754170D01*
X198432804Y-45750849D01*
X198406700Y-45747413D01*
X198400178Y-45746380D01*
X198399218Y-45746202D01*
X198394254Y-45745281D01*
X198349720Y-45727781D01*
X198256666Y-45668727D01*
X198218582Y-45655166D01*
X198092425Y-45610243D01*
X198092420Y-45610242D01*
X198085790Y-45607881D01*
X198078802Y-45607048D01*
X198078799Y-45607047D01*
X197955698Y-45592368D01*
X197905680Y-45586404D01*
X197898677Y-45587140D01*
X197898676Y-45587140D01*
X197732288Y-45604628D01*
X197732286Y-45604629D01*
X197725288Y-45605364D01*
X197553579Y-45663818D01*
X197491109Y-45702250D01*
X197405095Y-45755166D01*
X197405092Y-45755168D01*
X197399088Y-45758862D01*
X197394053Y-45763793D01*
X197394050Y-45763795D01*
X197286402Y-45869212D01*
X197269493Y-45885771D01*
X197171235Y-46038238D01*
X197168826Y-46044858D01*
X197168824Y-46044861D01*
X197124109Y-46167715D01*
X197109197Y-46208685D01*
X197086463Y-46388640D01*
X197104163Y-46569160D01*
X197161418Y-46741273D01*
X197165065Y-46747295D01*
X197165066Y-46747297D01*
X197249435Y-46886607D01*
X197255380Y-46896424D01*
X197381382Y-47026902D01*
X197533159Y-47126222D01*
X197539763Y-47128678D01*
X197539765Y-47128679D01*
X197696558Y-47186990D01*
X197696560Y-47186990D01*
X197703168Y-47189448D01*
X197786995Y-47200633D01*
X197875980Y-47212507D01*
X197875984Y-47212507D01*
X197882961Y-47213438D01*
X197889972Y-47212800D01*
X197889976Y-47212800D01*
X198032459Y-47199832D01*
X198063600Y-47196998D01*
X198070305Y-47194820D01*
X198077201Y-47193404D01*
X198077788Y-47196265D01*
X198135675Y-47194617D01*
X198192727Y-47227380D01*
X198901868Y-47936521D01*
X198901871Y-47936525D01*
X199608471Y-48643124D01*
X200313386Y-49348039D01*
X200319239Y-49354304D01*
X200354524Y-49394752D01*
X200394691Y-49422982D01*
X200403099Y-49428891D01*
X200408393Y-49432823D01*
X200455121Y-49469463D01*
X200462045Y-49472589D01*
X200468176Y-49476302D01*
X200472796Y-49478938D01*
X200479178Y-49482360D01*
X200485397Y-49486731D01*
X200492476Y-49489491D01*
X200540713Y-49508298D01*
X200546792Y-49510854D01*
X200600912Y-49535289D01*
X200608388Y-49536675D01*
X200615266Y-49538830D01*
X200620391Y-49540290D01*
X200627355Y-49542078D01*
X200634434Y-49544838D01*
X200641966Y-49545830D01*
X200641968Y-49545830D01*
X200667196Y-49549151D01*
X200693300Y-49552587D01*
X200699798Y-49553616D01*
X200758197Y-49564440D01*
X200765777Y-49564003D01*
X200765778Y-49564003D01*
X200815968Y-49561109D01*
X200823221Y-49560900D01*
X203695774Y-49560900D01*
X203764766Y-49581467D01*
X203833159Y-49626222D01*
X203839763Y-49628678D01*
X203839765Y-49628679D01*
X203996558Y-49686990D01*
X203996560Y-49686990D01*
X204003168Y-49689448D01*
X204086995Y-49700633D01*
X204175980Y-49712507D01*
X204175984Y-49712507D01*
X204182961Y-49713438D01*
X204189972Y-49712800D01*
X204189976Y-49712800D01*
X204332459Y-49699832D01*
X204363600Y-49696998D01*
X204370302Y-49694820D01*
X204370304Y-49694820D01*
X204529409Y-49643124D01*
X204529412Y-49643123D01*
X204536108Y-49640947D01*
X204556688Y-49628679D01*
X204597678Y-49604244D01*
X204666433Y-49586544D01*
X204733842Y-49608826D01*
X204778504Y-49664015D01*
X204787594Y-49700177D01*
X204804163Y-49869160D01*
X204861418Y-50041273D01*
X204865065Y-50047295D01*
X204865066Y-50047297D01*
X204955380Y-50196424D01*
X204953486Y-50197571D01*
X204975363Y-50253869D01*
X204961219Y-50323442D01*
X204911706Y-50374324D01*
X204838836Y-50390090D01*
X204805485Y-50387172D01*
X204805475Y-50387172D01*
X204800000Y-50386693D01*
X204580629Y-50405885D01*
X204367924Y-50462880D01*
X204284157Y-50501941D01*
X204173334Y-50553618D01*
X204173329Y-50553621D01*
X204168347Y-50555944D01*
X204163840Y-50559100D01*
X204163838Y-50559101D01*
X203992473Y-50679092D01*
X203992470Y-50679094D01*
X203987962Y-50682251D01*
X203832251Y-50837962D01*
X203829094Y-50842470D01*
X203829092Y-50842473D01*
X203717330Y-51002086D01*
X203705944Y-51018347D01*
X203703621Y-51023329D01*
X203703618Y-51023334D01*
X203669063Y-51097438D01*
X203612880Y-51217924D01*
X203555885Y-51430629D01*
X203536693Y-51650000D01*
X203555885Y-51869371D01*
X203612880Y-52082076D01*
X203633477Y-52126247D01*
X203703618Y-52276666D01*
X203703621Y-52276671D01*
X203705944Y-52281653D01*
X203709100Y-52286160D01*
X203709101Y-52286162D01*
X203826025Y-52453146D01*
X203832251Y-52462038D01*
X203987962Y-52617749D01*
X203988208Y-52617921D01*
X204026641Y-52675693D01*
X204027765Y-52746681D01*
X203990331Y-52807007D01*
X203926225Y-52837518D01*
X203906322Y-52839100D01*
X196904162Y-52839100D01*
X196836648Y-52819485D01*
X196814017Y-52805123D01*
X196756666Y-52768727D01*
X196723817Y-52757030D01*
X196592425Y-52710243D01*
X196592420Y-52710242D01*
X196585790Y-52707881D01*
X196578802Y-52707048D01*
X196578799Y-52707047D01*
X196433371Y-52689706D01*
X196405680Y-52686404D01*
X196398677Y-52687140D01*
X196398676Y-52687140D01*
X196328906Y-52694473D01*
X196278988Y-52699720D01*
X196209149Y-52686948D01*
X196157303Y-52638446D01*
X196139908Y-52569613D01*
X196158557Y-52508294D01*
X196238275Y-52378968D01*
X196238276Y-52378966D01*
X196242115Y-52372738D01*
X196268465Y-52293295D01*
X196308896Y-52234936D01*
X196337421Y-52217586D01*
X196340585Y-52216197D01*
X196344808Y-52214344D01*
X196384022Y-52204241D01*
X196456579Y-52197637D01*
X196463600Y-52196998D01*
X196470302Y-52194820D01*
X196470304Y-52194820D01*
X196629409Y-52143124D01*
X196629412Y-52143123D01*
X196636108Y-52140947D01*
X196743774Y-52076765D01*
X196785860Y-52051677D01*
X196785862Y-52051676D01*
X196791912Y-52048069D01*
X196923266Y-51922982D01*
X197023643Y-51771902D01*
X197069950Y-51650000D01*
X197085555Y-51608920D01*
X197085556Y-51608918D01*
X197088055Y-51602338D01*
X197099245Y-51522717D01*
X197112748Y-51426639D01*
X197112748Y-51426636D01*
X197113299Y-51422717D01*
X197113616Y-51400000D01*
X197093397Y-51219745D01*
X197076350Y-51170792D01*
X197036064Y-51055106D01*
X197036062Y-51055103D01*
X197033745Y-51048448D01*
X197012605Y-51014616D01*
X196941359Y-50900598D01*
X196937626Y-50894624D01*
X196909120Y-50865918D01*
X196814778Y-50770915D01*
X196814774Y-50770912D01*
X196809815Y-50765918D01*
X196802928Y-50761547D01*
X196694950Y-50693023D01*
X196656666Y-50668727D01*
X196571675Y-50638463D01*
X196514214Y-50618002D01*
X196456750Y-50576308D01*
X196430950Y-50510165D01*
X196445005Y-50440574D01*
X196494453Y-50389628D01*
X196517543Y-50379471D01*
X196574699Y-50360900D01*
X196629409Y-50343124D01*
X196629412Y-50343123D01*
X196636108Y-50340947D01*
X196748062Y-50274209D01*
X196785860Y-50251677D01*
X196785862Y-50251676D01*
X196791912Y-50248069D01*
X196923266Y-50122982D01*
X197023643Y-49971902D01*
X197077848Y-49829208D01*
X197085555Y-49808920D01*
X197085556Y-49808918D01*
X197088055Y-49802338D01*
X197099245Y-49722717D01*
X197112748Y-49626639D01*
X197112748Y-49626636D01*
X197113299Y-49622717D01*
X197113616Y-49600000D01*
X197093397Y-49419745D01*
X197091080Y-49413091D01*
X197036064Y-49255106D01*
X197036062Y-49255103D01*
X197033745Y-49248448D01*
X196969571Y-49145747D01*
X196941359Y-49100598D01*
X196937626Y-49094624D01*
X196932664Y-49089627D01*
X196814778Y-48970915D01*
X196814774Y-48970912D01*
X196809815Y-48965918D01*
X196802928Y-48961547D01*
X196691862Y-48891063D01*
X196656666Y-48868727D01*
X196485790Y-48807881D01*
X196478791Y-48807046D01*
X196471934Y-48805438D01*
X196472296Y-48803893D01*
X196414731Y-48779266D01*
X196405825Y-48771172D01*
X196345405Y-48710752D01*
X196311379Y-48648440D01*
X196308500Y-48621657D01*
X196308500Y-48399600D01*
X196307984Y-48394624D01*
X196298238Y-48300692D01*
X196298237Y-48300688D01*
X196297526Y-48293834D01*
X196288213Y-48265918D01*
X196243868Y-48133002D01*
X196241550Y-48126054D01*
X196148478Y-47975652D01*
X196023303Y-47850695D01*
X196017072Y-47846854D01*
X195878968Y-47761725D01*
X195878966Y-47761724D01*
X195872738Y-47757885D01*
X195792995Y-47731436D01*
X195711389Y-47704368D01*
X195711387Y-47704368D01*
X195704861Y-47702203D01*
X195698025Y-47701503D01*
X195698022Y-47701502D01*
X195654969Y-47697091D01*
X195600400Y-47691500D01*
X194799600Y-47691500D01*
X194796354Y-47691837D01*
X194796350Y-47691837D01*
X194700692Y-47701762D01*
X194700688Y-47701763D01*
X194693834Y-47702474D01*
X194687298Y-47704655D01*
X194687296Y-47704655D01*
X194670928Y-47710116D01*
X194526054Y-47758450D01*
X194375652Y-47851522D01*
X194370479Y-47856704D01*
X194288862Y-47938463D01*
X194226579Y-47972542D01*
X194155759Y-47967539D01*
X194110671Y-47938618D01*
X194028171Y-47856261D01*
X194016760Y-47847249D01*
X193878757Y-47762184D01*
X193865576Y-47756037D01*
X193711290Y-47704862D01*
X193697914Y-47701995D01*
X193603562Y-47692328D01*
X193597145Y-47692000D01*
X193472115Y-47692000D01*
X193456876Y-47696475D01*
X193455671Y-47697865D01*
X193454000Y-47705548D01*
X193454000Y-50089884D01*
X193458475Y-50105123D01*
X193459865Y-50106328D01*
X193467548Y-50107999D01*
X193597095Y-50107999D01*
X193603614Y-50107662D01*
X193699206Y-50097743D01*
X193712600Y-50094851D01*
X193866784Y-50043412D01*
X193879962Y-50037239D01*
X194017807Y-49951937D01*
X194029208Y-49942901D01*
X194110430Y-49861538D01*
X194172713Y-49827459D01*
X194243533Y-49832462D01*
X194288620Y-49861383D01*
X194371512Y-49944130D01*
X194371517Y-49944134D01*
X194376697Y-49949305D01*
X194382927Y-49953145D01*
X194382928Y-49953146D01*
X194520288Y-50037816D01*
X194527262Y-50042115D01*
X194597205Y-50065314D01*
X194688611Y-50095632D01*
X194688613Y-50095632D01*
X194695139Y-50097797D01*
X194701975Y-50098497D01*
X194701978Y-50098498D01*
X194745031Y-50102909D01*
X194799600Y-50108500D01*
X195600400Y-50108500D01*
X195603641Y-50108164D01*
X195606416Y-50108020D01*
X195675480Y-50124472D01*
X195703565Y-50146321D01*
X195738158Y-50182142D01*
X195771089Y-50245038D01*
X195764789Y-50315754D01*
X195721257Y-50371839D01*
X195654314Y-50395485D01*
X195634677Y-50395012D01*
X195632139Y-50394752D01*
X195600400Y-50391500D01*
X194799600Y-50391500D01*
X194796354Y-50391837D01*
X194796350Y-50391837D01*
X194700692Y-50401762D01*
X194700688Y-50401763D01*
X194693834Y-50402474D01*
X194687298Y-50404655D01*
X194687296Y-50404655D01*
X194571991Y-50443124D01*
X194526054Y-50458450D01*
X194375652Y-50551522D01*
X194370479Y-50556704D01*
X194288862Y-50638463D01*
X194226579Y-50672542D01*
X194155759Y-50667539D01*
X194110671Y-50638618D01*
X194028171Y-50556261D01*
X194016760Y-50547249D01*
X193878757Y-50462184D01*
X193865576Y-50456037D01*
X193711290Y-50404862D01*
X193697914Y-50401995D01*
X193603562Y-50392328D01*
X193597145Y-50392000D01*
X193472115Y-50392000D01*
X193456876Y-50396475D01*
X193455671Y-50397865D01*
X193454000Y-50405548D01*
X193454000Y-52789884D01*
X193458475Y-52805123D01*
X193459865Y-52806328D01*
X193467548Y-52807999D01*
X193597095Y-52807999D01*
X193603614Y-52807662D01*
X193699206Y-52797743D01*
X193712600Y-52794851D01*
X193866784Y-52743412D01*
X193879962Y-52737239D01*
X194017807Y-52651937D01*
X194029208Y-52642901D01*
X194110430Y-52561538D01*
X194172713Y-52527459D01*
X194243533Y-52532462D01*
X194288620Y-52561383D01*
X194371512Y-52644130D01*
X194371517Y-52644134D01*
X194376697Y-52649305D01*
X194382927Y-52653145D01*
X194382928Y-52653146D01*
X194519352Y-52737239D01*
X194527262Y-52742115D01*
X194572230Y-52757030D01*
X194688611Y-52795632D01*
X194688613Y-52795632D01*
X194695139Y-52797797D01*
X194701975Y-52798497D01*
X194701978Y-52798498D01*
X194745031Y-52802909D01*
X194799600Y-52808500D01*
X195600400Y-52808500D01*
X195642910Y-52804089D01*
X195712730Y-52816953D01*
X195764512Y-52865524D01*
X195781815Y-52934380D01*
X195761826Y-52997668D01*
X195736664Y-53036711D01*
X195682952Y-53083134D01*
X195617913Y-53093798D01*
X195603563Y-53092328D01*
X195597145Y-53092000D01*
X195472115Y-53092000D01*
X195456876Y-53096475D01*
X195455671Y-53097865D01*
X195454000Y-53105548D01*
X195454000Y-55489884D01*
X195458475Y-55505123D01*
X195459865Y-55506328D01*
X195467548Y-55507999D01*
X195597095Y-55507999D01*
X195603614Y-55507662D01*
X195699206Y-55497743D01*
X195712600Y-55494851D01*
X195866784Y-55443412D01*
X195879962Y-55437239D01*
X196017807Y-55351937D01*
X196029208Y-55342901D01*
X196143739Y-55228171D01*
X196152751Y-55216760D01*
X196237816Y-55078757D01*
X196243963Y-55065576D01*
X196295138Y-54911290D01*
X196298005Y-54897914D01*
X196307672Y-54803562D01*
X196308000Y-54797146D01*
X196308000Y-54435313D01*
X196328002Y-54367192D01*
X196381658Y-54320699D01*
X196422578Y-54309832D01*
X196563600Y-54296998D01*
X196570302Y-54294820D01*
X196570304Y-54294820D01*
X196729409Y-54243124D01*
X196729412Y-54243123D01*
X196736108Y-54240947D01*
X196840577Y-54178671D01*
X196905094Y-54160900D01*
X207913100Y-54160900D01*
X207981221Y-54180902D01*
X208027714Y-54234558D01*
X208039100Y-54286900D01*
X208039100Y-55096391D01*
X208019098Y-55164512D01*
X207965442Y-55211005D01*
X207895168Y-55221109D01*
X207846984Y-55203651D01*
X207778968Y-55161725D01*
X207778966Y-55161724D01*
X207772738Y-55157885D01*
X207692995Y-55131436D01*
X207611389Y-55104368D01*
X207611387Y-55104368D01*
X207604861Y-55102203D01*
X207598025Y-55101503D01*
X207598022Y-55101502D01*
X207548136Y-55096391D01*
X207500400Y-55091500D01*
X206574600Y-55091500D01*
X206571354Y-55091837D01*
X206571350Y-55091837D01*
X206475692Y-55101762D01*
X206475688Y-55101763D01*
X206468834Y-55102474D01*
X206462298Y-55104655D01*
X206462296Y-55104655D01*
X206401777Y-55124846D01*
X206301054Y-55158450D01*
X206150652Y-55251522D01*
X206025695Y-55376697D01*
X206021855Y-55382927D01*
X206021854Y-55382928D01*
X205941800Y-55512800D01*
X205932885Y-55527262D01*
X205910723Y-55594079D01*
X205903564Y-55615662D01*
X205863133Y-55674021D01*
X205797569Y-55701258D01*
X205727687Y-55688724D01*
X205694876Y-55665089D01*
X205612038Y-55582251D01*
X205543425Y-55534207D01*
X205524609Y-55521032D01*
X205431654Y-55455944D01*
X205232076Y-55362880D01*
X205019371Y-55305885D01*
X204800000Y-55286693D01*
X204580629Y-55305885D01*
X204367924Y-55362880D01*
X204324931Y-55382928D01*
X204173334Y-55453618D01*
X204173329Y-55453621D01*
X204168347Y-55455944D01*
X204163840Y-55459100D01*
X204163838Y-55459101D01*
X203992473Y-55579092D01*
X203992470Y-55579094D01*
X203987962Y-55582251D01*
X203832251Y-55737962D01*
X203829094Y-55742470D01*
X203829092Y-55742473D01*
X203709101Y-55913838D01*
X203705944Y-55918347D01*
X203703621Y-55923329D01*
X203703618Y-55923334D01*
X203656415Y-56024562D01*
X203612880Y-56117924D01*
X203555885Y-56330629D01*
X203536693Y-56550000D01*
X203555885Y-56769371D01*
X203612880Y-56982076D01*
X203631987Y-57023051D01*
X203703618Y-57176666D01*
X203703621Y-57176671D01*
X203705944Y-57181653D01*
X203709100Y-57186160D01*
X203709101Y-57186162D01*
X203823197Y-57349107D01*
X203832251Y-57362038D01*
X203987962Y-57517749D01*
X203992471Y-57520906D01*
X203992473Y-57520908D01*
X204031804Y-57548448D01*
X204168346Y-57644056D01*
X204367924Y-57737120D01*
X204580629Y-57794115D01*
X204800000Y-57813307D01*
X205019371Y-57794115D01*
X205232076Y-57737120D01*
X205431654Y-57644056D01*
X205568196Y-57548448D01*
X205607527Y-57520908D01*
X205607529Y-57520906D01*
X205612038Y-57517749D01*
X205719885Y-57409902D01*
X205782197Y-57375876D01*
X205853012Y-57380941D01*
X205909848Y-57423488D01*
X205928504Y-57459121D01*
X205933450Y-57473946D01*
X206026522Y-57624348D01*
X206151697Y-57749305D01*
X206157927Y-57753145D01*
X206157928Y-57753146D01*
X206295090Y-57837694D01*
X206302262Y-57842115D01*
X206360848Y-57861547D01*
X206463611Y-57895632D01*
X206463613Y-57895632D01*
X206470139Y-57897797D01*
X206476975Y-57898497D01*
X206476978Y-57898498D01*
X206520031Y-57902909D01*
X206574600Y-57908500D01*
X207500400Y-57908500D01*
X207503646Y-57908163D01*
X207503650Y-57908163D01*
X207599308Y-57898238D01*
X207599312Y-57898237D01*
X207606166Y-57897526D01*
X207612702Y-57895345D01*
X207612704Y-57895345D01*
X207744806Y-57851272D01*
X207773946Y-57841550D01*
X207924348Y-57748478D01*
X208049305Y-57623303D01*
X208075565Y-57580702D01*
X208138275Y-57478968D01*
X208138276Y-57478966D01*
X208142115Y-57472738D01*
X208197797Y-57304861D01*
X208208500Y-57200400D01*
X208208500Y-56947344D01*
X208228502Y-56879223D01*
X208282158Y-56832730D01*
X208352432Y-56822626D01*
X208417012Y-56852120D01*
X208423595Y-56858249D01*
X208513393Y-56948047D01*
X208519247Y-56954313D01*
X208554524Y-56994752D01*
X208600223Y-57026870D01*
X208603099Y-57028891D01*
X208608393Y-57032823D01*
X208655121Y-57069463D01*
X208662045Y-57072589D01*
X208668176Y-57076302D01*
X208672796Y-57078938D01*
X208679178Y-57082360D01*
X208685397Y-57086731D01*
X208692476Y-57089491D01*
X208740713Y-57108298D01*
X208746792Y-57110854D01*
X208800912Y-57135289D01*
X208808388Y-57136675D01*
X208815266Y-57138830D01*
X208820391Y-57140290D01*
X208827355Y-57142078D01*
X208834434Y-57144838D01*
X208841966Y-57145830D01*
X208841968Y-57145830D01*
X208863620Y-57148680D01*
X208889214Y-57152049D01*
X208954141Y-57180770D01*
X208993234Y-57240035D01*
X208998095Y-57263966D01*
X209002474Y-57306166D01*
X209004655Y-57312702D01*
X209004655Y-57312704D01*
X209025667Y-57375683D01*
X209058450Y-57473946D01*
X209151522Y-57624348D01*
X209276697Y-57749305D01*
X209282927Y-57753145D01*
X209282928Y-57753146D01*
X209420090Y-57837694D01*
X209427262Y-57842115D01*
X209485848Y-57861547D01*
X209588611Y-57895632D01*
X209588613Y-57895632D01*
X209595139Y-57897797D01*
X209601975Y-57898497D01*
X209601978Y-57898498D01*
X209645031Y-57902909D01*
X209699600Y-57908500D01*
X210625400Y-57908500D01*
X210628646Y-57908163D01*
X210628650Y-57908163D01*
X210724308Y-57898238D01*
X210724312Y-57898237D01*
X210731166Y-57897526D01*
X210737702Y-57895345D01*
X210737704Y-57895345D01*
X210869806Y-57851272D01*
X210898946Y-57841550D01*
X211049348Y-57748478D01*
X211174305Y-57623303D01*
X211200565Y-57580702D01*
X211263275Y-57478968D01*
X211263276Y-57478966D01*
X211267115Y-57472738D01*
X211322797Y-57304861D01*
X211325953Y-57274058D01*
X211352794Y-57208331D01*
X211410909Y-57167548D01*
X211451297Y-57160900D01*
X212890370Y-57160900D01*
X212958491Y-57180902D01*
X213004984Y-57234558D01*
X213015088Y-57304832D01*
X212985594Y-57369412D01*
X212978529Y-57376922D01*
X212974784Y-57380590D01*
X212969493Y-57385771D01*
X212871235Y-57538238D01*
X212868826Y-57544858D01*
X212868824Y-57544861D01*
X212833869Y-57640899D01*
X212809197Y-57708685D01*
X212786463Y-57888640D01*
X212804163Y-58069160D01*
X212861418Y-58241273D01*
X212865065Y-58247295D01*
X212865066Y-58247297D01*
X212920876Y-58339450D01*
X212939100Y-58404721D01*
X212939100Y-67374057D01*
X212919098Y-67442178D01*
X212902195Y-67463152D01*
X211613152Y-68752195D01*
X211550840Y-68786221D01*
X211524057Y-68789100D01*
X195084775Y-68789100D01*
X195016654Y-68769098D01*
X194977342Y-68728935D01*
X194953945Y-68690755D01*
X194874176Y-68560584D01*
X194719969Y-68380031D01*
X194539416Y-68225824D01*
X194535208Y-68223245D01*
X194535202Y-68223241D01*
X194341183Y-68104346D01*
X194336963Y-68101760D01*
X194332393Y-68099867D01*
X194332389Y-68099865D01*
X194122167Y-68012789D01*
X194122165Y-68012788D01*
X194117594Y-68010895D01*
X194037391Y-67991640D01*
X193891524Y-67956620D01*
X193891518Y-67956619D01*
X193886711Y-67955465D01*
X193650000Y-67936835D01*
X193413289Y-67955465D01*
X193408482Y-67956619D01*
X193408476Y-67956620D01*
X193262609Y-67991640D01*
X193182406Y-68010895D01*
X193177835Y-68012788D01*
X193177833Y-68012789D01*
X192967611Y-68099865D01*
X192967607Y-68099867D01*
X192963037Y-68101760D01*
X192958817Y-68104346D01*
X192764798Y-68223241D01*
X192764792Y-68223245D01*
X192760584Y-68225824D01*
X192580031Y-68380031D01*
X192425824Y-68560584D01*
X192423242Y-68564797D01*
X192423235Y-68564807D01*
X192353787Y-68678135D01*
X192301140Y-68725766D01*
X192246355Y-68738300D01*
X191979029Y-68738300D01*
X191970459Y-68738008D01*
X191920053Y-68734571D01*
X191920049Y-68734571D01*
X191912478Y-68734055D01*
X191905002Y-68735360D01*
X191905000Y-68735360D01*
X191849225Y-68745095D01*
X191842699Y-68746058D01*
X191786532Y-68752855D01*
X191786531Y-68752855D01*
X191778989Y-68753768D01*
X191771882Y-68756453D01*
X191769612Y-68757011D01*
X191752532Y-68761683D01*
X191750266Y-68762367D01*
X191742785Y-68763673D01*
X191684010Y-68789473D01*
X191677914Y-68791961D01*
X191624954Y-68811973D01*
X191617851Y-68814657D01*
X191611594Y-68818957D01*
X191609523Y-68820040D01*
X191594054Y-68828650D01*
X191592011Y-68829858D01*
X191585054Y-68832912D01*
X191534107Y-68872005D01*
X191528799Y-68875861D01*
X191482149Y-68907921D01*
X191482144Y-68907926D01*
X191475888Y-68912225D01*
X191470836Y-68917895D01*
X191470835Y-68917896D01*
X191434245Y-68958964D01*
X191429264Y-68964240D01*
X190917284Y-69476220D01*
X190911019Y-69482073D01*
X190867219Y-69520282D01*
X190862853Y-69526495D01*
X190830309Y-69572801D01*
X190826375Y-69578098D01*
X190791454Y-69622634D01*
X190791450Y-69622640D01*
X190786767Y-69628613D01*
X190783642Y-69635534D01*
X190782428Y-69637539D01*
X190773659Y-69652912D01*
X190772541Y-69654996D01*
X190768170Y-69661216D01*
X190765410Y-69668295D01*
X190765409Y-69668297D01*
X190744852Y-69721024D01*
X190742300Y-69727097D01*
X190715880Y-69785609D01*
X190714496Y-69793077D01*
X190713788Y-69795336D01*
X190708951Y-69812318D01*
X190708358Y-69814627D01*
X190705597Y-69821708D01*
X190704606Y-69829237D01*
X190704605Y-69829240D01*
X190697217Y-69885356D01*
X190696185Y-69891870D01*
X190690570Y-69922167D01*
X190684488Y-69954983D01*
X190684925Y-69962563D01*
X190684925Y-69962564D01*
X190688091Y-70017470D01*
X190688300Y-70024723D01*
X190688300Y-70511611D01*
X190668298Y-70579732D01*
X190628604Y-70618754D01*
X190575652Y-70651522D01*
X190570479Y-70656704D01*
X190488862Y-70738463D01*
X190426579Y-70772542D01*
X190355759Y-70767539D01*
X190310671Y-70738618D01*
X190228171Y-70656261D01*
X190216760Y-70647249D01*
X190078757Y-70562184D01*
X190065576Y-70556037D01*
X189911290Y-70504862D01*
X189897914Y-70501995D01*
X189803562Y-70492328D01*
X189797145Y-70492000D01*
X189672115Y-70492000D01*
X189656876Y-70496475D01*
X189655671Y-70497865D01*
X189654000Y-70505548D01*
X189654000Y-72889884D01*
X189658475Y-72905123D01*
X189659865Y-72906328D01*
X189667548Y-72907999D01*
X189797095Y-72907999D01*
X189803614Y-72907662D01*
X189899206Y-72897743D01*
X189912600Y-72894851D01*
X190066784Y-72843412D01*
X190079962Y-72837239D01*
X190217807Y-72751937D01*
X190229208Y-72742901D01*
X190310430Y-72661538D01*
X190372713Y-72627459D01*
X190443533Y-72632462D01*
X190488620Y-72661383D01*
X190571512Y-72744130D01*
X190571517Y-72744134D01*
X190576697Y-72749305D01*
X190582927Y-72753145D01*
X190582928Y-72753146D01*
X190720288Y-72837816D01*
X190727262Y-72842115D01*
X190760520Y-72853146D01*
X190888611Y-72895632D01*
X190888613Y-72895632D01*
X190895139Y-72897797D01*
X190901975Y-72898497D01*
X190901978Y-72898498D01*
X190945031Y-72902909D01*
X190999600Y-72908500D01*
X191800400Y-72908500D01*
X191803646Y-72908163D01*
X191803650Y-72908163D01*
X191899308Y-72898238D01*
X191899312Y-72898237D01*
X191906166Y-72897526D01*
X191912702Y-72895345D01*
X191912704Y-72895345D01*
X192044806Y-72851272D01*
X192073946Y-72841550D01*
X192224348Y-72748478D01*
X192349305Y-72623303D01*
X192360990Y-72604346D01*
X192438275Y-72478968D01*
X192438276Y-72478966D01*
X192442115Y-72472738D01*
X192497797Y-72304861D01*
X192508500Y-72200400D01*
X192508500Y-71199600D01*
X192507370Y-71188710D01*
X192498238Y-71100692D01*
X192498237Y-71100688D01*
X192497526Y-71093834D01*
X192441550Y-70926054D01*
X192348478Y-70775652D01*
X192328658Y-70755866D01*
X192228483Y-70655866D01*
X192223303Y-70650695D01*
X192171584Y-70618815D01*
X192124091Y-70566043D01*
X192111700Y-70511555D01*
X192111700Y-70346986D01*
X192131702Y-70278865D01*
X192148605Y-70257891D01*
X192176498Y-70229998D01*
X192238810Y-70195972D01*
X192309625Y-70201037D01*
X192366461Y-70243584D01*
X192373025Y-70253258D01*
X192423235Y-70335193D01*
X192423242Y-70335202D01*
X192425824Y-70339416D01*
X192556143Y-70492000D01*
X192567374Y-70505149D01*
X192580031Y-70519969D01*
X192760584Y-70674176D01*
X192764792Y-70676755D01*
X192764798Y-70676759D01*
X192917735Y-70770479D01*
X192963037Y-70798240D01*
X192967607Y-70800133D01*
X192967611Y-70800135D01*
X193177833Y-70887211D01*
X193182406Y-70889105D01*
X193262609Y-70908360D01*
X193408476Y-70943380D01*
X193408482Y-70943381D01*
X193413289Y-70944535D01*
X193650000Y-70963165D01*
X193886711Y-70944535D01*
X193891518Y-70943381D01*
X193891524Y-70943380D01*
X194037391Y-70908360D01*
X194117594Y-70889105D01*
X194122167Y-70887211D01*
X194332389Y-70800135D01*
X194332393Y-70800133D01*
X194336963Y-70798240D01*
X194382265Y-70770479D01*
X194535202Y-70676759D01*
X194535208Y-70676755D01*
X194539416Y-70674176D01*
X194719969Y-70519969D01*
X194732627Y-70505149D01*
X194743857Y-70492000D01*
X194874176Y-70339416D01*
X194977342Y-70171065D01*
X195029990Y-70123434D01*
X195084775Y-70110900D01*
X211822737Y-70110900D01*
X211831308Y-70111192D01*
X211884843Y-70114842D01*
X211892320Y-70113537D01*
X211892321Y-70113537D01*
X211917626Y-70109121D01*
X211943347Y-70104631D01*
X211949865Y-70103670D01*
X211968223Y-70101448D01*
X212001262Y-70097450D01*
X212001264Y-70097450D01*
X212008805Y-70096537D01*
X212015913Y-70093851D01*
X212022879Y-70092140D01*
X212028068Y-70090721D01*
X212034947Y-70088644D01*
X212042424Y-70087339D01*
X212096795Y-70063471D01*
X212102886Y-70060986D01*
X212151336Y-70042679D01*
X212151338Y-70042678D01*
X212158441Y-70039994D01*
X212164702Y-70035691D01*
X212171026Y-70032385D01*
X212175798Y-70029729D01*
X212181944Y-70026094D01*
X212188896Y-70023042D01*
X212236001Y-69986898D01*
X212241334Y-69983023D01*
X212290271Y-69949389D01*
X212328769Y-69906180D01*
X212333749Y-69900905D01*
X213624005Y-68610649D01*
X213686317Y-68576623D01*
X213757132Y-68581688D01*
X213813968Y-68624235D01*
X213838779Y-68690755D01*
X213839100Y-68699744D01*
X213839100Y-73163100D01*
X213819098Y-73231221D01*
X213765442Y-73277714D01*
X213713100Y-73289100D01*
X195084775Y-73289100D01*
X195016654Y-73269098D01*
X194977342Y-73228935D01*
X194874176Y-73060584D01*
X194735143Y-72897797D01*
X194723177Y-72883787D01*
X194719969Y-72880031D01*
X194539416Y-72725824D01*
X194535208Y-72723245D01*
X194535202Y-72723241D01*
X194341183Y-72604346D01*
X194336963Y-72601760D01*
X194332393Y-72599867D01*
X194332389Y-72599865D01*
X194122167Y-72512789D01*
X194122165Y-72512788D01*
X194117594Y-72510895D01*
X193988749Y-72479962D01*
X193891524Y-72456620D01*
X193891518Y-72456619D01*
X193886711Y-72455465D01*
X193650000Y-72436835D01*
X193413289Y-72455465D01*
X193408482Y-72456619D01*
X193408476Y-72456620D01*
X193311251Y-72479962D01*
X193182406Y-72510895D01*
X193177835Y-72512788D01*
X193177833Y-72512789D01*
X192967611Y-72599865D01*
X192967607Y-72599867D01*
X192963037Y-72601760D01*
X192958817Y-72604346D01*
X192764798Y-72723241D01*
X192764792Y-72723245D01*
X192760584Y-72725824D01*
X192580031Y-72880031D01*
X192576823Y-72883787D01*
X192564857Y-72897797D01*
X192425824Y-73060584D01*
X192322658Y-73228935D01*
X192270010Y-73276566D01*
X192215225Y-73289100D01*
X188584775Y-73289100D01*
X188516654Y-73269098D01*
X188477342Y-73228935D01*
X188374176Y-73060584D01*
X188235143Y-72897797D01*
X188223177Y-72883787D01*
X188219969Y-72880031D01*
X188039416Y-72725824D01*
X188035208Y-72723245D01*
X188035202Y-72723241D01*
X187841183Y-72604346D01*
X187836963Y-72601760D01*
X187832393Y-72599867D01*
X187832389Y-72599865D01*
X187622167Y-72512789D01*
X187622165Y-72512788D01*
X187617594Y-72510895D01*
X187488749Y-72479962D01*
X187391524Y-72456620D01*
X187391518Y-72456619D01*
X187386711Y-72455465D01*
X187150000Y-72436835D01*
X186913289Y-72455465D01*
X186908482Y-72456619D01*
X186908476Y-72456620D01*
X186811251Y-72479962D01*
X186682406Y-72510895D01*
X186677835Y-72512788D01*
X186677833Y-72512789D01*
X186467611Y-72599865D01*
X186467607Y-72599867D01*
X186463037Y-72601760D01*
X186458817Y-72604346D01*
X186264798Y-72723241D01*
X186264792Y-72723245D01*
X186260584Y-72725824D01*
X186080031Y-72880031D01*
X186076823Y-72883787D01*
X186064857Y-72897797D01*
X185925824Y-73060584D01*
X185923245Y-73064792D01*
X185923241Y-73064798D01*
X185830926Y-73215442D01*
X185801760Y-73263037D01*
X185799867Y-73267607D01*
X185799865Y-73267611D01*
X185790964Y-73289100D01*
X185710895Y-73482406D01*
X185655465Y-73713289D01*
X185636835Y-73950000D01*
X185655465Y-74186711D01*
X185710895Y-74417594D01*
X185712788Y-74422165D01*
X185712789Y-74422167D01*
X185792431Y-74614440D01*
X185801760Y-74636963D01*
X185804346Y-74641183D01*
X185923241Y-74835202D01*
X185923245Y-74835208D01*
X185925824Y-74839416D01*
X186080031Y-75019969D01*
X186260584Y-75174176D01*
X186264792Y-75176755D01*
X186264798Y-75176759D01*
X186458817Y-75295654D01*
X186463037Y-75298240D01*
X186467607Y-75300133D01*
X186467611Y-75300135D01*
X186677833Y-75387211D01*
X186682406Y-75389105D01*
X186762609Y-75408360D01*
X186908476Y-75443380D01*
X186908482Y-75443381D01*
X186913289Y-75444535D01*
X187150000Y-75463165D01*
X187386711Y-75444535D01*
X187391518Y-75443381D01*
X187391524Y-75443380D01*
X187537391Y-75408360D01*
X187617594Y-75389105D01*
X187622167Y-75387211D01*
X187832389Y-75300135D01*
X187832393Y-75300133D01*
X187836963Y-75298240D01*
X187841183Y-75295654D01*
X188035202Y-75176759D01*
X188035208Y-75176755D01*
X188039416Y-75174176D01*
X188219969Y-75019969D01*
X188374176Y-74839416D01*
X188477342Y-74671065D01*
X188529990Y-74623434D01*
X188584775Y-74610900D01*
X192215225Y-74610900D01*
X192283346Y-74630902D01*
X192322658Y-74671065D01*
X192425824Y-74839416D01*
X192580031Y-75019969D01*
X192760584Y-75174176D01*
X192764792Y-75176755D01*
X192764798Y-75176759D01*
X192958817Y-75295654D01*
X192963037Y-75298240D01*
X192967607Y-75300133D01*
X192967611Y-75300135D01*
X193177833Y-75387211D01*
X193182406Y-75389105D01*
X193262609Y-75408360D01*
X193408476Y-75443380D01*
X193408482Y-75443381D01*
X193413289Y-75444535D01*
X193650000Y-75463165D01*
X193886711Y-75444535D01*
X193891518Y-75443381D01*
X193891524Y-75443380D01*
X194037391Y-75408360D01*
X194117594Y-75389105D01*
X194122167Y-75387211D01*
X194332389Y-75300135D01*
X194332393Y-75300133D01*
X194336963Y-75298240D01*
X194341183Y-75295654D01*
X194535202Y-75176759D01*
X194535208Y-75176755D01*
X194539416Y-75174176D01*
X194719969Y-75019969D01*
X194874176Y-74839416D01*
X194977342Y-74671065D01*
X195029990Y-74623434D01*
X195084775Y-74610900D01*
X214477520Y-74610900D01*
X214500480Y-74613010D01*
X214500728Y-74613056D01*
X214500730Y-74613056D01*
X214508197Y-74614440D01*
X214515777Y-74614003D01*
X214515778Y-74614003D01*
X214565968Y-74611109D01*
X214573221Y-74610900D01*
X215715225Y-74610900D01*
X215783346Y-74630902D01*
X215822658Y-74671065D01*
X215925824Y-74839416D01*
X216080031Y-75019969D01*
X216260584Y-75174176D01*
X216264792Y-75176755D01*
X216264798Y-75176759D01*
X216458817Y-75295654D01*
X216463037Y-75298240D01*
X216467607Y-75300133D01*
X216467611Y-75300135D01*
X216677833Y-75387211D01*
X216682406Y-75389105D01*
X216762609Y-75408360D01*
X216908476Y-75443380D01*
X216908482Y-75443381D01*
X216913289Y-75444535D01*
X217150000Y-75463165D01*
X217386711Y-75444535D01*
X217391518Y-75443381D01*
X217391524Y-75443380D01*
X217537391Y-75408360D01*
X217617594Y-75389105D01*
X217622167Y-75387211D01*
X217832389Y-75300135D01*
X217832393Y-75300133D01*
X217836963Y-75298240D01*
X217841183Y-75295654D01*
X218035202Y-75176759D01*
X218035208Y-75176755D01*
X218039416Y-75174176D01*
X218219969Y-75019969D01*
X218374176Y-74839416D01*
X218477342Y-74671065D01*
X218529990Y-74623434D01*
X218584775Y-74610900D01*
X222215225Y-74610900D01*
X222283346Y-74630902D01*
X222322658Y-74671065D01*
X222425824Y-74839416D01*
X222580031Y-75019969D01*
X222760584Y-75174176D01*
X222764792Y-75176755D01*
X222764798Y-75176759D01*
X222958817Y-75295654D01*
X222963037Y-75298240D01*
X222967607Y-75300133D01*
X222967611Y-75300135D01*
X223177833Y-75387211D01*
X223182406Y-75389105D01*
X223262609Y-75408360D01*
X223408476Y-75443380D01*
X223408482Y-75443381D01*
X223413289Y-75444535D01*
X223650000Y-75463165D01*
X223886711Y-75444535D01*
X223891518Y-75443381D01*
X223891524Y-75443380D01*
X224037391Y-75408360D01*
X224117594Y-75389105D01*
X224122167Y-75387211D01*
X224332389Y-75300135D01*
X224332393Y-75300133D01*
X224336963Y-75298240D01*
X224341183Y-75295654D01*
X224535202Y-75176759D01*
X224535208Y-75176755D01*
X224539416Y-75174176D01*
X224719969Y-75019969D01*
X224874176Y-74839416D01*
X224876755Y-74835208D01*
X224876759Y-74835202D01*
X224995654Y-74641183D01*
X224998240Y-74636963D01*
X225007570Y-74614440D01*
X225087211Y-74422167D01*
X225087212Y-74422165D01*
X225089105Y-74417594D01*
X225144535Y-74186711D01*
X225163165Y-73950000D01*
X225144535Y-73713289D01*
X225089105Y-73482406D01*
X225009036Y-73289100D01*
X225000135Y-73267611D01*
X225000133Y-73267607D01*
X224998240Y-73263037D01*
X224969074Y-73215442D01*
X224876759Y-73064798D01*
X224876755Y-73064792D01*
X224874176Y-73060584D01*
X224735143Y-72897797D01*
X224723177Y-72883787D01*
X224719969Y-72880031D01*
X224539416Y-72725824D01*
X224535208Y-72723245D01*
X224535202Y-72723241D01*
X224341183Y-72604346D01*
X224336963Y-72601760D01*
X224332393Y-72599867D01*
X224332389Y-72599865D01*
X224122167Y-72512789D01*
X224122165Y-72512788D01*
X224117594Y-72510895D01*
X223988749Y-72479962D01*
X223891524Y-72456620D01*
X223891518Y-72456619D01*
X223886711Y-72455465D01*
X223650000Y-72436835D01*
X223413289Y-72455465D01*
X223408482Y-72456619D01*
X223408476Y-72456620D01*
X223311251Y-72479962D01*
X223182406Y-72510895D01*
X223177835Y-72512788D01*
X223177833Y-72512789D01*
X222967611Y-72599865D01*
X222967607Y-72599867D01*
X222963037Y-72601760D01*
X222958817Y-72604346D01*
X222764798Y-72723241D01*
X222764792Y-72723245D01*
X222760584Y-72725824D01*
X222580031Y-72880031D01*
X222576823Y-72883787D01*
X222564857Y-72897797D01*
X222425824Y-73060584D01*
X222322658Y-73228935D01*
X222270010Y-73276566D01*
X222215225Y-73289100D01*
X218584775Y-73289100D01*
X218516654Y-73269098D01*
X218477342Y-73228935D01*
X218469074Y-73215442D01*
X218423744Y-73141471D01*
X218405206Y-73072937D01*
X218426662Y-73005261D01*
X218481302Y-72959928D01*
X218551776Y-72951331D01*
X218570845Y-72956043D01*
X218688710Y-72995138D01*
X218702086Y-72998005D01*
X218796438Y-73007672D01*
X218802854Y-73008000D01*
X218927885Y-73008000D01*
X218943124Y-73003525D01*
X218944329Y-73002135D01*
X218946000Y-72994452D01*
X218946000Y-72072115D01*
X218941525Y-72056876D01*
X218940135Y-72055671D01*
X218932452Y-72054000D01*
X218110116Y-72054000D01*
X218094877Y-72058475D01*
X218093672Y-72059865D01*
X218092001Y-72067548D01*
X218092001Y-72297095D01*
X218092338Y-72303614D01*
X218102257Y-72399206D01*
X218105149Y-72412600D01*
X218143985Y-72529006D01*
X218146569Y-72599955D01*
X218110386Y-72661039D01*
X218046921Y-72692864D01*
X217976326Y-72685325D01*
X217958626Y-72676315D01*
X217841183Y-72604346D01*
X217836963Y-72601760D01*
X217832393Y-72599867D01*
X217832389Y-72599865D01*
X217622167Y-72512789D01*
X217622165Y-72512788D01*
X217617594Y-72510895D01*
X217488749Y-72479962D01*
X217391524Y-72456620D01*
X217391518Y-72456619D01*
X217386711Y-72455465D01*
X217150000Y-72436835D01*
X216913289Y-72455465D01*
X216908482Y-72456619D01*
X216908476Y-72456620D01*
X216811251Y-72479962D01*
X216682406Y-72510895D01*
X216677835Y-72512788D01*
X216677833Y-72512789D01*
X216467611Y-72599865D01*
X216467607Y-72599867D01*
X216463037Y-72601760D01*
X216458817Y-72604346D01*
X216264798Y-72723241D01*
X216264792Y-72723245D01*
X216260584Y-72725824D01*
X216080031Y-72880031D01*
X216076823Y-72883787D01*
X216064857Y-72897797D01*
X215925824Y-73060584D01*
X215822658Y-73228935D01*
X215770010Y-73276566D01*
X215715225Y-73289100D01*
X215286900Y-73289100D01*
X215218779Y-73269098D01*
X215172286Y-73215442D01*
X215160900Y-73163100D01*
X215160900Y-71527885D01*
X218092000Y-71527885D01*
X218096475Y-71543124D01*
X218097865Y-71544329D01*
X218105548Y-71546000D01*
X218927885Y-71546000D01*
X218943124Y-71541525D01*
X218944329Y-71540135D01*
X218946000Y-71532452D01*
X218946000Y-70610116D01*
X218941525Y-70594877D01*
X218940135Y-70593672D01*
X218932452Y-70592001D01*
X218802905Y-70592001D01*
X218796386Y-70592338D01*
X218700794Y-70602257D01*
X218687400Y-70605149D01*
X218533216Y-70656588D01*
X218520038Y-70662761D01*
X218382193Y-70748063D01*
X218370792Y-70757099D01*
X218256261Y-70871829D01*
X218247249Y-70883240D01*
X218162184Y-71021243D01*
X218156037Y-71034424D01*
X218104862Y-71188710D01*
X218101995Y-71202086D01*
X218092328Y-71296438D01*
X218092000Y-71302855D01*
X218092000Y-71527885D01*
X215160900Y-71527885D01*
X215160900Y-69450000D01*
X215636835Y-69450000D01*
X215655465Y-69686711D01*
X215656619Y-69691518D01*
X215656620Y-69691524D01*
X215687875Y-69821708D01*
X215710895Y-69917594D01*
X215712788Y-69922165D01*
X215712789Y-69922167D01*
X215792057Y-70113537D01*
X215801760Y-70136963D01*
X215804346Y-70141183D01*
X215923241Y-70335202D01*
X215923245Y-70335208D01*
X215925824Y-70339416D01*
X216056143Y-70492000D01*
X216067374Y-70505149D01*
X216080031Y-70519969D01*
X216260584Y-70674176D01*
X216264792Y-70676755D01*
X216264798Y-70676759D01*
X216417735Y-70770479D01*
X216463037Y-70798240D01*
X216467607Y-70800133D01*
X216467611Y-70800135D01*
X216677833Y-70887211D01*
X216682406Y-70889105D01*
X216762609Y-70908360D01*
X216908476Y-70943380D01*
X216908482Y-70943381D01*
X216913289Y-70944535D01*
X217150000Y-70963165D01*
X217386711Y-70944535D01*
X217391518Y-70943381D01*
X217391524Y-70943380D01*
X217537391Y-70908360D01*
X217617594Y-70889105D01*
X217622167Y-70887211D01*
X217832389Y-70800135D01*
X217832393Y-70800133D01*
X217836963Y-70798240D01*
X217882265Y-70770479D01*
X218035202Y-70676759D01*
X218035208Y-70676755D01*
X218039416Y-70674176D01*
X218219969Y-70519969D01*
X218232627Y-70505149D01*
X218243857Y-70492000D01*
X218374176Y-70339416D01*
X218477342Y-70171065D01*
X218529990Y-70123434D01*
X218584775Y-70110900D01*
X220362300Y-70110900D01*
X220430421Y-70130902D01*
X220476914Y-70184558D01*
X220488300Y-70236900D01*
X220488300Y-70611611D01*
X220468298Y-70679732D01*
X220428604Y-70718754D01*
X220375652Y-70751522D01*
X220370479Y-70756704D01*
X220288862Y-70838463D01*
X220226579Y-70872542D01*
X220155759Y-70867539D01*
X220110671Y-70838618D01*
X220028171Y-70756261D01*
X220016760Y-70747249D01*
X219878757Y-70662184D01*
X219865576Y-70656037D01*
X219711290Y-70604862D01*
X219697914Y-70601995D01*
X219603562Y-70592328D01*
X219597145Y-70592000D01*
X219472115Y-70592000D01*
X219456876Y-70596475D01*
X219455671Y-70597865D01*
X219454000Y-70605548D01*
X219454000Y-72989884D01*
X219458475Y-73005123D01*
X219459865Y-73006328D01*
X219467548Y-73007999D01*
X219597095Y-73007999D01*
X219603614Y-73007662D01*
X219699206Y-72997743D01*
X219712600Y-72994851D01*
X219866784Y-72943412D01*
X219879962Y-72937239D01*
X220017807Y-72851937D01*
X220029208Y-72842901D01*
X220110430Y-72761538D01*
X220172713Y-72727459D01*
X220243533Y-72732462D01*
X220288620Y-72761383D01*
X220371512Y-72844130D01*
X220371517Y-72844134D01*
X220376697Y-72849305D01*
X220382927Y-72853145D01*
X220382928Y-72853146D01*
X220520090Y-72937694D01*
X220527262Y-72942115D01*
X220555048Y-72951331D01*
X220688611Y-72995632D01*
X220688613Y-72995632D01*
X220695139Y-72997797D01*
X220701975Y-72998497D01*
X220701978Y-72998498D01*
X220745031Y-73002909D01*
X220799600Y-73008500D01*
X221600400Y-73008500D01*
X221603646Y-73008163D01*
X221603650Y-73008163D01*
X221699308Y-72998238D01*
X221699312Y-72998237D01*
X221706166Y-72997526D01*
X221712702Y-72995345D01*
X221712704Y-72995345D01*
X221844806Y-72951272D01*
X221873946Y-72941550D01*
X222024348Y-72848478D01*
X222149305Y-72723303D01*
X222187685Y-72661039D01*
X222238275Y-72578968D01*
X222238276Y-72578966D01*
X222242115Y-72572738D01*
X222277588Y-72465791D01*
X222295632Y-72411389D01*
X222295632Y-72411387D01*
X222297797Y-72404861D01*
X222308500Y-72300400D01*
X222308500Y-71299600D01*
X222308163Y-71296350D01*
X222298238Y-71200692D01*
X222298237Y-71200688D01*
X222297526Y-71193834D01*
X222241550Y-71026054D01*
X222148478Y-70875652D01*
X222023303Y-70750695D01*
X222003711Y-70738618D01*
X221971584Y-70718815D01*
X221924091Y-70666043D01*
X221911700Y-70611555D01*
X221911700Y-70287700D01*
X221931702Y-70219579D01*
X221985358Y-70173086D01*
X222037700Y-70161700D01*
X222246355Y-70161700D01*
X222314476Y-70181702D01*
X222353787Y-70221865D01*
X222423235Y-70335193D01*
X222423242Y-70335202D01*
X222425824Y-70339416D01*
X222556143Y-70492000D01*
X222567374Y-70505149D01*
X222580031Y-70519969D01*
X222760584Y-70674176D01*
X222764792Y-70676755D01*
X222764798Y-70676759D01*
X222917735Y-70770479D01*
X222963037Y-70798240D01*
X222967607Y-70800133D01*
X222967611Y-70800135D01*
X223177833Y-70887211D01*
X223182406Y-70889105D01*
X223262609Y-70908360D01*
X223408476Y-70943380D01*
X223408482Y-70943381D01*
X223413289Y-70944535D01*
X223650000Y-70963165D01*
X223886711Y-70944535D01*
X223891518Y-70943381D01*
X223891524Y-70943380D01*
X224037391Y-70908360D01*
X224117594Y-70889105D01*
X224122167Y-70887211D01*
X224332389Y-70800135D01*
X224332393Y-70800133D01*
X224336963Y-70798240D01*
X224382265Y-70770479D01*
X224535202Y-70676759D01*
X224535208Y-70676755D01*
X224539416Y-70674176D01*
X224719969Y-70519969D01*
X224732627Y-70505149D01*
X224743857Y-70492000D01*
X224874176Y-70339416D01*
X224876755Y-70335208D01*
X224876759Y-70335202D01*
X224995654Y-70141183D01*
X224998240Y-70136963D01*
X225007944Y-70113537D01*
X225087211Y-69922167D01*
X225087212Y-69922165D01*
X225089105Y-69917594D01*
X225112125Y-69821708D01*
X225143380Y-69691524D01*
X225143381Y-69691518D01*
X225144535Y-69686711D01*
X225163165Y-69450000D01*
X225144535Y-69213289D01*
X225089105Y-68982406D01*
X225087211Y-68977833D01*
X225000135Y-68767611D01*
X225000133Y-68767607D01*
X224998240Y-68763037D01*
X224982789Y-68737824D01*
X224876759Y-68564798D01*
X224876755Y-68564792D01*
X224874176Y-68560584D01*
X224719969Y-68380031D01*
X224539416Y-68225824D01*
X224535208Y-68223245D01*
X224535202Y-68223241D01*
X224341183Y-68104346D01*
X224336963Y-68101760D01*
X224332393Y-68099867D01*
X224332389Y-68099865D01*
X224122167Y-68012789D01*
X224122165Y-68012788D01*
X224117594Y-68010895D01*
X224037391Y-67991640D01*
X223891524Y-67956620D01*
X223891518Y-67956619D01*
X223886711Y-67955465D01*
X223650000Y-67936835D01*
X223413289Y-67955465D01*
X223408482Y-67956619D01*
X223408476Y-67956620D01*
X223262609Y-67991640D01*
X223182406Y-68010895D01*
X223177835Y-68012788D01*
X223177833Y-68012789D01*
X222967611Y-68099865D01*
X222967607Y-68099867D01*
X222963037Y-68101760D01*
X222958817Y-68104346D01*
X222764798Y-68223241D01*
X222764792Y-68223245D01*
X222760584Y-68225824D01*
X222580031Y-68380031D01*
X222425824Y-68560584D01*
X222423242Y-68564797D01*
X222423235Y-68564807D01*
X222353787Y-68678135D01*
X222301140Y-68725766D01*
X222246355Y-68738300D01*
X221208779Y-68738300D01*
X221208119Y-68738298D01*
X221117598Y-68737824D01*
X221088422Y-68744828D01*
X221080808Y-68746656D01*
X221066534Y-68749224D01*
X221042391Y-68752146D01*
X221028989Y-68753768D01*
X220997716Y-68765585D01*
X220982621Y-68770229D01*
X220950099Y-68778037D01*
X220943846Y-68781265D01*
X220900298Y-68789100D01*
X218584775Y-68789100D01*
X218516654Y-68769098D01*
X218477342Y-68728935D01*
X218453945Y-68690755D01*
X218374176Y-68560584D01*
X218219969Y-68380031D01*
X218039416Y-68225824D01*
X218035208Y-68223245D01*
X218035202Y-68223241D01*
X217841183Y-68104346D01*
X217836963Y-68101760D01*
X217832393Y-68099867D01*
X217832389Y-68099865D01*
X217622167Y-68012789D01*
X217622165Y-68012788D01*
X217617594Y-68010895D01*
X217537391Y-67991640D01*
X217391524Y-67956620D01*
X217391518Y-67956619D01*
X217386711Y-67955465D01*
X217150000Y-67936835D01*
X216913289Y-67955465D01*
X216908482Y-67956619D01*
X216908476Y-67956620D01*
X216762609Y-67991640D01*
X216682406Y-68010895D01*
X216677835Y-68012788D01*
X216677833Y-68012789D01*
X216467611Y-68099865D01*
X216467607Y-68099867D01*
X216463037Y-68101760D01*
X216458817Y-68104346D01*
X216264798Y-68223241D01*
X216264792Y-68223245D01*
X216260584Y-68225824D01*
X216080031Y-68380031D01*
X215925824Y-68560584D01*
X215923245Y-68564792D01*
X215923241Y-68564798D01*
X215817211Y-68737824D01*
X215801760Y-68763037D01*
X215799867Y-68767607D01*
X215799865Y-68767611D01*
X215712789Y-68977833D01*
X215710895Y-68982406D01*
X215655465Y-69213289D01*
X215636835Y-69450000D01*
X215160900Y-69450000D01*
X215160900Y-66534669D01*
X222042001Y-66534669D01*
X222042371Y-66541490D01*
X222047895Y-66592352D01*
X222051521Y-66607604D01*
X222096676Y-66728054D01*
X222105214Y-66743649D01*
X222181715Y-66845724D01*
X222194276Y-66858285D01*
X222296351Y-66934786D01*
X222311946Y-66943324D01*
X222432394Y-66988478D01*
X222447649Y-66992105D01*
X222498514Y-66997631D01*
X222505328Y-66998000D01*
X223127885Y-66998000D01*
X223143124Y-66993525D01*
X223144329Y-66992135D01*
X223146000Y-66984452D01*
X223146000Y-66979884D01*
X223654000Y-66979884D01*
X223658475Y-66995123D01*
X223659865Y-66996328D01*
X223667548Y-66997999D01*
X224294669Y-66997999D01*
X224301490Y-66997629D01*
X224352352Y-66992105D01*
X224367604Y-66988479D01*
X224488054Y-66943324D01*
X224503649Y-66934786D01*
X224605724Y-66858285D01*
X224618285Y-66845724D01*
X224694786Y-66743649D01*
X224703324Y-66728054D01*
X224748478Y-66607606D01*
X224752105Y-66592351D01*
X224757631Y-66541486D01*
X224758000Y-66534672D01*
X224758000Y-65912115D01*
X224753525Y-65896876D01*
X224752135Y-65895671D01*
X224744452Y-65894000D01*
X223672115Y-65894000D01*
X223656876Y-65898475D01*
X223655671Y-65899865D01*
X223654000Y-65907548D01*
X223654000Y-66979884D01*
X223146000Y-66979884D01*
X223146000Y-65912115D01*
X223141525Y-65896876D01*
X223140135Y-65895671D01*
X223132452Y-65894000D01*
X222060116Y-65894000D01*
X222044877Y-65898475D01*
X222043672Y-65899865D01*
X222042001Y-65907548D01*
X222042001Y-66534669D01*
X215160900Y-66534669D01*
X215160900Y-66425944D01*
X215180902Y-66357823D01*
X215197805Y-66336849D01*
X217736849Y-63797805D01*
X217799161Y-63763779D01*
X217825944Y-63760900D01*
X222141065Y-63760900D01*
X222209186Y-63780902D01*
X222248498Y-63821066D01*
X222297287Y-63900683D01*
X222297291Y-63900688D01*
X222299987Y-63905088D01*
X222446250Y-64073938D01*
X222450225Y-64077238D01*
X222450231Y-64077244D01*
X222455425Y-64081556D01*
X222495059Y-64140460D01*
X222496555Y-64211441D01*
X222459439Y-64271962D01*
X222419168Y-64296480D01*
X222311946Y-64336676D01*
X222296351Y-64345214D01*
X222194276Y-64421715D01*
X222181715Y-64434276D01*
X222105214Y-64536351D01*
X222096676Y-64551946D01*
X222051522Y-64672394D01*
X222047895Y-64687649D01*
X222042369Y-64738514D01*
X222042000Y-64745328D01*
X222042000Y-65367885D01*
X222046475Y-65383124D01*
X222047865Y-65384329D01*
X222055548Y-65386000D01*
X224739884Y-65386000D01*
X224755123Y-65381525D01*
X224756328Y-65380135D01*
X224757999Y-65372452D01*
X224757999Y-64745331D01*
X224757629Y-64738510D01*
X224752105Y-64687648D01*
X224748479Y-64672396D01*
X224703324Y-64551946D01*
X224694786Y-64536351D01*
X224618285Y-64434276D01*
X224605724Y-64421715D01*
X224503649Y-64345214D01*
X224488054Y-64336676D01*
X224377813Y-64295348D01*
X224321049Y-64252706D01*
X224296349Y-64186145D01*
X224311557Y-64116796D01*
X224333104Y-64088115D01*
X224434430Y-63987144D01*
X224434440Y-63987132D01*
X224438096Y-63983489D01*
X224568453Y-63802077D01*
X224578919Y-63780902D01*
X224665136Y-63606453D01*
X224665137Y-63606451D01*
X224667430Y-63601811D01*
X224732370Y-63388069D01*
X224761529Y-63166590D01*
X224763156Y-63100000D01*
X224744852Y-62877361D01*
X224690431Y-62660702D01*
X224601354Y-62455840D01*
X224480014Y-62268277D01*
X224329670Y-62103051D01*
X224325619Y-62099852D01*
X224325615Y-62099848D01*
X224158414Y-61967800D01*
X224158410Y-61967798D01*
X224154359Y-61964598D01*
X224113053Y-61941796D01*
X224063084Y-61891364D01*
X224048312Y-61821921D01*
X224073428Y-61755516D01*
X224100780Y-61728909D01*
X224144603Y-61697650D01*
X224279860Y-61601173D01*
X224438096Y-61443489D01*
X224497594Y-61360689D01*
X224565435Y-61266277D01*
X224568453Y-61262077D01*
X224667430Y-61061811D01*
X224732370Y-60848069D01*
X224761529Y-60626590D01*
X224763156Y-60560000D01*
X224744852Y-60337361D01*
X224690431Y-60120702D01*
X224601354Y-59915840D01*
X224480014Y-59728277D01*
X224329670Y-59563051D01*
X224325619Y-59559852D01*
X224325615Y-59559848D01*
X224158414Y-59427800D01*
X224158410Y-59427798D01*
X224154359Y-59424598D01*
X224113053Y-59401796D01*
X224063084Y-59351364D01*
X224048312Y-59281921D01*
X224073428Y-59215516D01*
X224100780Y-59188909D01*
X224152977Y-59151677D01*
X224279860Y-59061173D01*
X224438096Y-58903489D01*
X224460794Y-58871902D01*
X224565435Y-58726277D01*
X224568453Y-58722077D01*
X224578919Y-58700902D01*
X224665136Y-58526453D01*
X224665137Y-58526451D01*
X224667430Y-58521811D01*
X224713693Y-58369542D01*
X224730865Y-58313023D01*
X224730865Y-58313021D01*
X224732370Y-58308069D01*
X224761529Y-58086590D01*
X224761611Y-58083240D01*
X224763074Y-58023365D01*
X224763074Y-58023361D01*
X224763156Y-58020000D01*
X224744852Y-57797361D01*
X224690431Y-57580702D01*
X224601354Y-57375840D01*
X224530242Y-57265918D01*
X224482822Y-57192617D01*
X224482820Y-57192614D01*
X224480014Y-57188277D01*
X224329670Y-57023051D01*
X224325619Y-57019852D01*
X224325615Y-57019848D01*
X224158414Y-56887800D01*
X224158410Y-56887798D01*
X224154359Y-56884598D01*
X224113053Y-56861796D01*
X224063084Y-56811364D01*
X224048312Y-56741921D01*
X224073428Y-56675516D01*
X224100780Y-56648909D01*
X224144603Y-56617650D01*
X224279860Y-56521173D01*
X224438096Y-56363489D01*
X224497594Y-56280689D01*
X224565435Y-56186277D01*
X224568453Y-56182077D01*
X224597535Y-56123235D01*
X224665136Y-55986453D01*
X224665137Y-55986451D01*
X224667430Y-55981811D01*
X224710853Y-55838891D01*
X224730865Y-55773023D01*
X224730865Y-55773021D01*
X224732370Y-55768069D01*
X224761529Y-55546590D01*
X224762031Y-55526054D01*
X224763074Y-55483365D01*
X224763074Y-55483361D01*
X224763156Y-55480000D01*
X224744852Y-55257361D01*
X224690431Y-55040702D01*
X224601354Y-54835840D01*
X224530709Y-54726639D01*
X224482822Y-54652617D01*
X224482820Y-54652614D01*
X224480014Y-54648277D01*
X224329670Y-54483051D01*
X224325619Y-54479852D01*
X224325615Y-54479848D01*
X224158414Y-54347800D01*
X224158410Y-54347798D01*
X224154359Y-54344598D01*
X224113053Y-54321796D01*
X224063084Y-54271364D01*
X224048312Y-54201921D01*
X224073428Y-54135516D01*
X224100780Y-54108909D01*
X224162841Y-54064641D01*
X224279860Y-53981173D01*
X224438096Y-53823489D01*
X224445418Y-53813300D01*
X224565435Y-53646277D01*
X224568453Y-53642077D01*
X224647743Y-53481646D01*
X224665136Y-53446453D01*
X224665137Y-53446451D01*
X224667430Y-53441811D01*
X224732370Y-53228069D01*
X224761529Y-53006590D01*
X224761747Y-52997671D01*
X224763074Y-52943365D01*
X224763074Y-52943361D01*
X224763156Y-52940000D01*
X224744852Y-52717361D01*
X224690431Y-52500702D01*
X224601354Y-52295840D01*
X224521716Y-52172738D01*
X224482822Y-52112617D01*
X224482820Y-52112614D01*
X224480014Y-52108277D01*
X224329670Y-51943051D01*
X224325619Y-51939852D01*
X224325615Y-51939848D01*
X224158414Y-51807800D01*
X224158410Y-51807798D01*
X224154359Y-51804598D01*
X224113053Y-51781796D01*
X224063084Y-51731364D01*
X224048312Y-51661921D01*
X224073428Y-51595516D01*
X224100780Y-51568909D01*
X224165539Y-51522717D01*
X224279860Y-51441173D01*
X224295770Y-51425319D01*
X224388962Y-51332452D01*
X224438096Y-51283489D01*
X224483901Y-51219745D01*
X224565435Y-51106277D01*
X224568453Y-51102077D01*
X224571284Y-51096350D01*
X224665136Y-50906453D01*
X224665137Y-50906451D01*
X224667430Y-50901811D01*
X224727339Y-50704628D01*
X224730865Y-50693023D01*
X224730865Y-50693021D01*
X224732370Y-50688069D01*
X224761529Y-50466590D01*
X224761637Y-50462184D01*
X224763074Y-50403365D01*
X224763074Y-50403361D01*
X224763156Y-50400000D01*
X224744852Y-50177361D01*
X224690431Y-49960702D01*
X224601354Y-49755840D01*
X224517770Y-49626639D01*
X224482822Y-49572617D01*
X224482820Y-49572614D01*
X224480014Y-49568277D01*
X224329670Y-49403051D01*
X224325619Y-49399852D01*
X224325615Y-49399848D01*
X224158414Y-49267800D01*
X224158410Y-49267798D01*
X224154359Y-49264598D01*
X223958789Y-49156638D01*
X223953920Y-49154914D01*
X223953916Y-49154912D01*
X223753087Y-49083795D01*
X223753083Y-49083794D01*
X223748212Y-49082069D01*
X223743119Y-49081162D01*
X223743116Y-49081161D01*
X223533373Y-49043800D01*
X223533367Y-49043799D01*
X223528284Y-49042894D01*
X223454452Y-49041992D01*
X223310081Y-49040228D01*
X223310079Y-49040228D01*
X223304911Y-49040165D01*
X223084091Y-49073955D01*
X222871756Y-49143357D01*
X222673607Y-49246507D01*
X222669474Y-49249610D01*
X222669471Y-49249612D01*
X222528966Y-49355106D01*
X222494965Y-49380635D01*
X222477301Y-49399119D01*
X222348651Y-49533744D01*
X222340629Y-49542138D01*
X222337715Y-49546410D01*
X222337714Y-49546411D01*
X222281595Y-49628679D01*
X222214743Y-49726680D01*
X222182860Y-49795366D01*
X222127405Y-49914835D01*
X222120688Y-49929305D01*
X222060989Y-50144570D01*
X222037251Y-50366695D01*
X222037548Y-50371839D01*
X222037548Y-50371851D01*
X222047661Y-50547249D01*
X222050110Y-50589715D01*
X222051247Y-50594761D01*
X222051248Y-50594767D01*
X222070964Y-50682251D01*
X222099222Y-50807639D01*
X222139346Y-50906453D01*
X222172707Y-50988611D01*
X222183266Y-51014616D01*
X222214215Y-51065121D01*
X222281949Y-51175652D01*
X222299987Y-51205088D01*
X222446250Y-51373938D01*
X222618126Y-51516632D01*
X222635251Y-51526639D01*
X222691445Y-51559476D01*
X222740169Y-51611114D01*
X222753240Y-51680897D01*
X222726509Y-51746669D01*
X222686055Y-51780027D01*
X222673607Y-51786507D01*
X222669474Y-51789610D01*
X222669471Y-51789612D01*
X222499100Y-51917530D01*
X222494965Y-51920635D01*
X222491393Y-51924373D01*
X222345764Y-52076765D01*
X222340629Y-52082138D01*
X222337715Y-52086410D01*
X222337714Y-52086411D01*
X222327872Y-52100839D01*
X222214743Y-52266680D01*
X222188460Y-52323303D01*
X222127516Y-52454596D01*
X222120688Y-52469305D01*
X222060989Y-52684570D01*
X222038982Y-52890505D01*
X222038621Y-52893880D01*
X222011493Y-52959489D01*
X221953201Y-53000018D01*
X221882251Y-53002597D01*
X221824239Y-52969586D01*
X221559014Y-52704361D01*
X221553160Y-52698095D01*
X221537015Y-52679588D01*
X221517876Y-52657648D01*
X221469298Y-52623507D01*
X221464004Y-52619575D01*
X221441508Y-52601935D01*
X221417279Y-52582937D01*
X221410355Y-52579811D01*
X221404224Y-52576098D01*
X221399604Y-52573462D01*
X221393222Y-52570040D01*
X221387003Y-52565669D01*
X221331686Y-52544101D01*
X221325607Y-52541546D01*
X221318362Y-52538275D01*
X221271488Y-52517111D01*
X221264012Y-52515725D01*
X221257134Y-52513570D01*
X221252009Y-52512110D01*
X221245045Y-52510322D01*
X221237966Y-52507562D01*
X221230434Y-52506570D01*
X221230432Y-52506570D01*
X221205204Y-52503249D01*
X221179100Y-52499813D01*
X221172602Y-52498784D01*
X221114203Y-52487960D01*
X221106623Y-52488397D01*
X221106622Y-52488397D01*
X221056433Y-52491291D01*
X221049180Y-52491500D01*
X217734000Y-52491500D01*
X217665879Y-52471498D01*
X217619386Y-52417842D01*
X217613213Y-52389466D01*
X217613104Y-52389498D01*
X217603525Y-52356876D01*
X217602135Y-52355671D01*
X217594452Y-52354000D01*
X216372000Y-52354000D01*
X216303879Y-52333998D01*
X216257386Y-52280342D01*
X216246000Y-52228000D01*
X216246000Y-51827885D01*
X216754000Y-51827885D01*
X216758475Y-51843124D01*
X216759865Y-51844329D01*
X216767548Y-51846000D01*
X217589884Y-51846000D01*
X217605123Y-51841525D01*
X217606328Y-51840135D01*
X217607999Y-51832452D01*
X217607999Y-51602905D01*
X217607662Y-51596386D01*
X217597743Y-51500794D01*
X217594851Y-51487400D01*
X217543412Y-51333216D01*
X217537239Y-51320038D01*
X217451937Y-51182193D01*
X217442901Y-51170792D01*
X217328171Y-51056261D01*
X217316760Y-51047249D01*
X217178757Y-50962184D01*
X217165576Y-50956037D01*
X217011290Y-50904862D01*
X216997914Y-50901995D01*
X216903562Y-50892328D01*
X216897145Y-50892000D01*
X216772115Y-50892000D01*
X216756876Y-50896475D01*
X216755671Y-50897865D01*
X216754000Y-50905548D01*
X216754000Y-51827885D01*
X216246000Y-51827885D01*
X216246000Y-50910116D01*
X216237828Y-50882285D01*
X216237828Y-50811289D01*
X216253776Y-50777060D01*
X216259313Y-50768727D01*
X216323643Y-50671902D01*
X216372272Y-50543886D01*
X216385555Y-50508920D01*
X216385556Y-50508918D01*
X216388055Y-50502338D01*
X216392689Y-50469365D01*
X216421977Y-50404691D01*
X216481581Y-50366117D01*
X216517463Y-50360900D01*
X216595774Y-50360900D01*
X216664766Y-50381467D01*
X216733159Y-50426222D01*
X216739763Y-50428678D01*
X216739765Y-50428679D01*
X216896558Y-50486990D01*
X216896560Y-50486990D01*
X216903168Y-50489448D01*
X216986995Y-50500633D01*
X217075980Y-50512507D01*
X217075984Y-50512507D01*
X217082961Y-50513438D01*
X217089972Y-50512800D01*
X217089976Y-50512800D01*
X217238295Y-50499301D01*
X217263600Y-50496998D01*
X217270302Y-50494820D01*
X217270304Y-50494820D01*
X217429409Y-50443124D01*
X217429412Y-50443123D01*
X217436108Y-50440947D01*
X217547869Y-50374324D01*
X217585860Y-50351677D01*
X217585862Y-50351676D01*
X217591912Y-50348069D01*
X217723266Y-50222982D01*
X217823643Y-50071902D01*
X217872328Y-49943739D01*
X217885555Y-49908920D01*
X217885556Y-49908918D01*
X217888055Y-49902338D01*
X217889035Y-49895366D01*
X217912748Y-49726639D01*
X217912748Y-49726636D01*
X217913299Y-49722717D01*
X217913616Y-49700000D01*
X217893397Y-49519745D01*
X217889828Y-49509495D01*
X217836064Y-49355106D01*
X217836062Y-49355103D01*
X217833745Y-49348448D01*
X217781350Y-49264598D01*
X217741359Y-49200598D01*
X217737626Y-49194624D01*
X217715274Y-49172115D01*
X217614778Y-49070915D01*
X217614774Y-49070912D01*
X217609815Y-49065918D01*
X217583179Y-49049014D01*
X217507035Y-49000692D01*
X217456666Y-48968727D01*
X217407630Y-48951266D01*
X217292425Y-48910243D01*
X217292420Y-48910242D01*
X217285790Y-48907881D01*
X217278802Y-48907048D01*
X217278799Y-48907047D01*
X217144751Y-48891063D01*
X217105680Y-48886404D01*
X217098677Y-48887140D01*
X217098676Y-48887140D01*
X216932288Y-48904628D01*
X216932286Y-48904629D01*
X216925288Y-48905364D01*
X216835094Y-48936068D01*
X216760249Y-48961547D01*
X216760246Y-48961548D01*
X216753579Y-48963818D01*
X216747576Y-48967511D01*
X216747572Y-48967513D01*
X216661578Y-49020417D01*
X216595556Y-49039100D01*
X216486900Y-49039100D01*
X216418779Y-49019098D01*
X216372286Y-48965442D01*
X216360900Y-48913100D01*
X216360900Y-45534500D01*
X216380902Y-45466379D01*
X216434558Y-45419886D01*
X216486900Y-45408500D01*
X217775400Y-45408500D01*
X217778646Y-45408163D01*
X217778650Y-45408163D01*
X217874308Y-45398238D01*
X217874312Y-45398237D01*
X217881166Y-45397526D01*
X217887702Y-45395345D01*
X217887704Y-45395345D01*
X218019806Y-45351272D01*
X218048946Y-45341550D01*
X218199348Y-45248478D01*
X218310740Y-45136891D01*
X218373024Y-45102812D01*
X218443844Y-45107815D01*
X218488931Y-45136735D01*
X218601697Y-45249305D01*
X218607927Y-45253145D01*
X218607928Y-45253146D01*
X218745090Y-45337694D01*
X218752262Y-45342115D01*
X218832005Y-45368564D01*
X218913611Y-45395632D01*
X218913613Y-45395632D01*
X218920139Y-45397797D01*
X218926975Y-45398497D01*
X218926978Y-45398498D01*
X218970031Y-45402909D01*
X219024600Y-45408500D01*
X220375400Y-45408500D01*
X220378646Y-45408163D01*
X220378650Y-45408163D01*
X220474308Y-45398238D01*
X220474312Y-45398237D01*
X220481166Y-45397526D01*
X220487702Y-45395345D01*
X220487704Y-45395345D01*
X220619806Y-45351272D01*
X220648946Y-45341550D01*
X220799348Y-45248478D01*
X220924305Y-45123303D01*
X220977294Y-45037340D01*
X221013275Y-44978968D01*
X221013276Y-44978966D01*
X221017115Y-44972738D01*
X221066787Y-44822982D01*
X221070632Y-44811389D01*
X221070632Y-44811387D01*
X221072797Y-44804861D01*
X221073662Y-44796424D01*
X221083172Y-44703598D01*
X221083500Y-44700400D01*
X221083500Y-43799600D01*
X221080205Y-43767842D01*
X221073238Y-43700692D01*
X221073237Y-43700688D01*
X221072526Y-43693834D01*
X221060859Y-43658862D01*
X221018868Y-43533002D01*
X221016550Y-43526054D01*
X220923478Y-43375652D01*
X220798303Y-43250695D01*
X220776537Y-43237278D01*
X220653968Y-43161725D01*
X220653966Y-43161724D01*
X220647738Y-43157885D01*
X220487254Y-43104655D01*
X220486389Y-43104368D01*
X220486387Y-43104368D01*
X220479861Y-43102203D01*
X220473025Y-43101503D01*
X220473022Y-43101502D01*
X220429969Y-43097091D01*
X220375400Y-43091500D01*
X219024600Y-43091500D01*
X219021354Y-43091837D01*
X219021350Y-43091837D01*
X218925692Y-43101762D01*
X218925688Y-43101763D01*
X218918834Y-43102474D01*
X218912298Y-43104655D01*
X218912296Y-43104655D01*
X218780194Y-43148728D01*
X218751054Y-43158450D01*
X218600652Y-43251522D01*
X218595479Y-43256704D01*
X218489259Y-43363109D01*
X218426976Y-43397188D01*
X218356156Y-43392185D01*
X218311068Y-43363264D01*
X218310114Y-43362311D01*
X218198303Y-43250695D01*
X218176537Y-43237278D01*
X218053968Y-43161725D01*
X218053966Y-43161724D01*
X218047738Y-43157885D01*
X217887254Y-43104655D01*
X217886389Y-43104368D01*
X217886387Y-43104368D01*
X217879861Y-43102203D01*
X217873025Y-43101503D01*
X217873022Y-43101502D01*
X217829969Y-43097091D01*
X217775400Y-43091500D01*
X216424600Y-43091500D01*
X216421354Y-43091837D01*
X216421350Y-43091837D01*
X216325692Y-43101762D01*
X216325688Y-43101763D01*
X216318834Y-43102474D01*
X216312298Y-43104655D01*
X216312296Y-43104655D01*
X216180194Y-43148728D01*
X216151054Y-43158450D01*
X216000652Y-43251522D01*
X215995479Y-43256704D01*
X215976073Y-43276144D01*
X215913791Y-43310223D01*
X215842971Y-43305220D01*
X215786098Y-43262723D01*
X215761229Y-43196225D01*
X215760900Y-43187126D01*
X215760900Y-42212037D01*
X215780902Y-42143916D01*
X215834558Y-42097423D01*
X215904832Y-42087319D01*
X215969412Y-42116813D01*
X215975919Y-42122865D01*
X215996829Y-42143739D01*
X216008240Y-42152751D01*
X216146243Y-42237816D01*
X216159424Y-42243963D01*
X216313710Y-42295138D01*
X216327086Y-42298005D01*
X216421438Y-42307672D01*
X216427854Y-42308000D01*
X216827885Y-42308000D01*
X216843124Y-42303525D01*
X216844329Y-42302135D01*
X216846000Y-42294452D01*
X216846000Y-42289884D01*
X217354000Y-42289884D01*
X217358475Y-42305123D01*
X217359865Y-42306328D01*
X217367548Y-42307999D01*
X217772095Y-42307999D01*
X217778614Y-42307662D01*
X217874206Y-42297743D01*
X217887600Y-42294851D01*
X218041784Y-42243412D01*
X218054962Y-42237239D01*
X218192807Y-42151937D01*
X218204208Y-42142901D01*
X218310387Y-42036538D01*
X218372670Y-42002459D01*
X218443490Y-42007462D01*
X218488578Y-42036383D01*
X218601697Y-42149305D01*
X218607927Y-42153145D01*
X218607928Y-42153146D01*
X218745288Y-42237816D01*
X218752262Y-42242115D01*
X218783126Y-42252352D01*
X218913611Y-42295632D01*
X218913613Y-42295632D01*
X218920139Y-42297797D01*
X218926975Y-42298497D01*
X218926978Y-42298498D01*
X218970031Y-42302909D01*
X219024600Y-42308500D01*
X220375400Y-42308500D01*
X220378646Y-42308163D01*
X220378650Y-42308163D01*
X220474308Y-42298238D01*
X220474312Y-42298237D01*
X220481166Y-42297526D01*
X220487702Y-42295345D01*
X220487704Y-42295345D01*
X220619806Y-42251272D01*
X220648946Y-42241550D01*
X220799348Y-42148478D01*
X220924305Y-42023303D01*
X220936803Y-42003028D01*
X221013275Y-41878968D01*
X221013276Y-41878966D01*
X221017115Y-41872738D01*
X221022259Y-41857230D01*
X221062690Y-41798872D01*
X221128254Y-41771636D01*
X221141851Y-41770900D01*
X222341065Y-41770900D01*
X222409186Y-41790902D01*
X222448498Y-41831066D01*
X222497287Y-41910683D01*
X222497291Y-41910688D01*
X222499987Y-41915088D01*
X222646250Y-42083938D01*
X222818126Y-42226632D01*
X222844622Y-42242115D01*
X222891445Y-42269476D01*
X222940169Y-42321114D01*
X222953240Y-42390897D01*
X222926509Y-42456669D01*
X222886055Y-42490027D01*
X222873607Y-42496507D01*
X222869474Y-42499610D01*
X222869471Y-42499612D01*
X222699100Y-42627530D01*
X222694965Y-42630635D01*
X222540629Y-42792138D01*
X222414743Y-42976680D01*
X222399003Y-43010590D01*
X222328579Y-43162306D01*
X222320688Y-43179305D01*
X222260989Y-43394570D01*
X222237251Y-43616695D01*
X222237548Y-43621848D01*
X222237548Y-43621851D01*
X222246876Y-43783621D01*
X222250110Y-43839715D01*
X222251247Y-43844761D01*
X222251248Y-43844767D01*
X222262847Y-43896233D01*
X222299222Y-44057639D01*
X222383266Y-44264616D01*
X222499987Y-44455088D01*
X222646250Y-44623938D01*
X222818126Y-44766632D01*
X223011000Y-44879338D01*
X223219692Y-44959030D01*
X223224760Y-44960061D01*
X223224763Y-44960062D01*
X223317690Y-44978968D01*
X223438597Y-45003567D01*
X223443772Y-45003757D01*
X223443774Y-45003757D01*
X223656673Y-45011564D01*
X223656677Y-45011564D01*
X223661837Y-45011753D01*
X223666957Y-45011097D01*
X223666959Y-45011097D01*
X223878288Y-44984025D01*
X223878289Y-44984025D01*
X223883416Y-44983368D01*
X223898082Y-44978968D01*
X224092429Y-44920661D01*
X224092434Y-44920659D01*
X224097384Y-44919174D01*
X224297994Y-44820896D01*
X224479860Y-44691173D01*
X224492576Y-44678502D01*
X224634435Y-44537137D01*
X224638096Y-44533489D01*
X224697594Y-44450689D01*
X224765435Y-44356277D01*
X224768453Y-44352077D01*
X224796340Y-44295653D01*
X224865136Y-44156453D01*
X224865137Y-44156451D01*
X224867430Y-44151811D01*
X224919218Y-43981358D01*
X224930865Y-43943023D01*
X224930865Y-43943021D01*
X224932370Y-43938069D01*
X224961529Y-43716590D01*
X224961611Y-43713240D01*
X224963074Y-43653365D01*
X224963074Y-43653361D01*
X224963156Y-43650000D01*
X224944852Y-43427361D01*
X224890431Y-43210702D01*
X224801354Y-43005840D01*
X224680014Y-42818277D01*
X224529670Y-42653051D01*
X224525619Y-42649852D01*
X224525615Y-42649848D01*
X224358414Y-42517800D01*
X224358410Y-42517798D01*
X224354359Y-42514598D01*
X224313053Y-42491796D01*
X224263084Y-42441364D01*
X224248312Y-42371921D01*
X224273428Y-42305516D01*
X224300780Y-42278909D01*
X224359199Y-42237239D01*
X224479860Y-42151173D01*
X224487143Y-42143916D01*
X224607129Y-42024348D01*
X224638096Y-41993489D01*
X224671053Y-41947625D01*
X224765435Y-41816277D01*
X224768453Y-41812077D01*
X224774980Y-41798872D01*
X224865136Y-41616453D01*
X224865137Y-41616451D01*
X224867430Y-41611811D01*
X224932370Y-41398069D01*
X224961529Y-41176590D01*
X224963156Y-41110000D01*
X224944852Y-40887361D01*
X224890431Y-40670702D01*
X224801354Y-40465840D01*
X224736419Y-40365466D01*
X224682822Y-40282617D01*
X224682820Y-40282614D01*
X224680014Y-40278277D01*
X224529670Y-40113051D01*
X224525619Y-40109852D01*
X224525615Y-40109848D01*
X224358414Y-39977800D01*
X224358410Y-39977798D01*
X224354359Y-39974598D01*
X224312569Y-39951529D01*
X224262598Y-39901097D01*
X224247826Y-39831654D01*
X224272942Y-39765248D01*
X224300294Y-39738641D01*
X224475328Y-39613792D01*
X224483200Y-39607139D01*
X224634052Y-39456812D01*
X224640730Y-39448965D01*
X224765003Y-39276020D01*
X224770313Y-39267183D01*
X224864670Y-39076267D01*
X224868469Y-39066672D01*
X224930377Y-38862910D01*
X224932555Y-38852837D01*
X224933986Y-38841962D01*
X224931775Y-38827778D01*
X224918617Y-38824000D01*
X222283225Y-38824000D01*
X222269694Y-38827973D01*
X222268257Y-38837966D01*
X222298565Y-38972446D01*
X222301645Y-38982275D01*
X222381770Y-39179603D01*
X222386413Y-39188794D01*
X222497694Y-39370388D01*
X222503777Y-39378699D01*
X222643213Y-39539667D01*
X222650580Y-39546883D01*
X222814434Y-39682916D01*
X222822881Y-39688831D01*
X222891969Y-39729203D01*
X222940693Y-39780842D01*
X222953764Y-39850625D01*
X222927033Y-39916396D01*
X222886584Y-39949752D01*
X222873607Y-39956507D01*
X222869474Y-39959610D01*
X222869471Y-39959612D01*
X222706845Y-40081715D01*
X222694965Y-40090635D01*
X222540629Y-40252138D01*
X222537715Y-40256410D01*
X222537714Y-40256411D01*
X222443786Y-40394104D01*
X222388875Y-40439107D01*
X222339698Y-40449100D01*
X221101014Y-40449100D01*
X221032893Y-40429098D01*
X220993870Y-40389403D01*
X220927332Y-40281880D01*
X220923478Y-40275652D01*
X220798303Y-40150695D01*
X220743429Y-40116870D01*
X220653968Y-40061725D01*
X220653966Y-40061724D01*
X220647738Y-40057885D01*
X220567995Y-40031436D01*
X220486389Y-40004368D01*
X220486387Y-40004368D01*
X220479861Y-40002203D01*
X220473025Y-40001503D01*
X220473022Y-40001502D01*
X220429969Y-39997091D01*
X220375400Y-39991500D01*
X219024600Y-39991500D01*
X219021354Y-39991837D01*
X219021350Y-39991837D01*
X218925692Y-40001762D01*
X218925688Y-40001763D01*
X218918834Y-40002474D01*
X218912298Y-40004655D01*
X218912296Y-40004655D01*
X218895928Y-40010116D01*
X218751054Y-40058450D01*
X218600652Y-40151522D01*
X218595479Y-40156704D01*
X218488906Y-40263463D01*
X218426624Y-40297542D01*
X218355803Y-40292539D01*
X218310715Y-40263618D01*
X218203171Y-40156261D01*
X218191760Y-40147249D01*
X218053757Y-40062184D01*
X218040576Y-40056037D01*
X217886290Y-40004862D01*
X217872914Y-40001995D01*
X217778562Y-39992328D01*
X217772145Y-39992000D01*
X217372115Y-39992000D01*
X217356876Y-39996475D01*
X217355671Y-39997865D01*
X217354000Y-40005548D01*
X217354000Y-42289884D01*
X216846000Y-42289884D01*
X216846000Y-40010116D01*
X216841525Y-39994877D01*
X216840135Y-39993672D01*
X216832452Y-39992001D01*
X216427905Y-39992001D01*
X216421386Y-39992338D01*
X216325794Y-40002257D01*
X216312400Y-40005149D01*
X216158216Y-40056588D01*
X216145038Y-40062761D01*
X216007193Y-40148063D01*
X215995791Y-40157099D01*
X215976072Y-40176853D01*
X215913789Y-40210931D01*
X215842969Y-40205928D01*
X215786097Y-40163430D01*
X215761229Y-40096931D01*
X215760900Y-40087834D01*
X215760900Y-37325944D01*
X215780902Y-37257823D01*
X215797805Y-37236849D01*
X216306849Y-36727805D01*
X216369161Y-36693779D01*
X216395944Y-36690900D01*
X222341065Y-36690900D01*
X222409186Y-36710902D01*
X222448498Y-36751066D01*
X222497287Y-36830683D01*
X222497291Y-36830688D01*
X222499987Y-36835088D01*
X222646250Y-37003938D01*
X222818126Y-37146632D01*
X222883695Y-37184947D01*
X222891955Y-37189774D01*
X222940679Y-37241412D01*
X222953750Y-37311195D01*
X222927019Y-37376967D01*
X222886562Y-37410327D01*
X222878457Y-37414546D01*
X222869738Y-37420036D01*
X222699433Y-37547905D01*
X222691726Y-37554748D01*
X222544590Y-37708717D01*
X222538104Y-37716727D01*
X222418098Y-37892649D01*
X222413000Y-37901623D01*
X222323338Y-38094783D01*
X222319775Y-38104470D01*
X222264389Y-38304183D01*
X222265912Y-38312607D01*
X222278292Y-38316000D01*
X224918344Y-38316000D01*
X224931875Y-38312027D01*
X224933180Y-38302947D01*
X224891214Y-38135875D01*
X224887894Y-38126124D01*
X224802972Y-37930814D01*
X224798105Y-37921739D01*
X224682426Y-37742926D01*
X224676136Y-37734757D01*
X224532806Y-37577240D01*
X224525273Y-37570215D01*
X224358139Y-37438222D01*
X224349556Y-37432520D01*
X224312602Y-37412120D01*
X224262631Y-37361687D01*
X224247859Y-37292245D01*
X224272975Y-37225839D01*
X224300327Y-37199232D01*
X224358380Y-37157823D01*
X224479860Y-37071173D01*
X224638096Y-36913489D01*
X224768453Y-36732077D01*
X224776211Y-36716381D01*
X224865136Y-36536453D01*
X224865137Y-36536451D01*
X224867430Y-36531811D01*
X224932370Y-36318069D01*
X224961529Y-36096590D01*
X224961611Y-36093240D01*
X224963074Y-36033365D01*
X224963074Y-36033361D01*
X224963156Y-36030000D01*
X224944852Y-35807361D01*
X224890431Y-35590702D01*
X224801354Y-35385840D01*
X224680014Y-35198277D01*
X224529670Y-35033051D01*
X224525619Y-35029852D01*
X224525615Y-35029848D01*
X224358414Y-34897800D01*
X224358410Y-34897798D01*
X224354359Y-34894598D01*
X224313053Y-34871796D01*
X224263084Y-34821364D01*
X224248312Y-34751921D01*
X224273428Y-34685516D01*
X224300780Y-34658909D01*
X224344603Y-34627650D01*
X224479860Y-34531173D01*
X224638096Y-34373489D01*
X224659410Y-34343828D01*
X224765435Y-34196277D01*
X224768453Y-34192077D01*
X224771200Y-34186520D01*
X224865136Y-33996453D01*
X224865137Y-33996451D01*
X224867430Y-33991811D01*
X224932370Y-33778069D01*
X224961529Y-33556590D01*
X224963156Y-33490000D01*
X224944852Y-33267361D01*
X224890431Y-33050702D01*
X224801354Y-32845840D01*
X224680014Y-32658277D01*
X224676532Y-32654450D01*
X224532798Y-32496488D01*
X224501746Y-32432642D01*
X224510141Y-32362143D01*
X224555317Y-32307375D01*
X224581761Y-32293706D01*
X224688297Y-32253767D01*
X224696705Y-32250615D01*
X224813261Y-32163261D01*
X224900615Y-32046705D01*
X224951745Y-31910316D01*
X224958500Y-31848134D01*
X224958500Y-30051866D01*
X224951745Y-29989684D01*
X224900615Y-29853295D01*
X224813261Y-29736739D01*
X224696705Y-29649385D01*
X224560316Y-29598255D01*
X224498134Y-29591500D01*
X222701866Y-29591500D01*
X222639684Y-29598255D01*
X222503295Y-29649385D01*
X222386739Y-29736739D01*
X222299385Y-29853295D01*
X222248255Y-29989684D01*
X222241500Y-30051866D01*
X222241500Y-31848134D01*
X222248255Y-31910316D01*
X222299385Y-32046705D01*
X222386739Y-32163261D01*
X222503295Y-32250615D01*
X222511704Y-32253767D01*
X222511705Y-32253768D01*
X222620451Y-32294535D01*
X222677216Y-32337176D01*
X222701916Y-32403738D01*
X222686709Y-32473087D01*
X222667316Y-32499568D01*
X222540629Y-32632138D01*
X222414743Y-32816680D01*
X222399003Y-32850590D01*
X222332472Y-32993919D01*
X222320688Y-33019305D01*
X222260989Y-33234570D01*
X222237251Y-33456695D01*
X222237548Y-33461848D01*
X222237548Y-33461851D01*
X222243011Y-33556590D01*
X222250110Y-33679715D01*
X222251247Y-33684761D01*
X222251248Y-33684767D01*
X222271119Y-33772939D01*
X222299222Y-33897639D01*
X222383266Y-34104616D01*
X222402299Y-34135675D01*
X222482753Y-34266964D01*
X222499987Y-34295088D01*
X222646250Y-34463938D01*
X222818126Y-34606632D01*
X222888595Y-34647811D01*
X222891445Y-34649476D01*
X222940169Y-34701114D01*
X222953240Y-34770897D01*
X222926509Y-34836669D01*
X222886055Y-34870027D01*
X222873607Y-34876507D01*
X222869474Y-34879610D01*
X222869471Y-34879612D01*
X222752398Y-34967513D01*
X222694965Y-35010635D01*
X222540629Y-35172138D01*
X222537715Y-35176410D01*
X222537714Y-35176411D01*
X222443786Y-35314104D01*
X222388875Y-35359107D01*
X222339698Y-35369100D01*
X216097252Y-35369100D01*
X216088682Y-35368808D01*
X216042732Y-35365675D01*
X216042728Y-35365675D01*
X216035156Y-35365159D01*
X216027679Y-35366464D01*
X216027677Y-35366464D01*
X215991500Y-35372778D01*
X215976662Y-35375368D01*
X215970144Y-35376329D01*
X215957053Y-35377914D01*
X215918737Y-35382550D01*
X215918734Y-35382551D01*
X215911195Y-35383463D01*
X215904087Y-35386149D01*
X215897121Y-35387860D01*
X215891932Y-35389279D01*
X215885053Y-35391356D01*
X215877576Y-35392661D01*
X215870624Y-35395713D01*
X215870623Y-35395713D01*
X215823220Y-35416522D01*
X215817111Y-35419015D01*
X215768664Y-35437321D01*
X215768662Y-35437322D01*
X215761559Y-35440006D01*
X215755302Y-35444306D01*
X215748925Y-35447640D01*
X215744255Y-35450240D01*
X215738058Y-35453905D01*
X215731103Y-35456958D01*
X215725079Y-35461580D01*
X215725078Y-35461581D01*
X215683995Y-35493106D01*
X215678657Y-35496984D01*
X215635988Y-35526309D01*
X215635986Y-35526311D01*
X215629729Y-35530611D01*
X215624677Y-35536281D01*
X215624676Y-35536282D01*
X215591240Y-35573810D01*
X215586260Y-35579086D01*
X215336042Y-35829305D01*
X215275996Y-35889351D01*
X215213683Y-35923376D01*
X215142868Y-35918312D01*
X215086032Y-35875765D01*
X215061221Y-35809245D01*
X215060900Y-35800256D01*
X215060900Y-31404379D01*
X215081952Y-31334652D01*
X215119742Y-31277773D01*
X215123643Y-31271902D01*
X215188055Y-31102338D01*
X215189035Y-31095366D01*
X215212748Y-30926639D01*
X215212748Y-30926636D01*
X215213299Y-30922717D01*
X215213616Y-30900000D01*
X215193397Y-30719745D01*
X215191080Y-30713091D01*
X215136064Y-30555106D01*
X215136062Y-30555103D01*
X215133745Y-30548448D01*
X215037626Y-30394624D01*
X215023941Y-30380843D01*
X214914778Y-30270915D01*
X214914774Y-30270912D01*
X214909815Y-30265918D01*
X214898697Y-30258862D01*
X214850538Y-30228300D01*
X214756666Y-30168727D01*
X214727463Y-30158328D01*
X214592425Y-30110243D01*
X214592420Y-30110242D01*
X214585790Y-30107881D01*
X214578802Y-30107048D01*
X214578799Y-30107047D01*
X214455698Y-30092368D01*
X214405680Y-30086404D01*
X214398677Y-30087140D01*
X214398676Y-30087140D01*
X214232288Y-30104628D01*
X214232286Y-30104629D01*
X214225288Y-30105364D01*
X214053579Y-30163818D01*
X214047575Y-30167512D01*
X213905095Y-30255166D01*
X213905092Y-30255168D01*
X213899088Y-30258862D01*
X213894053Y-30263793D01*
X213894050Y-30263795D01*
X213774525Y-30380843D01*
X213769493Y-30385771D01*
X213671235Y-30538238D01*
X213668826Y-30544858D01*
X213668824Y-30544861D01*
X213611606Y-30702066D01*
X213609197Y-30708685D01*
X213586463Y-30888640D01*
X213604163Y-31069160D01*
X213661418Y-31241273D01*
X213665065Y-31247295D01*
X213665066Y-31247297D01*
X213720876Y-31339450D01*
X213739100Y-31404721D01*
X213739100Y-34774496D01*
X213719098Y-34842617D01*
X213665442Y-34889110D01*
X213626271Y-34899806D01*
X213607865Y-34901740D01*
X213580389Y-34904628D01*
X213580388Y-34904628D01*
X213573388Y-34905364D01*
X213483194Y-34936068D01*
X213408349Y-34961547D01*
X213408346Y-34961548D01*
X213401679Y-34963818D01*
X213395676Y-34967511D01*
X213395672Y-34967513D01*
X213309678Y-35020417D01*
X213243656Y-35039100D01*
X210784500Y-35039100D01*
X210716379Y-35019098D01*
X210669886Y-34965442D01*
X210658500Y-34913100D01*
X210658500Y-33301866D01*
X210651745Y-33239684D01*
X210600615Y-33103295D01*
X210513261Y-32986739D01*
X210396705Y-32899385D01*
X210260316Y-32848255D01*
X210198134Y-32841500D01*
X208401866Y-32841500D01*
X208339684Y-32848255D01*
X208203295Y-32899385D01*
X208086739Y-32986739D01*
X207999385Y-33103295D01*
X207948255Y-33239684D01*
X207941500Y-33301866D01*
X207941500Y-34078381D01*
X207921498Y-34146502D01*
X207867842Y-34192995D01*
X207797568Y-34203099D01*
X207769726Y-34195772D01*
X207759283Y-34191700D01*
X207753207Y-34189146D01*
X207752912Y-34189013D01*
X207699088Y-34164711D01*
X207691612Y-34163325D01*
X207684734Y-34161170D01*
X207679609Y-34159710D01*
X207672645Y-34157922D01*
X207665566Y-34155162D01*
X207658034Y-34154170D01*
X207658032Y-34154170D01*
X207632804Y-34150849D01*
X207606700Y-34147413D01*
X207600202Y-34146384D01*
X207541803Y-34135560D01*
X207534223Y-34135997D01*
X207534222Y-34135997D01*
X207484033Y-34138891D01*
X207476780Y-34139100D01*
X189527263Y-34139100D01*
X189518692Y-34138808D01*
X189465157Y-34135158D01*
X189406648Y-34145370D01*
X189400136Y-34146330D01*
X189391182Y-34147414D01*
X189348737Y-34152550D01*
X189348734Y-34152551D01*
X189341195Y-34153463D01*
X189334089Y-34156148D01*
X189327136Y-34157856D01*
X189321963Y-34159271D01*
X189315061Y-34161355D01*
X189307577Y-34162661D01*
X189300624Y-34165713D01*
X189300618Y-34165715D01*
X189253224Y-34186520D01*
X189247115Y-34189013D01*
X189198669Y-34207319D01*
X189198667Y-34207320D01*
X189191559Y-34210006D01*
X189185297Y-34214310D01*
X189178935Y-34217636D01*
X189174235Y-34220252D01*
X189168056Y-34223907D01*
X189161104Y-34226958D01*
X189113989Y-34263111D01*
X189108685Y-34266964D01*
X189065992Y-34296306D01*
X189065989Y-34296308D01*
X189059729Y-34300611D01*
X189054674Y-34306285D01*
X189021224Y-34343828D01*
X189016243Y-34349104D01*
X186838689Y-36526658D01*
X186838222Y-36527124D01*
X186778253Y-36586468D01*
X186760165Y-36615984D01*
X186751894Y-36627883D01*
X186730537Y-36655121D01*
X186727409Y-36662049D01*
X186717995Y-36682899D01*
X186710590Y-36696884D01*
X186698642Y-36716381D01*
X186698640Y-36716386D01*
X186694673Y-36722859D01*
X186690391Y-36736277D01*
X186684153Y-36755824D01*
X186678954Y-36769366D01*
X186670685Y-36787680D01*
X186664711Y-36800912D01*
X186663326Y-36808383D01*
X186663326Y-36808384D01*
X186659158Y-36830874D01*
X186655304Y-36846220D01*
X186646039Y-36875250D01*
X186645522Y-36882827D01*
X186645522Y-36882829D01*
X186643685Y-36909776D01*
X186641867Y-36924166D01*
X186635560Y-36958197D01*
X186635997Y-36965777D01*
X186637314Y-36988615D01*
X186637231Y-37004435D01*
X186635158Y-37034843D01*
X186636463Y-37042318D01*
X186636463Y-37042324D01*
X186641109Y-37068944D01*
X186642776Y-37083352D01*
X186644768Y-37117894D01*
X186653730Y-37147026D01*
X186657422Y-37162403D01*
X186662661Y-37192424D01*
X186665710Y-37199371D01*
X186665711Y-37199373D01*
X186666790Y-37201830D01*
X186676182Y-37223225D01*
X186676570Y-37224110D01*
X186681625Y-37237704D01*
X186691803Y-37270787D01*
X186696690Y-37278952D01*
X186707456Y-37296940D01*
X186714714Y-37311002D01*
X186726958Y-37338895D01*
X186724801Y-37339842D01*
X186739100Y-37392103D01*
X186739100Y-43715500D01*
X186719098Y-43783621D01*
X186665442Y-43830114D01*
X186613100Y-43841500D01*
X186501866Y-43841500D01*
X186439684Y-43848255D01*
X186303295Y-43899385D01*
X186186739Y-43986739D01*
X186099385Y-44103295D01*
X186048255Y-44239684D01*
X186041500Y-44301866D01*
X186041500Y-46098134D01*
X186048255Y-46160316D01*
X186099385Y-46296705D01*
X186186739Y-46413261D01*
X186193919Y-46418642D01*
X186230724Y-46446226D01*
X186273239Y-46503085D01*
X186278265Y-46573904D01*
X186254312Y-46624799D01*
X186241395Y-46641273D01*
X186230537Y-46655121D01*
X186227410Y-46662047D01*
X186223698Y-46668176D01*
X186221062Y-46672796D01*
X186217640Y-46679178D01*
X186213269Y-46685397D01*
X186210509Y-46692476D01*
X186191702Y-46740713D01*
X186189146Y-46746792D01*
X186164711Y-46800912D01*
X186163325Y-46808388D01*
X186161170Y-46815266D01*
X186159710Y-46820391D01*
X186157922Y-46827355D01*
X186155162Y-46834434D01*
X186147795Y-46890401D01*
X186147414Y-46893292D01*
X186146384Y-46899798D01*
X186135560Y-46958197D01*
X186135997Y-46965777D01*
X186135997Y-46965778D01*
X186138891Y-47015967D01*
X186139100Y-47023220D01*
X186139100Y-48329944D01*
X186119098Y-48398065D01*
X186065442Y-48444558D01*
X186052977Y-48449467D01*
X186033007Y-48456130D01*
X186033005Y-48456131D01*
X186026054Y-48458450D01*
X185875652Y-48551522D01*
X185750695Y-48676697D01*
X185746855Y-48682927D01*
X185746854Y-48682928D01*
X185665405Y-48815063D01*
X185657885Y-48827262D01*
X185637992Y-48887238D01*
X185612592Y-48963818D01*
X185602203Y-48995139D01*
X185601503Y-49001975D01*
X185601502Y-49001978D01*
X185597310Y-49042894D01*
X185591500Y-49099600D01*
X185591500Y-49900400D01*
X185591837Y-49903646D01*
X185591837Y-49903650D01*
X185600808Y-49990108D01*
X185602474Y-50006166D01*
X185604655Y-50012702D01*
X185604655Y-50012704D01*
X185644477Y-50132063D01*
X185658450Y-50173946D01*
X185751522Y-50324348D01*
X185832722Y-50405406D01*
X185838109Y-50410784D01*
X185872188Y-50473066D01*
X185867185Y-50543886D01*
X185838264Y-50588975D01*
X185832482Y-50594767D01*
X185750695Y-50676697D01*
X185746855Y-50682927D01*
X185746854Y-50682928D01*
X185667031Y-50812425D01*
X185657885Y-50827262D01*
X185634467Y-50897865D01*
X185613134Y-50962184D01*
X185602203Y-50995139D01*
X185591500Y-51099600D01*
X185591500Y-51900400D01*
X185008500Y-51900400D01*
X185008500Y-31898134D01*
X207941500Y-31898134D01*
X207948255Y-31960316D01*
X207999385Y-32096705D01*
X208086739Y-32213261D01*
X208203295Y-32300615D01*
X208339684Y-32351745D01*
X208401866Y-32358500D01*
X210198134Y-32358500D01*
X210260316Y-32351745D01*
X210396705Y-32300615D01*
X210513261Y-32213261D01*
X210600615Y-32096705D01*
X210651745Y-31960316D01*
X210658500Y-31898134D01*
X210658500Y-30101866D01*
X210651745Y-30039684D01*
X210600615Y-29903295D01*
X210513261Y-29786739D01*
X210396705Y-29699385D01*
X210260316Y-29648255D01*
X210198134Y-29641500D01*
X208401866Y-29641500D01*
X208339684Y-29648255D01*
X208203295Y-29699385D01*
X208086739Y-29786739D01*
X207999385Y-29903295D01*
X207948255Y-30039684D01*
X207941500Y-30101866D01*
X207941500Y-31898134D01*
X185008500Y-31898134D01*
X185008500Y-27934500D01*
X185028502Y-27866379D01*
X185082158Y-27819886D01*
X185134500Y-27808500D01*
X192291377Y-27808500D01*
X192292148Y-27808502D01*
X192369721Y-27808976D01*
X192398152Y-27800850D01*
X192414915Y-27797272D01*
X192415753Y-27797152D01*
X192444187Y-27793080D01*
X192467564Y-27782451D01*
X192485087Y-27776004D01*
X192509771Y-27768949D01*
X192517365Y-27764157D01*
X192517368Y-27764156D01*
X192534780Y-27753170D01*
X192549865Y-27745030D01*
X192576782Y-27732792D01*
X192596235Y-27716030D01*
X192611239Y-27704927D01*
X192632958Y-27691224D01*
X192638897Y-27684499D01*
X192638901Y-27684496D01*
X192652532Y-27669062D01*
X192664724Y-27657018D01*
X192680327Y-27643573D01*
X192680329Y-27643570D01*
X192687127Y-27637713D01*
X192701094Y-27616165D01*
X192712385Y-27601291D01*
X192723431Y-27588783D01*
X192723432Y-27588782D01*
X192729378Y-27582049D01*
X192741943Y-27555287D01*
X192750263Y-27540309D01*
X192761471Y-27523017D01*
X192761473Y-27523012D01*
X192766352Y-27515485D01*
X192768922Y-27506892D01*
X192768924Y-27506887D01*
X192773711Y-27490880D01*
X192780372Y-27473436D01*
X192787467Y-27458324D01*
X192787468Y-27458322D01*
X192791281Y-27450200D01*
X192795830Y-27420983D01*
X192799613Y-27404268D01*
X192805515Y-27384534D01*
X192805516Y-27384528D01*
X192808086Y-27375934D01*
X192808296Y-27341494D01*
X192808329Y-27340711D01*
X192808500Y-27339614D01*
X192808500Y-27308623D01*
X192808502Y-27307853D01*
X192808952Y-27234215D01*
X192808952Y-27234214D01*
X192808976Y-27230279D01*
X192808592Y-27228935D01*
X192808500Y-27227590D01*
X192808500Y-26879413D01*
X192828502Y-26811292D01*
X192882158Y-26764799D01*
X192952432Y-26754695D01*
X193019866Y-26786738D01*
G37*
%TD.AperFunction*%
%TD*%
M02*
